<?xml version="1.0" encoding="utf-8"?>
<!-- Generator: Adobe Illustrator 24.0.1, SVG Export Plug-In . SVG Version: 6.00 Build 0)  -->
<svg version="1.1" id="Layer_1" xmlns="http://www.w3.org/2000/svg" xmlns:xlink="http://www.w3.org/1999/xlink" x="0px" y="0px"
	 viewBox="0 0 4000 4000" style="enable-background:new 0 0 4000 4000;" xml:space="preserve">
<style type="text/css">
	.st0{fill:#00C9F7;}
	.st1{fill:#371A45;}
	.st2{opacity:0.35;}
	.st3{fill:#FFFFFF;}
	.st4{opacity:0.3;}
	.st5{fill:#293856;}
	.st6{fill:#220F2D;}
	.st7{opacity:0.5;}
	.st8{opacity:0.7;}
</style>
<g>
	<g>
		<g>
			<g>
				<g>
					<path class="st0" d="M2159.43,2808.75c-15.2,50.37-136.13,70.84-136.13,70.84s-45.94,45.1-153.88,87.37
						c-0.57,0.24-1.18,0.47-1.79,0.66c-88.21,34.55-460.5,172.61-852.33-33.09c-97.86-51.4-169.08-165.27-169.08-165.27
						s-123.7-16.48-123.7-86.57c0-68.82,70.37-78.23,132.88-76.3c0,0,10.73-193.42,227.03-318.63
						c216.34-125.21,894.93,100.4,894.93,100.4l29.18,137.59L2041,2688.2C2041,2688.2,2181.84,2734.57,2159.43,2808.75z"/>
				</g>
			</g>
			<g>
				<g>
					<path class="st1" d="M1464.99,3062.53c-140.39,0-297.77-28.69-457.74-112.67c-88.13-46.26-154.11-138.86-171.37-164.72
						c-29.86-5.41-130.69-29.1-130.7-102.45c0-25.39,8.14-46.17,24.2-61.74c22.25-21.57,57.63-31.9,110.62-32.1
						c7.79-51.16,46.47-207.68,233.76-316.08c220.55-127.68,881.05,89.61,909.06,98.93c5.84,1.94,10.21,6.83,11.49,12.85
						l61.66,290.61c33.91,12.92,143.43,61.21,120.06,138.6c-16.38,54.26-118.19,76.98-144.75,82.03
						c-13.82,12.12-62.33,50.8-155.52,87.3C1781.27,3020.11,1635.69,3062.53,1464.99,3062.53z M841.52,2623.52
						c-43.69,0-72.54,7.34-88.01,22.33c-9.2,8.92-13.67,20.97-13.67,36.85c0.01,53.2,107.59,69.24,108.68,69.39
						c5.1,0.69,9.65,3.62,12.39,7.98c0.69,1.1,70.01,110.57,162.45,159.1c342.28,179.68,673.05,96.95,839.75,31.64l0,0
						c102.6-40.2,147.63-83.18,148.08-83.61c2.51-2.44,5.74-4.09,9.2-4.68c45.83-7.81,114.13-31.22,122.45-58.78
						c16.99-56.26-106.01-98.67-107.26-99.08c-5.85-1.93-10.25-6.83-11.53-12.86l-61.58-290.25
						c-82.23-26.33-677.71-210.85-871.35-98.77c-205.84,119.15-218.3,302.75-218.4,304.59c-0.52,9.4-8.55,16.58-17.84,16.37
						C850.29,2623.59,845.83,2623.52,841.52,2623.52z"/>
				</g>
			</g>
			<g class="st2">
				<g>
					<path class="st1" d="M1178.27,2509.58c-14.02,41.66-106.17,99.93-245.96,135.82c-89.7,23.03-166.7,5.14-180.3-119.76
						c-12.18-111.86,136.31-230.59,272.46-208.22C1179.53,2342.89,1192.29,2467.92,1178.27,2509.58z"/>
				</g>
			</g>
			<g>
				<g>
					<path class="st3" d="M1110.6,2445.76c-14.02,41.66-62.04,116.68-201.83,152.57c-89.7,23.03-166.7,5.14-180.3-119.76
						c-12.18-111.86,136.31-230.59,272.46-208.22C1155.99,2295.82,1124.62,2404.1,1110.6,2445.76z"/>
				</g>
			</g>
			<g class="st2">
				<g>
					<path class="st1" d="M1113.96,2435.29c-1.13,3.81-2.31,7.34-3.34,10.5c-14.03,41.66-62.04,116.64-201.84,152.56
						c-89.72,23.02-166.68,5.13-180.29-119.8c-3.34-30.5,5.27-61.48,22.36-90c15.96,119.33,105.58,140.98,196.1,131.61
						C1055.36,2509.05,1096.74,2472.85,1113.96,2435.29z"/>
				</g>
			</g>
			<g>
				<g>
					<path class="st1" d="M848.14,2624.19c-30.49,0-56.3-7.22-77.13-21.64c-33.35-23.09-53.46-64.17-59.77-122.11
						c-5.6-51.44,18.59-106.89,66.37-152.15c62.27-58.98,148.92-87.73,226.13-75.05c59.08,9.71,99.64,32.25,120.55,67
						c26.93,44.76,14.46,96.23,2.74,131.05c-12.06,35.84-57.05,123.55-213.94,163.83C889.53,2621.17,867.85,2624.19,848.14,2624.19z
						 M967.74,2285.03c-58.09,0-120.65,25.21-166.29,68.43c-39.85,37.74-60.17,82.66-55.75,123.23
						c5.17,47.49,20.33,80.25,45.04,97.35c25.66,17.77,63.93,20.29,113.72,7.5c140.44-36.05,179.45-110.83,189.71-141.3l0,0
						c9.53-28.31,19.93-69.68,0.41-102.13c-15.42-25.63-47.88-42.68-96.46-50.66C988.22,2285.82,978.05,2285.03,967.74,2285.03z"/>
				</g>
			</g>
			<g>
				<g>
					<path class="st3" d="M2916.37,2027.61l17.07-145.19c2.46-106.26,14.26-262.76-195.65-326.12c-242.2-73.1-554.97-48.49-639.99-6
						c-140.58,70.26-228.05,471.79-228.05,471.79L2916.37,2027.61z"/>
				</g>
			</g>
			<g>
				<g>
					<path class="st3" d="M2933.43,1882.43l-4.35,36.97l-12.71,108.23l-1019.77-5.4l-26.83-0.13c0,0,0.39-1.95,1.25-5.56
						c2.25-9.89,7.58-32.25,15.69-62.24c31.78-117.6,106.82-351.88,211.1-403.98c84.99-42.51,397.76-67.11,639.98,5.96
						C2947.7,1619.66,2935.91,1776.18,2933.43,1882.43z"/>
				</g>
			</g>
			<g class="st2">
				<g>
					<path class="st1" d="M2929.08,1919.4l-12.71,108.23l-1019.77-5.4l-25.59-5.69c2.25-9.89,7.58-32.25,15.69-62.24l142.28-111.94
						l56.62-184.62c0,0,65.7,106.72,159.8,123.12c230.28,40.14,362.74-43.67,509.96,0.77
						C2854.96,1811.68,2904.65,1862.7,2929.08,1919.4z"/>
				</g>
			</g>
			<g>
				<g>
					<path class="st3" d="M2601.61,1549.02l-23.79,159.88c-2.12,14.27,5.62,28.19,18.9,33.83c48.64,20.66,163.45,62.54,213.67,22.05
						c41.68-33.61,52.93-100.95,28.78-147.37c-27.01-51.93-142.01-82.44-199.58-94.74
						C2621.69,1518.85,2604.3,1530.91,2601.61,1549.02z"/>
				</g>
			</g>
			<g class="st2">
				<g>
					<path class="st1" d="M2596.74,1742.72c48.61,20.68,163.44,62.54,213.64,22.04c41.69-33.61,52.94-100.94,28.78-147.38
						c-16.64-31.92-66.54-55.76-115.87-72.23c23.61,12.79,41.58,28.55,51.88,45.42c59.04,96.67-45.12,135.26-45.12,135.26
						s19.72,15.26,19.11,23.72c-2.53,35.39-108.02,4.07-162.23-13.41C2589.67,1738.87,2592.96,1741.13,2596.74,1742.72z"/>
				</g>
			</g>
			<g>
				<g>
					<path class="st1" d="M2750.13,1799.02c-54.57,0-118.59-22.67-160.19-40.34c-20.52-8.71-32.56-30.23-29.27-52.33l23.79-159.88
						c1.99-13.35,9.48-25.41,20.56-33.1c11.08-7.68,25-10.46,38.18-7.65c80.77,17.25,183.01,49.23,211.34,103.69
						c28.7,55.17,13.77,130.92-33.28,168.86C2802.66,1793.28,2777.58,1799.02,2750.13,1799.02z M2618.76,1551.57l-23.79,159.88
						c-0.96,6.47,2.54,12.78,8.53,15.32c92.86,39.45,166.13,48.6,196.01,24.52c34.28-27.64,45.4-85.29,24.28-125.88
						c-16.74-32.18-86.95-64.25-187.82-85.78c-3.93-0.84-7.89-0.04-11.18,2.24C2621.49,1544.14,2619.35,1547.59,2618.76,1551.57
						L2618.76,1551.57z"/>
				</g>
			</g>
			<g>
				<g>
					<path class="st1" d="M2931.78,2045.03l-1083.51-5.72l4.56-20.91c3.64-16.72,90.92-410.47,237.23-483.6
						c94.27-47.11,417.03-66.24,652.74,4.91c215.14,64.94,211,225.47,208.26,331.69l-0.4,13.05L2931.78,2045.03z M1891.61,2004.87
						l1009.36,5.32l15.17-129l0.27-10.69c2.76-107.07,6.2-240.32-183.62-297.61c-244.17-73.71-549.17-46.1-627.23-7.09
						C1991.72,1622.7,1911.68,1922.54,1891.61,2004.87z"/>
				</g>
			</g>
			<g>
				<g>
					<path class="st1" d="M2639.09,1699.05c19.47,1.76,38.77,5.37,58.02,7.52c19.22,2.25,38.49,3.54,57.12,2.06
						c18.55-1.45,36.52-5.87,50.85-14.72c14.43-8.74,24.61-21.84,31.17-37.08c3.8-8.82,14.03-12.89,22.85-9.09
						c8.82,3.8,12.89,14.03,9.09,22.85c-0.34,0.8-0.74,1.56-1.19,2.28l-0.14,0.23c-5.96,9.5-13.15,18.45-21.66,26.03
						c-8.48,7.6-18.24,13.73-28.49,18.03c-20.62,8.67-42.24,10.19-62.47,8.81c-20.35-1.43-39.82-5.75-58.79-10.88
						C2676.45,1710.02,2658.04,1703.65,2639.09,1699.05z"/>
				</g>
			</g>
			<g class="st4">
				<g>
					<path class="st5" d="M3093.77,2350.99c-1.14-1.38-2.28-2.76-3.43-4.14c1.14,1.38,2.28,2.76,3.37,4.14L3093.77,2350.99z"/>
				</g>
			</g>
			<g>
				<g>
					<path class="st3" d="M2064.94,1926.11c0,0,572.3-218.79,907.08,62.01c234.09,196.35,191.67,495.22,94.22,655.88
						c0,0-923.39,303.02-1200.51,32.5C1681.61,2496.74,2064.94,1926.11,2064.94,1926.11z"/>
				</g>
			</g>
			<g>
				<g>
					<path class="st1" d="M3066.23,2661.33c-3.06,0-6.16-0.82-8.97-2.52c-8.19-4.97-10.8-15.63-5.83-23.81
						c90.12-148.57,140.38-439.92-90.54-633.61c-168.07-140.98-400.2-149.84-565.31-132.43c-180.71,19.04-323.03,72.8-324.45,73.33
						c-8.95,3.42-18.96-1.07-22.38-10c-3.42-8.94,1.06-18.96,10-22.38c5.93-2.27,147.32-55.73,332.36-75.34
						c246.76-26.16,451.48,22.35,592.05,140.26c247.64,207.71,194.23,519.36,97.91,678.15
						C3077.81,2658.36,3072.09,2661.33,3066.23,2661.33z"/>
				</g>
			</g>
			<g>
				<g>
					<path class="st1" d="M2080.59,1767.71c-5.17-21.27-8.25-42.52-10.15-64.16c-1.86-21.6-2.41-43.43-0.9-65.52
						c0.83-11.04,1.84-22.17,4.05-33.34c2.12-11.18,4.79-22.45,9.18-33.69c4.37-11.22,10.28-22.58,19.51-32.83
						c4.62-5.07,10.22-9.73,16.6-13.42c3.16-1.83,6.72-3.17,10.1-4.61c3.53-1.07,7.16-1.83,10.73-2.62
						c9.32-2.05,18.53,3.84,20.58,13.15c1.97,8.94-3.38,17.79-12.05,20.3l-2.21,0.63c-6.37,1.83-11.45,5.3-16.29,11.04
						c-4.83,5.66-8.88,13.38-12.26,21.83c-6.49,17.2-10.5,36.92-13.05,56.96c-1.27,10.04-2.4,20.22-3.09,30.49
						c-0.86,10.26-1.41,20.6-1.87,30.98c-0.89,20.72-1.33,41.82-1.67,62.64l0,0.25c-0.08,4.82-4.05,8.65-8.86,8.58
						C2084.86,1774.3,2081.5,1771.47,2080.59,1767.71z"/>
				</g>
			</g>
			<g>
				<g>
					<g>
						<path class="st3" d="M1382.32,2666.64c109.02,22.58,224.43,17.74,335.79-17.95c22.71-7.29,45.2-15.8,67.42-25.64
							c10.83-4.76,21.63-9.91,32.4-15.3c32.4-16.42,62.91-35.1,91.47-55.8c24.66-17.78,47.85-37.11,69.52-57.66
							c26.18-24.8,50.1-51.51,71.72-79.73c7.85-10.32,15.41-20.81,22.68-31.47c132.6-195.48,160.22-454.13,49.99-679.09
							c-162.31-331.42-562.23-464.07-893.19-296.41c-63.72,32.34-120.36,73.42-168.89,121.15c-5.72,5.52-11.31,11.24-16.78,17.06
							c-14.72,15.47-28.63,31.54-41.7,48.18c-30.23,38.49-56.05,79.97-77.19,123.49c-21.18,43.49-37.7,89.15-49.24,135.99
							c-3.68,14.89-6.87,29.9-9.53,45.06c-3.98,22.71-6.87,45.61-8.51,68.75c-8.49,115.16,12.37,233.69,66.47,344.09
							C1018.11,2501.99,1190.09,2626.83,1382.32,2666.64z"/>
					</g>
					<g>
						<path class="st1" d="M1515.83,2682.03c-44.88,0-89.75-4.55-133.86-13.68c-201.1-41.65-368.32-171.49-458.79-356.24
							c-52.36-106.84-75.4-226.13-66.64-344.98c1.6-22.51,4.47-45.71,8.53-68.93c2.63-14.93,5.84-30.12,9.56-45.17
							c11.57-46.96,28.18-92.83,49.36-136.33c21.34-43.94,47.37-85.59,77.39-123.81c13.07-16.63,27.14-32.88,41.81-48.3
							c5.73-6.11,11.39-11.87,16.83-17.11c49.52-48.7,106.48-89.56,169.31-121.45c161.14-81.63,343.32-95.28,512.97-38.45
							c168.32,56.38,304.18,175.59,382.58,335.65c106.51,217.36,87.31,478.24-50.11,680.83c-7.26,10.65-14.91,21.27-22.73,31.55
							c-21.91,28.59-46.1,55.49-71.91,79.94c-22.05,20.91-45.5,40.37-69.7,57.81c-28.82,20.89-59.68,39.71-91.7,55.95
							c-11.83,5.91-22.45,10.93-32.5,15.34c-21.82,9.67-44.57,18.32-67.59,25.71C1652.92,2671.42,1584.37,2682.03,1515.83,2682.03z
							 M1382.68,2664.93c110.89,22.96,226.7,16.77,334.91-17.9c22.91-7.35,45.53-15.96,67.25-25.58
							c9.99-4.38,20.57-9.38,32.33-15.26c31.86-16.14,62.55-34.87,91.23-55.65c24.07-17.36,47.4-36.71,69.34-57.51
							c25.68-24.33,49.75-51.08,71.54-79.52c7.78-10.23,15.39-20.79,22.62-31.4c136.72-201.56,155.83-461.1,49.86-677.34
							c-77.98-159.22-213.13-277.79-380.55-333.87c-168.77-56.53-349.99-42.95-510.29,38.26
							c-62.51,31.72-119.18,72.38-168.46,120.84c-5.41,5.21-11.03,10.93-16.73,17c-14.61,15.36-28.6,31.52-41.6,48.07
							c-29.86,38.02-55.76,79.46-76.99,123.17c-21.08,43.29-37.6,88.92-49.11,135.64c-3.7,14.98-6.9,30.09-9.51,44.94
							c-4.05,23.1-6.9,46.17-8.49,68.57c-8.72,118.24,14.21,236.91,66.29,343.2C1016.31,2494.34,1182.65,2623.51,1382.68,2664.93z"
							/>
					</g>
				</g>
				<g class="st2">
					<g>
						<path class="st1" d="M2123.31,1703.99c110.27,224.95,82.63,483.64-49.99,679.1c-7.25,10.68-14.8,21.16-22.65,31.46
							c-21.61,28.24-45.55,54.93-71.71,79.74c-21.69,20.53-44.87,39.88-69.51,57.66c-28.57,20.72-59.07,39.4-91.49,55.83
							c-10.79,5.35-21.57,10.52-32.39,15.3c-22.24,9.84-44.75,18.3-67.45,25.61c-111.36,35.69-226.76,40.56-335.81,17.96
							c-59.89-12.39-117.86-33.06-172.06-61.4c104.56,19.15,214.46,13.15,320.71-20.89c22.73-7.25,45.2-15.78,67.45-25.61
							c10.81-4.74,21.59-9.91,32.39-15.3c32.42-16.44,62.92-35.11,91.48-55.79c24.66-17.81,47.83-37.12,69.51-57.66
							c26.15-24.81,50.11-51.55,71.71-79.74c7.86-10.34,15.41-20.82,22.67-31.5c132.62-195.46,160.25-454.1,49.99-679.1
							c-64.28-131.27-165.86-231.31-285.62-293.88C1848.91,1382,2027.52,1508.36,2123.31,1703.99z"/>
					</g>
				</g>
				<g>
					<g>
						<path class="st1" d="M1515.83,2693.72c-45.67,0-91.34-4.62-136.23-13.92l0,0c-204.66-42.39-374.85-174.53-466.92-362.55
							c-53.27-108.7-76.71-230.06-67.8-350.98c1.62-22.88,4.54-46.47,8.68-70.08c2.67-15.2,5.94-30.65,9.73-45.96
							c11.77-47.75,28.65-94.4,50.2-138.65c21.69-44.67,48.18-87.04,78.7-125.91c13.3-16.92,27.61-33.45,42.54-49.14
							c5.8-6.19,11.6-12.08,17.18-17.46c50.3-49.46,108.24-91.03,172.14-123.46c163.96-83.06,349.33-96.94,521.98-39.12
							c171.31,57.38,309.59,178.7,389.37,341.6c108.35,221.11,88.83,486.48-50.94,692.54c-7.39,10.84-15.16,21.63-23.1,32.07
							c-22.31,29.12-46.92,56.47-73.17,81.35c-22.43,21.26-46.28,41.05-70.9,58.8c-29.3,21.24-60.68,40.38-93.26,56.89
							c-12.06,6.03-22.86,11.12-33.08,15.62c-22.17,9.81-45.3,18.61-68.72,26.13C1655.33,2682.92,1585.58,2693.72,1515.83,2693.72z
							 M1385.05,2653.48c108.92,22.56,222.68,16.48,328.97-17.59c22.51-7.22,44.74-15.68,66.08-25.13
							c9.85-4.33,20.25-9.23,31.84-15.03c31.25-15.84,61.41-34.24,89.59-54.67c23.67-17.07,46.6-36.08,68.16-56.53
							c25.23-23.91,48.88-50.2,70.3-78.15c7.64-10.03,15.13-20.43,22.24-30.86c134.35-198.08,153.14-453.13,49.03-665.61
							c-76.59-156.39-209.33-272.85-373.77-327.93c-165.78-55.54-343.81-42.17-501.29,37.6c-61.43,31.17-117.13,71.13-165.54,118.74
							c-5.35,5.16-10.83,10.74-16.4,16.67c-14.41,15.15-28.16,31.04-40.94,47.29c-29.34,37.36-54.8,78.09-75.67,121.05
							c-20.72,42.55-36.96,87.41-48.28,133.33c-3.64,14.73-6.78,29.58-9.35,44.17c-3.97,22.7-6.78,45.37-8.34,67.37
							c-8.57,116.2,13.96,232.8,65.13,337.22C1025.21,2485.93,1188.58,2612.79,1385.05,2653.48L1385.05,2653.48z"/>
					</g>
				</g>
				<g>
					<g>
						<path class="st1" d="M1515.82,2697.62c-45.93,0-91.86-4.65-137.01-14l0,0c-205.85-42.63-377.02-175.54-469.63-364.65
							c-53.57-109.32-77.15-231.38-68.18-352.98c1.63-23,4.57-46.72,8.72-70.46c2.69-15.29,5.98-30.83,9.78-46.23
							c11.83-48.02,28.82-94.93,50.48-139.42c21.82-44.92,48.44-87.52,79.14-126.61c13.37-17.01,27.77-33.64,42.78-49.42
							c5.83-6.22,11.68-12.16,17.3-17.58c50.55-49.72,108.83-91.52,173.08-124.13c164.9-83.53,351.33-97.51,524.98-39.33
							c172.3,57.71,311.38,179.73,391.63,343.57c108.96,222.37,89.34,489.23-51.21,696.44c-7.43,10.91-15.24,21.74-23.23,32.24
							c-22.44,29.29-47.19,56.8-73.59,81.81c-22.55,21.39-46.54,41.28-71.3,59.14c-29.46,21.34-61.02,40.6-93.77,57.2
							c-12.14,6.07-23,11.2-33.27,15.71c-22.29,9.87-45.55,18.72-69.09,26.28C1656.13,2686.76,1585.98,2697.62,1515.82,2697.62z
							 M1385.84,2649.67c108.26,22.41,221.33,16.37,326.99-17.49c22.37-7.18,44.48-15.59,65.69-24.99
							c9.8-4.3,20.14-9.18,31.67-14.95c31.04-15.74,61.04-34.03,89.05-54.34c23.54-16.97,46.33-35.87,67.76-56.2
							c25.09-23.76,48.6-49.9,69.89-77.69c7.59-9.97,15.04-20.31,22.11-30.69c133.57-196.91,152.25-450.47,48.75-661.7
							c-76.13-155.45-208.07-271.21-371.5-325.95c-164.78-55.2-341.75-41.93-498.29,37.38c-61.07,30.99-116.44,70.71-164.57,118.04
							c-5.32,5.14-10.77,10.67-16.29,16.56c-14.35,15.08-28.02,30.87-40.72,47.03c-29.17,37.14-54.48,77.64-75.22,120.35
							c-20.6,42.31-36.75,86.91-48,132.56c-3.62,14.64-6.75,29.41-9.29,43.91c-3.95,22.56-6.74,45.1-8.29,66.97
							c-8.52,115.53,13.87,231.43,64.74,335.23C1028.17,2483.13,1190.56,2609.22,1385.84,2649.67L1385.84,2649.67z"/>
					</g>
				</g>
				<g>
					<g>
						<path class="st1" d="M1552.74,2679.32c462.26-124.64,661.87-661.29,322.85-988.59c-230.65-222.67-627.97-164.3-828.85,75.29
							c-146.2,174.38-214.02,408.11-10.26,707.33c0,0,110.68,118.17,220.59,154.03c109.91,35.86,223.04,51.97,223.04,51.97
							L1552.74,2679.32z"/>
					</g>
				</g>
				<g>
					<g>
						<path class="st6" d="M1875.58,1690.75c339.02,327.28,139.4,863.94-322.83,988.58l-14.72-0.01
							c339.03-282.21,423.71-779.94,87.13-1117.36C1717.36,1580.06,1804.39,1622.04,1875.58,1690.75z"/>
					</g>
				</g>
				<g>
					<g>
						<path class="st1" d="M1515.82,2697.62c-45.93,0-91.86-4.65-137.01-14l0,0c-205.85-42.63-377.02-175.54-469.63-364.65
							c-53.57-109.32-77.15-231.38-68.18-352.98l0.13-1.78l0.49-1.71c24.46-85.62,70.89-169.62,137.99-249.66
							c120.77-144.04,309.15-236.16,503.93-246.42c175.39-9.27,336.28,47.75,453.04,160.48c127.08,122.7,194.93,276.3,196.22,444.17
							c1.37,178.43-75.59,358.18-211.15,493.17l-2.06,1.75c-29.49,21.37-61.05,40.63-93.81,57.23c-12.14,6.07-23,11.2-33.27,15.71
							c-22.29,9.87-45.55,18.72-69.09,26.28C1656.13,2686.76,1585.98,2697.62,1515.82,2697.62z M1385.84,2649.67
							c108.26,22.41,221.33,16.37,326.99-17.49c22.37-7.18,44.48-15.59,65.69-24.99c9.8-4.3,20.14-9.18,31.67-14.95
							c30.64-15.53,60.25-33.56,87.95-53.54c128.4-128.34,201.27-298.62,199.98-467.37c-1.22-158.35-65.41-303.41-185.63-419.5
							c-109.75-105.97-261.46-159.52-427.13-150.8c-185.35,9.76-364.48,97.27-479.18,234.08
							c-63.51,75.75-107.49,154.87-130.73,235.2c-8.15,114.89,14.27,230.14,64.87,333.41
							C1028.17,2483.13,1190.56,2609.22,1385.84,2649.67L1385.84,2649.67z"/>
					</g>
				</g>
				<g>
					<g>
						<path class="st1" d="M1478.89,2696.69l-1.22-0.17c-4.68-0.67-115.89-16.74-225.97-52.65
							c-112.84-36.82-223.22-153.7-227.87-158.66l-1.68-2.09c-178.21-261.71-174.41-506.72,11.3-728.23
							c107.78-128.55,275.88-210.77,449.68-219.92c156.55-8.29,300.22,42.64,404.48,143.3c151.11,145.88,208.28,344,156.86,543.55
							c-58.57,227.29-245.27,409-487.23,474.24l-2.21,0.6L1478.89,2696.69z M1552.74,2679.32h0.05H1552.74z M1050.02,2462.44
							c10.59,11.04,113.15,116.08,212.43,148.47c101.19,33.01,206.63,49.28,218.93,51.11l69.05-0.03
							c228.87-62.5,405.2-234.29,460.49-448.82c48.22-187.12-5.49-372.99-147.36-509.96c-97.27-93.9-231.73-141.35-378.58-133.62
							c-164.37,8.66-323.23,86.26-424.94,207.58C885.77,1985,882.42,2215.57,1050.02,2462.44z"/>
					</g>
				</g>
				<g>
					<g>
						<path class="st3" d="M2046.53,1443.33c104.82,78.95,145.66,208.07,91.18,288.42c-54.48,80.35-183.62,81.47-288.45,2.52
							c-0.67-0.48-1.35-1.03-1.99-1.55c-103.35-79.06-143.29-207.1-89.19-286.87c42.08-62.07,128.73-76.86,214.29-43.99
							C1997.56,1411.55,2022.69,1425.38,2046.53,1443.33z"/>
					</g>
				</g>
				<g class="st2">
					<g>
						<path class="st1" d="M2046.53,1443.33c104.82,78.95,145.66,208.07,91.18,288.42c-54.48,80.35-183.62,81.47-288.45,2.52
							c-0.67-0.48-1.35-1.03-1.99-1.55c16.75-0.73,36.66-6.5,45.72-27.82c15.85-37.34-11.85-146.66-11.85-146.66
							s39.12-68.08,91.24-156.39C1997.56,1411.55,2022.69,1425.38,2046.53,1443.33z"/>
					</g>
				</g>
				<g>
					<g>
						<path class="st1" d="M2010.02,1810.14c-56.97,0-117.68-21.72-171.2-62.03c-111.92-84.3-154.57-224.26-95.07-312
							c24.01-35.41,61.08-58.17,107.21-65.84c66.34-11.01,141.41,10.56,206.01,59.21c111.92,84.3,154.57,224.26,95.07,312
							c-24.01,35.41-61.09,58.18-107.22,65.84C2033.45,1809.21,2021.81,1810.14,2010.02,1810.14z M1885.01,1402.19
							c-9.69,0-19.17,0.75-28.37,2.28c-36.54,6.07-65.65,23.75-84.2,51.1c-49.29,72.69-10.15,191.5,87.24,264.85
							c56.21,42.34,123.3,62.03,179.46,52.71c36.54-6.07,65.66-23.74,84.21-51.1c49.29-72.69,10.15-191.5-87.24-264.85
							C1989.11,1421.76,1934.48,1402.19,1885.01,1402.19z"/>
					</g>
				</g>
				<g>
					<g>
						
							<ellipse transform="matrix(0.6754 -0.7374 0.7374 0.6754 -498.666 1977.9912)" class="st3" cx="1997.57" cy="1555.46" rx="142.8" ry="188.9"/>
					</g>
					<g>
						<path class="st1" d="M2043.89,1722.68c-64.32,0-136.17-38.38-180.29-102.1c-32.73-47.27-44.7-100.23-32.84-145.33
							c8.82-33.52,29.71-59.08,60.41-73.94c73.82-35.71,181.66,4.22,240.38,89.03l0,0c32.73,47.27,44.7,100.23,32.84,145.32
							c-8.82,33.52-29.71,59.08-60.41,73.94C2085.63,1718.48,2065.17,1722.68,2043.89,1722.68z M1951.37,1391.82
							c-20.77,0-40.72,4.1-58.62,12.75c-29.72,14.38-49.94,39.14-58.48,71.6c-11.59,44.06,0.19,95.95,32.31,142.34
							c43.45,62.73,114.1,100.57,177.2,100.58c20.78,0,40.72-4.1,58.62-12.76c29.72-14.38,49.94-39.14,58.48-71.6
							c11.59-44.06-0.19-95.94-32.31-142.34l0,0C2085.12,1429.66,2014.48,1391.82,1951.37,1391.82z"/>
					</g>
				</g>
				<g class="st2">
					<g>
						<path class="st1" d="M1980.67,1711.67c-33.01-13.79-62.27-36.79-85.08-64.64c77.97,25.02,145.97-13.19,155.43-90.31
							c6.13-49.83-13.63-104.45-48.95-147.52c4.93,1.55,9.92,3.42,14.93,5.5c84.04,35.15,144.03,130.12,133.99,212.14
							C2140.94,1708.85,2064.66,1746.79,1980.67,1711.67z"/>
					</g>
				</g>
				<g>
					<g>
						<path class="st1" d="M2056.07,1730.23c-47.43,0-100.26-19.26-146.11-54.08c-92.23-70.04-130.18-182.65-84.58-251.03
							c17.65-26.47,45.32-43.55,80.04-49.39c53.54-8.99,118.13,10.41,172.79,51.92l0,0c92.23,70.04,130.18,182.66,84.58,251.03
							c-17.65,26.47-45.32,43.55-80.04,49.39C2074.12,1729.52,2065.19,1730.23,2056.07,1730.23z M1932.49,1408.2
							c-7.31,0-14.44,0.57-21.32,1.72c-25.04,4.21-44.74,16.12-56.95,34.43c-35.62,53.43-1.21,145.02,76.71,204.19
							c47.19,35.84,101.79,52.78,146.08,45.34c25.04-4.21,44.73-16.12,56.95-34.43c35.62-53.42,1.21-145.02-76.71-204.19
							C2017.39,1424.99,1972.23,1408.2,1932.49,1408.2z"/>
					</g>
				</g>
				<g class="st7">
					<g>
						<path class="st3" d="M1245.02,1720.54c0,0-179.17,243.23-155.1,480.92c0.03,0.25,0.05,0.5,0.08,0.75
							c5.11,50.02,23.59,97.58,53.13,137.82c39.06,53.22,73.79,84.03,105.42,109.95c96.22,78.79,156.17,97.39,156.17,97.39
							c-96.01,14.08-179.18-1.79-259.99-66.61c-7.95-6.41-15.91-13.32-23.85-20.68c-1.84-1.69-3.62-3.4-5.39-5.16
							c-0.05,0.03-0.08-0.03-0.09-0.12c-15.03-16.05-33.99-37.9-53.3-64.38c-58.3-79.81-120.09-201.5-88.31-332.54
							C1033.21,1812.89,1241.51,1704.25,1245.02,1720.54z"/>
					</g>
				</g>
				<g class="st7">
					<g>
						
							<ellipse transform="matrix(0.4008 -0.9162 0.9162 0.4008 -640.3439 2548.2952)" class="st3" cx="1628" cy="1763.69" rx="90.2" ry="103.61"/>
					</g>
				</g>
				<g class="st7">
					<g>
						
							<ellipse transform="matrix(0.3139 -0.9494 0.9494 0.3139 -512.7742 2971.5779)" class="st3" cx="1799.81" cy="1840.61" rx="37.23" ry="42.8"/>
					</g>
				</g>
			</g>
			<g>
				<g>
					<path class="st0" d="M1096.58,2604.22c0,0,237.13-119.19,460.23-73.7c193.26,39.41,293.73,145.98,293.73,145.98
						s-120.06,185.73-376.98,200.75S1096.58,2604.22,1096.58,2604.22z"/>
				</g>
			</g>
			<g class="st8">
				<g>
					<path class="st3" d="M1850.54,2676.48c0,0-7.2,11.16-21.84,28.2c-39.16-32.72-130.81-97.3-271.89-126.06
						c-168.56-34.41-365.61,16.48-451.89,43.4c-5.55-11.16-8.33-17.79-8.33-17.79s237.1-119.19,460.22-73.71
						C1750.05,2569.91,1850.54,2676.48,1850.54,2676.48z"/>
				</g>
			</g>
			<g>
				<g>
					<path class="st1" d="M1850.54,2693.83c-4.61,0-9.2-1.83-12.61-5.44c-0.96-1.01-99.56-103.15-284.58-140.89
						c-214.74-43.78-446.66,71.04-448.97,72.21c-8.56,4.3-18.97,0.85-23.27-7.71c-4.3-8.55-0.85-18.97,7.7-23.27
						c9.9-4.98,245.11-121.34,471.47-75.2c196.39,40.05,298.63,146.56,302.88,151.07c6.57,6.96,6.25,17.93-0.72,24.5
						C1859.08,2692.27,1854.8,2693.83,1850.54,2693.83z"/>
				</g>
			</g>
			<g>
				<g>
					<path class="st3" d="M2289.53,2553.78l429.8,67.4c0,0-14.4,194.43-47.72,201.93c-31.04,6.99-350.47-45.36-375.49-67.14
						C2261.75,2726.04,2289.53,2553.78,2289.53,2553.78z"/>
				</g>
			</g>
			<g>
				<g>
					<path class="st3" d="M2213.49,2613.89l505.84,77.88c0,0-8.19,175.45-46.17,187.71c-136.08,43.92-407.59-32.89-435.21-59.31
						C2161.7,2747.25,2213.49,2613.89,2213.49,2613.89z"/>
				</g>
			</g>
			<g class="st2">
				<g>
					<path class="st1" d="M2213.49,2613.89l505.84,77.88c0,0-8.19,175.45-46.17,187.71c-136.08,43.92-407.59-32.89-435.21-59.31
						C2161.7,2747.25,2213.49,2613.89,2213.49,2613.89z"/>
				</g>
			</g>
			<g>
				<g>
					<path class="st1" d="M2571.87,2909.73c-142.25,0-319.58-51.86-345.9-77.02c-83.66-80.01-30.92-219.2-28.64-225.09
						c2.94-7.58,10.78-12.08,18.79-10.86l505.84,77.88c8.76,1.35,15.09,9.09,14.68,17.94c-0.09,1.83-2.17,45.27-9.02,91.02
						c-13.45,89.89-33.33,107.28-49.14,112.38C2648.35,2905.71,2611.46,2909.73,2571.87,2909.73z M2225.38,2633.26
						c-9.85,33.44-29.32,122.87,24.55,174.38c8.96,8.42,74.76,33.56,168.57,51.6c61.06,11.74,174.66,27.84,249.33,3.74
						c13.27-7.29,28.26-78.51,33.31-156.48L2225.38,2633.26z"/>
				</g>
			</g>
			<g>
				<g>
					<path class="st3" d="M2273.51,2555.45l429.8,67.4c0,0-14.4,194.43-47.72,201.93c-31.04,6.99-350.47-45.36-375.49-67.14
						C2245.73,2727.71,2273.51,2555.45,2273.51,2555.45z"/>
				</g>
			</g>
			<g>
				<g>
					<path class="st1" d="M2647.37,2840.24c-68.01,0-349.46-47.22-377.11-71.29c-37.73-32.85-18.39-173.55-11.56-215.89
						c1.32-8.15,8.95-13.7,17.13-12.43l429.8,67.4c7.71,1.21,13.21,8.14,12.63,15.93c-0.15,2.01-3.74,49.79-11.5,99.37
						c-15.04,95.94-31.9,112.5-47.88,116.09C2656.39,2839.97,2652.48,2840.24,2647.37,2840.24z M2651.01,2810.64L2651.01,2810.64
						L2651.01,2810.64z M2286.08,2572.6c-10.76,75.5-12.39,159.56,3.88,173.72c26.66,19.32,328.43,68.64,361.53,63.96
						c12.61-10.5,28.38-88.22,35.77-174.77L2286.08,2572.6z"/>
				</g>
			</g>
			<g>
				<g>
					<path class="st3" d="M2655.99,2335.07c-6.4,173.98-40.34,328.42-107.89,341.41c-91.27,17.56-127.75-80.12-127.75-80.12
						s45.43-148.98,34.36-394.6c-4.38-98.24-17.84-211.96-46.84-337.83c0,0,64.3-97.3,157.55-33.14
						C2629.91,1875.18,2663.99,2120.05,2655.99,2335.07z"/>
				</g>
			</g>
			<g class="st2">
				<g>
					<path class="st1" d="M2655.99,2335.07c-6.4,173.98-40.34,328.42-107.89,341.41c-91.27,17.56-127.75-80.12-127.75-80.12
						s45.43-148.98,34.36-394.6c36.86,46.55,18.41,266.85,59.17,260.73c34.88-5.22,43.78-212.39,58.13-195.49
						c14.12,16.62-9.13,202.78,32.57,211.96C2622.38,2482.88,2642.2,2411.99,2655.99,2335.07z"/>
				</g>
			</g>
			<g>
				<g>
					<path class="st1" d="M2526.9,2695.91c-68.8,0-109.87-58.88-122.8-93.49l-2.05-5.5l1.71-5.61c0.93-3.06,86.3-293.5-12.77-723.49
						l-1.67-7.24l4.1-6.21c1.35-2.05,33.76-50.3,87.79-60.82c31.39-6.11,63.03,1.6,94.04,22.93
						c60.11,41.35,83.47,203.5,92.05,296.47c13.54,146.68,7.68,305.93-15.27,415.6c-21.07,100.67-54.93,156.17-100.65,164.96
						C2542.86,2695.16,2534.7,2695.91,2526.9,2695.91z M2438.7,2595.25c8.26,18.01,40.57,76.82,106.14,64.23
						c29.38-5.65,56.09-55.95,73.26-138.01c22.29-106.53,27.92-261.84,14.68-405.32c-13.25-143.58-42.82-247.46-77.18-271.09
						c-23.04-15.85-45.84-21.73-67.76-17.47c-30.09,5.86-52.37,29.47-61.25,40.35C2518.44,2273.91,2451.18,2550.01,2438.7,2595.25z
						 M2420.34,2596.36h0.05H2420.34z"/>
				</g>
			</g>
			<g>
				<g>
					<path class="st3" d="M3255.4,2980.14c-70.37,3.06-151.01-37.19-189.84-59.41c-8.94-5.08-15.63-9.27-19.53-11.72
						c-153.12,113.58-348.99,88.54-430.38-81.72c-73.95-154.63-25.28-323.34,18.55-423.46c24.01-54.93,46.55-89.25,46.55-89.25
						l245.15,273.3c0,0,78.52-79.79,200.34-61.33c94.43,14.22,247.17,168.09,268.12,231.22
						C3433.1,2874.18,3339.43,2976.61,3255.4,2980.14z"/>
				</g>
			</g>
			<g>
				<g>
					<path class="st1" d="M2921.8,2583.85c29.22-39.4,74.57-64.26,123.06-74.02c6.09-1.07,12.18-2.35,18.34-2.96l18.54-1.59
						c12.39,0.09,24.84-0.1,37.09,1.75l9.22,1.05c3.15,0.45,6.51,1.23,9.74,1.85c6.39,1.55,12.63,3.35,18.56,5.55
						c11.91,4.34,23.2,9.49,33.87,15.34c21.46,11.52,41.28,24.89,60.14,39.26c18.94,14.27,36.95,29.51,54.17,45.6
						c17.26,16.04,33.7,32.94,49.32,50.71c15.54,17.89,30.39,36.43,43.25,57.59c3.19,5.33,6.28,10.8,9.03,16.83
						c1.43,2.91,2.71,6.1,3.91,9.4c1.31,3.33,1.93,6.11,2.92,9.2c3.49,12.09,6.08,24.55,7.03,37.22
						c2.15,25.29-0.94,51.15-9.33,75.09c-16.6,47.95-51.78,88.57-97.85,110.94c-11.55,5.52-23.85,9.82-36.74,12.38
						c-3.2,0.7-6.51,1.05-9.76,1.57c-3.28,0.41-6.61,0.58-9.92,0.85c-6.31,0.02-12.6,0.06-18.87-0.08
						c-24.96-1.28-48.9-6.48-71.88-13.48c-23-7.05-45.1-16.02-66.52-26.15c-21.45-10.16-42.14-21.39-62.38-34.09l19.59-0.73
						c-36.5,26.98-77.68,48.22-121.87,60.64c-44.07,12.4-91.31,15.99-137.04,7.39c-45.68-8.34-89.4-28.94-124.66-59.39
						c-35.28-30.42-62.07-69.86-79.4-111.9l-3.42-7.82c-1.06-2.64-1.97-5.33-2.97-8l-5.83-16.04l-4.84-16.35l-2.38-8.19l-1.91-8.3
						c-5.58-22.05-8.49-44.61-10.45-67.12c-1.86-22.56-1.56-45.16-0.37-67.62c1.39-22.47,4.39-44.74,8.31-66.79
						c3.95-22.05,9.44-43.74,15.5-65.2c6.14-21.44,12.59-42.81,20.5-63.66c7.88-20.85,17.48-41.03,28.63-60.32
						c11.48-19.14,24.48-37.38,41.78-52.86c2.46-2.2,6.24-1.99,8.44,0.47c1.41,1.57,1.83,3.69,1.3,5.59l-0.08,0.29
						c-12.18,42.51-29.85,80.83-45.52,120.38c-8.04,19.64-15.67,39.5-21.65,59.86c-5.97,20.34-11.03,40.94-14.79,61.73
						c-3.69,20.79-6.51,41.71-7.81,62.69c-1.09,20.97-1.39,41.98,0.34,62.82c1.83,20.79,4.48,41.56,9.61,61.72l1.74,7.6l2.18,7.48
						l4.41,14.95l5.33,14.63c0.9,2.43,1.73,4.9,2.7,7.3l3.13,7.13c15.79,38.34,39.46,72.73,70.15,99.27
						c30.69,26.46,68.39,44.24,108.32,51.56c39.95,7.53,81.81,4.46,121.39-6.68c39.67-11.14,77.13-30.38,110.58-55.1l9.53-7.04
						l10.07,6.32c18.74,11.76,38.55,22.52,58.68,32.05c20.16,9.54,40.82,17.9,61.82,24.33c20.98,6.41,42.38,10.93,63.43,12
						l15.64,0.07c2.42-0.23,4.84-0.33,7.26-0.63c2.42-0.42,4.85-0.63,7.27-1.18c9.69-1.92,19.28-5.23,28.47-9.63
						c36.89-17.74,66.71-51.91,80.02-90.94c6.84-19.51,9.3-40.34,7.57-60.87c-0.75-10.29-2.89-20.47-5.77-30.46
						c-0.77-2.38-1.43-5.23-2.28-7.24c-0.77-2.1-1.6-4.26-2.73-6.52c-2.01-4.44-4.58-9.03-7.29-13.55
						c-11.03-18.2-24.98-35.8-39.6-52.59c-14.75-16.78-30.43-32.91-46.88-48.19c-32.77-30.51-68.54-58.65-107.15-78.65
						c-9.64-4.96-19.49-9.06-29.28-12.33c-4.9-1.69-9.78-2.89-14.58-3.96c-2.42-0.4-4.68-0.93-7.23-1.26l-7.94-0.75
						c-21.12-2.43-42.46-2.03-63.44,1.38c-41.92,6.75-82.67,23.62-121.23,46.48l-0.6,0.36c-2.76,1.64-6.33,0.73-7.96-2.04
						C2920.24,2588.2,2920.45,2585.67,2921.8,2583.85z"/>
				</g>
			</g>
			<g class="st2">
				<g>
					<path class="st1" d="M3046.02,2909.02c0.88-0.67,17.08,0.02,17.96-0.65l0.84,1.9c0,0,93.73,74.05,190.63,69.91
						c83.98-3.59,177.62-105.96,138.93-222.4c-3.12-9.45-9.2-20.91-17.6-33.66c5.67,48.25-11.39,150.66-114.57,162.75
						c-124.1,14.55-103.7-141.28-103.7-141.28C3148.71,2794.08,3103.86,2856.84,3046.02,2909.02z"/>
				</g>
			</g>
			<g class="st2">
				<g>
					<path class="st1" d="M3158.48,2753.35l-92.92,167.39c-8.94-5.08-15.63-9.27-19.53-11.72
						c-153.12,113.58-348.99,88.54-430.38-81.72c-73.95-154.63-25.28-323.34,18.55-423.46c-10.17,94.33-22.08,342.21,118.9,431.37
						C2942.75,2955.15,3158.48,2753.35,3158.48,2753.35z"/>
				</g>
			</g>
			<g>
				<g>
					<path class="st1" d="M3036.9,2897.11l16.87-16.53l8.57-8.48c2.83-2.85,5.58-5.8,8.49-8.58c11.19-11.58,22.32-23.29,32.69-35.73
						c10.51-12.35,20.04-25.5,28.93-39.23c9.2-13.64,16.44-28.36,23.98-43.53l0.06-0.11c0.53-1.07,1.83-1.5,2.9-0.97
						c0.84,0.42,1.29,1.32,1.18,2.2c-2.09,16.96-5.85,34.11-12.1,50.34c-6.15,16.26-13.69,32.16-22.91,46.98
						c-9.12,14.89-19.23,29.27-30.93,42.26c-5.85,6.49-11.92,12.79-18.45,18.64c-6.55,5.97-13.1,11.32-21.05,16.58
						c-6.92,4.58-16.24,2.68-20.82-4.24c-4.04-6.11-3.04-14.08,2.01-19.02L3036.9,2897.11z"/>
				</g>
			</g>
			<g>
				<g>
					<path class="st1" d="M2734.46,2865.05c-87.97,0-139.95-54.84-142.67-57.77c-5.63-6.08-5.25-15.58,0.83-21.2
						c6.07-5.61,15.54-5.25,21.16,0.8l0,0c2.92,3.11,72.75,75.8,187.72,36.43c106.39-36.44,158.53-214.27,157.28-269.18
						c-0.19-8.28,6.37-15.15,14.65-15.34c8.35-0.21,15.15,6.37,15.34,14.65c1.56,68.37-58.73,257.55-177.55,298.24
						C2783.31,2861.25,2757.64,2865.05,2734.46,2865.05z"/>
				</g>
			</g>
			<g class="st2">
				<g>
					<path class="st1" d="M2159.43,2808.75c-15.2,50.37-136.13,70.84-136.13,70.84s-45.94,45.1-153.88,87.37
						c-0.57,0.24-1.18,0.47-1.79,0.66c-88.21,34.55-460.5,172.61-852.33-33.09c-97.86-51.4-169.08-165.27-169.08-165.27
						s-123.7-16.48-123.7-86.57c0-10.87,1.74-20.29,5.04-28.38c29.89,111.18,181.23,38.03,181.23,38.03s71.55,132.74,149.74,185.46
						c178.66,120.53,459.79,101.38,643.09,67.33c18.54-3.44,18.92-30.1,0.45-33.9c-0.24-0.05-0.49-0.1-0.73-0.15
						c-249.86-50.98-283.94-310.01-131.99-362.78c197.65-68.63,292.69,33.8,349.27,46.65c65.99,14.92,80.54-36.67,75.69-71.27
						l12.24,2.07L2041,2688.2c0,0,80.3,26.45,109.96,71.36c2.12,3.2,3.95,6.45,5.51,9.79c0.33,0.71,0.61,1.36,0.89,2.02
						c0.85,2.07,1.6,4.14,2.21,6.21c0.09,0.24,0.19,0.47,0.19,0.66c0.24,0.75,0.42,1.55,0.61,2.31c0.14,0.47,0.24,0.89,0.28,1.32
						c0.14,0.71,0.28,1.41,0.42,2.12c0.14,0.75,0.23,1.46,0.33,2.21c0.05,0.52,0.14,1.08,0.19,1.65
						C2162.25,2794.59,2161.59,2801.51,2159.43,2808.75z"/>
				</g>
			</g>
			<g class="st2">
				<g>
					<path class="st1" d="M2150.96,2759.56c2.12,3.15,4,6.45,5.51,9.79C2154.91,2766.01,2153.07,2762.77,2150.96,2759.56z"/>
				</g>
			</g>
			<g>
				<g>
					<path class="st3" d="M2036.66,2462.48c4.87,34.63-9.68,86.22-75.66,71.26c-56.58-12.83-151.62-115.25-349.28-46.63
						c-151.94,52.75-117.86,311.78,131.97,362.79c209.98,42.87,347.72,210.86,545,21.22c121.29-116.59,46.12-358.05,46.12-358.05"/>
				</g>
			</g>
			<g class="st2">
				<g>
					<path class="st1" d="M2288.68,2871.13c-197.28,189.65-335.03,21.64-545.02-21.24c-203.16-41.48-263.64-220.56-197.38-314.34
						c-5.93,92.73,46.24,203.77,176.68,222.6c263.55,38.06,368.44,170.41,565.72-19.24c38.09-36.64,56.84-85.6,64.56-135.51
						C2363.52,2684.22,2362.12,2800.53,2288.68,2871.13z"/>
				</g>
			</g>
			<g>
				<g>
					<path class="st1" d="M2042.38,2461.67c3.85,10.58,5.31,22.13,4.19,33.97c-1.07,11.79-5.13,24.25-13.53,34.99
						c-4.16,5.36-9.53,9.93-15.44,13.61c-5.97,3.47-12.42,6.13-18.91,7.51c-3.29,1-6.44,1.17-9.66,1.56l-4.83,0.46
						c-1.6,0.11-3.11-0.03-4.67-0.04c-3.09-0.1-6.23-0.15-9.28-0.37l-8.87-1.28l-4.44-0.68l-4.51-1.22l-8.98-2.66
						c-5.21-2.15-10.77-4.22-15.68-6.51c-9.89-4.61-19.12-9.46-28.23-14.14c-18.06-9.58-35.68-18.34-53.95-25.55
						c-18.14-7.56-37.05-12.21-56.08-16.11c-19.19-2.91-38.62-4.73-58.13-3.8c-38.98,1.15-78.09,9.89-115.43,22.67
						c-17.15,6.17-32.58,15.95-44.89,28.8c-12.29,12.83-21.68,28.59-26.87,46.02c-10.75,34.86-6.9,74.29,7.61,109.11
						c14.45,35.08,39.32,65.72,69.59,89.47c15.29,11.76,32.01,21.71,49.48,30.22c17.5,8.54,36.14,14.73,54.96,20.19l14.36,3.38
						l7.2,1.7l7.79,1.75c10.43,2.18,20.68,4.95,30.94,7.67c20.39,5.79,40.4,12.48,60.07,19.76c39.31,14.59,77.16,31.52,114.94,46.54
						c37.72,14.88,75.76,27.91,114.15,32.05c19.15,2.08,38.3,1.83,57.01-1.16c18.74-2.87,36.96-8.82,54.36-16.89
						c17.34-8.19,34.2-17.97,49.8-29.96c1.97-1.46,4-2.83,5.93-4.35l5.72-4.69l11.43-9.41l10.99-10.05l5.5-5.02
						c1.77-1.68,3.27-3.39,4.92-5.07c26.18-26.86,42.67-62.54,51.14-100.41c4.29-18.97,6.76-38.53,7.76-58.27
						c1.05-19.76-0.12-39.67-1.92-59.5l-5.87-59.74c-1.86-20.03-3.34-40.36-2.77-61.43l0.01-0.28c0.09-3.32,2.85-5.94,6.17-5.85
						c2.02,0.06,3.81,1.13,4.86,2.7c12.21,18.47,19.48,38.49,24.91,59c5.06,20.58,8.38,41.62,9.6,62.87
						c1.17,21.27,0.78,42.63-0.33,64.04c-1.16,21.4-3.79,42.88-8.6,64.12c-4.81,21.21-11.8,42.2-21.68,62.1
						c-9.85,19.88-22.69,38.61-38.36,54.76c-1.95,1.99-3.89,4.14-5.85,6l-5.91,5.41l-11.82,10.8l-12.43,10.24l-6.24,5.1
						c-2.12,1.66-4.35,3.2-6.53,4.8c-17.11,13.11-36.07,24.24-55.95,33.6c-19.94,9.25-41.3,16.23-63.33,19.62
						c-21.99,3.52-44.41,3.77-66.21,1.4c-43.77-4.79-84.45-19.05-123.24-34.29c-38.81-15.44-76.25-32.19-114.24-46.27
						c-18.98-7.02-38.08-13.4-57.34-18.87c-9.66-2.55-19.31-5.17-29.06-7.2l-15.14-3.48l-15.72-3.72
						c-20.74-5.97-41.33-12.84-60.93-22.39c-19.56-9.5-38.41-20.73-55.81-34.12c-34.49-27.02-63.35-62.33-80.38-103.63
						c-17-40.99-22.25-88.37-8.65-132.67c6.61-22.07,18.74-42.81,34.94-59.69c16.18-16.94,36.53-29.67,58.14-37.42
						c40.56-13.9,82.72-23.38,126.2-24.71c21.67-1.02,43.47,1.04,65,4.22c21.39,3.91,42.68,9.11,62.87,16.83
						c20.3,7.32,39.97,16.3,58.41,25.83c9.21,4.74,18.25,9.44,26.95,13.73c4.37,2.21,8.45,3.8,12.68,5.77l5.79,1.88l2.88,1.04
						l3.17,0.65l6.36,1.36l6.14,0.6c1.01,0.07,2.08,0.29,3.04,0.26l2.88-0.12c1.91-0.06,3.95,0.12,5.64-0.34
						c7.32-0.85,13.45-3.29,18.9-7.89c5.51-4.54,10.02-11.57,13.37-19.82c3.3-8.29,5.34-17.65,6.48-27.48l0.03-0.27
						c0.37-3.24,3.3-5.56,6.54-5.18C2039.8,2458.09,2041.64,2459.64,2042.38,2461.67z"/>
				</g>
			</g>
			<g>
				<g>
					<path class="st1" d="M2074.16,2975.45c-3.91,0-7.84-1.31-11.08-4.01c-7.36-6.12-8.36-17.06-2.23-24.41
						c140.54-168.88-94.57-396.14-96.96-398.41c-6.93-6.6-7.21-17.57-0.62-24.5c6.59-6.94,17.55-7.22,24.5-0.63
						c2.65,2.51,65.34,62.54,109.84,146.66c60.71,114.76,57.21,218.17-10.11,299.07
						C2084.06,2973.32,2079.13,2975.45,2074.16,2975.45z"/>
				</g>
			</g>
		</g>
		<g>
			<g>
				<g>
					<path class="st3" d="M814.22,1435.21c-0.81,0-1.63-0.08-2.46-0.23l-69.62-13.55c-5.07-0.99-9.04-4.92-10.09-9.98
						c-1.04-5.06,1.06-10.24,5.32-13.15l57.99-39.55l-39.54-7.69c-6.93-1.35-11.46-8.07-10.11-15c1.35-6.94,8.07-11.42,15-10.12
						l69.62,13.54c5.07,0.99,9.04,4.92,10.09,9.98c1.04,5.06-1.06,10.24-5.32,13.15l-57.99,39.56l39.54,7.69
						c6.93,1.35,11.46,8.07,10.11,15C825.57,1430.98,820.22,1435.21,814.22,1435.21z"/>
				</g>
			</g>
			<g>
				<g>
					<path class="st3" d="M694.83,1277.99c-0.81,0-1.63-0.07-2.46-0.23l-116.26-22.62c-5.07-0.99-9.04-4.92-10.09-9.98
						c-1.04-5.06,1.06-10.24,5.32-13.15l113.8-77.61l-86.17-16.77c-6.93-1.35-11.46-8.07-10.11-15c1.35-6.94,8.06-11.43,15-10.12
						l116.26,22.62c5.07,0.99,9.04,4.92,10.09,9.98c1.04,5.06-1.06,10.24-5.32,13.15l-113.79,77.61l86.17,16.76
						c6.93,1.35,11.46,8.07,10.11,15C706.18,1273.75,700.83,1277.99,694.83,1277.99z"/>
				</g>
			</g>
			<g>
				<g>
					<path class="st3" d="M970.92,1173.25c-0.86,0-1.74-0.08-2.62-0.25l-163.23-31.76c-5.41-1.05-9.66-5.25-10.77-10.65
						c-1.11-5.4,1.13-10.93,5.68-14.04l168.29-114.77l-131.1-25.51c-7.4-1.45-12.24-8.61-10.8-16.02c1.44-7.4,8.61-12.24,16.01-10.8
						l163.22,31.76c5.41,1.05,9.66,5.25,10.77,10.65c1.11,5.4-1.13,10.93-5.68,14.04l-168.29,114.77l131.1,25.51
						c7.4,1.45,12.24,8.61,10.8,16.02C983.05,1168.72,977.33,1173.24,970.92,1173.25z"/>
				</g>
			</g>
		</g>
	</g>
</g>
</svg>
