<?xml version="1.0" encoding="utf-8"?>
<!-- Generator: Adobe Illustrator 24.0.1, SVG Export Plug-In . SVG Version: 6.00 Build 0)  -->
<svg version="1.1" id="Layer_1" xmlns="http://www.w3.org/2000/svg" xmlns:xlink="http://www.w3.org/1999/xlink" x="0px" y="0px"
	 viewBox="0 0 4000 4000" style="enable-background:new 0 0 4000 4000;" xml:space="preserve">
<style type="text/css">
	.st0{display:none;}
	.st1{display:inline;fill:#DC9AFE;}
	.st2{fill:#FFFFFF;}
	.st3{opacity:0.35;}
	.st4{fill:#371A45;}
	.st5{fill:none;stroke:#293856;stroke-width:32.8559;stroke-linecap:round;stroke-miterlimit:10;}
	.st6{fill:#32B1D1;}
	.st7{fill:#22A7F0;}
	.st8{fill:#220F2D;}
	.st9{opacity:0.7;}
	.st10{fill:#E2E2E2;}
	.st11{fill:#A0A0A0;}
	.st12{fill:#EC0411;}
</style>
<g>
	<g class="st0">
		<rect class="st1" width="4000" height="4000"/>
	</g>
	<g>
		<g>
			<path class="st2" d="M1931.77,1833.89c0,0,86.8,212.77,302.5,237.7c0,0,7.12,227.8-163.81,262.25
				c-91.7,18.48-198.72,25.95-256.05-55.96C1757.09,2195.98,1931.77,1833.89,1931.77,1833.89z"/>
		</g>
		<g class="st3">
			<path class="st4" d="M2070.46,2333.85c-91.71,18.48-198.74,25.96-256.03-55.98c-16.84-24.07-13.68-72.32-0.74-128.51
				c0.25,0.37,0.49,0.74,0.74,1.11c57.29,81.89,164.32,74.46,256.03,55.98c82.55-16.63,123.58-78.36,143.91-137.75
				c6.49,1.11,13.14,2.09,19.92,2.88C2234.29,2071.57,2241.4,2299.39,2070.46,2333.85z"/>
		</g>
		<g>
			<path class="st4" d="M1968.05,2362.11c-62.92,0-126.37-16.62-167.09-74.81c-27.4-39.15-15.89-126.73,35.2-267.73
				c36.37-100.39,80.38-191.91,80.83-192.82l16.05-33.27l13.95,34.2c1.09,2.64,86.31,204.15,289.18,227.6l14.09,1.63l0.44,14.18
				c0.08,2.44,1.64,60.5-18.58,123.72c-27.55,86.16-82.32,139.81-158.4,155.14C2041.83,2356.37,2005.03,2362.11,1968.05,2362.11z
				 M1932.1,1871.8c-63.74,138.85-139.25,346.62-104.22,396.67c53.01,75.74,155.76,66.12,239.35,49.27
				c131.89-26.58,148.44-183.93,150.41-231.83C2053.6,2060.23,1965.32,1932.42,1932.1,1871.8z"/>
		</g>
		<g>
			<path class="st2" d="M1554.16,3278.21c71.03,164.57,375.12,137.49,451.84,69.37c78.63-69.85-63.51-157-63.51-157
				c63.42-107.71,65.29-313.31,58.64-445.37c-3.61-72.37-9.82-122.66-9.82-122.66l-448.24-242.59
				c0.3,91.24,15.56,169.26,29.25,231.77c29.08,132.88,27.21,235.12,15.43,318.62C1565.89,3085.26,1509.99,3175.89,1554.16,3278.21z
				"/>
		</g>
		<g class="st3">
			<path class="st4" d="M1554.16,3278.21c71.03,164.57,375.12,137.49,451.84,69.37c24.78-21.99,27.65-45.73,19.91-67.9
				c-103.67,61.12-367.86,107.36-419.07-48.2c-25.04-76.17,23.97-128.8,50.69-231.61c11.27-43.36,45.59-77.02,88.97-88.22
				c92.03-23.76,205.15-73.37,251.85-160.83c0.96-1.78,1.91-3.65,2.78-5.61c-3.61-72.37-9.82-122.66-9.82-122.66l-401.25-217.16
				l-46.99-25.43c0.3,91.24,15.56,169.26,29.25,231.77c2.13,9.74,4.09,19.34,5.91,28.73c1.83,9.43,3.48,18.69,4.96,27.82
				c0.74,4.56,1.48,9.04,2.13,13.52c2.04,13.43,3.74,26.51,5.13,39.29c0.48,4.26,0.91,8.48,1.3,12.65c0.78,8,1.43,15.91,1.96,23.69
				c1.7,23.99,2.26,46.77,2.04,68.42c-0.04,2.35-0.09,4.69-0.13,7.04c-0.09,4.74-0.22,9.43-0.39,14.08
				c-0.26,6.35-0.57,12.56-0.91,18.69c-0.3,4.48-0.61,8.91-0.91,13.26c-0.26,2.91-0.48,5.78-0.74,8.61
				c-0.22,2.52-0.43,4.96-0.7,7.43c-0.22,2.3-0.43,4.61-0.7,6.87c-1.04,9.78-2.22,19.26-3.52,28.51
				C1565.89,3085.26,1509.99,3175.89,1554.16,3278.21z"/>
		</g>
		<g>
			<path class="st4" d="M1803.95,3417.31c-32.02,0-64.68-3.1-96.09-10.08c-83.88-18.63-142.25-61-168.8-122.53
				c-31.94-74-15.59-140.41,5.11-224.48c25.82-104.88,57.96-235.41,12.09-444.97c-15.21-69.48-29.32-146.06-29.61-235.26
				c-0.03-9.07,7.3-16.45,16.37-16.48c0.02,0,0.04,0,0.05,0c9.05,0,16.4,7.32,16.43,16.37c0.28,86.12,14.03,160.64,28.85,228.34
				c47.5,217.03,14.35,351.67-12.29,459.85c-19.98,81.13-34.41,139.74-6.85,203.6c28.05,65,94.75,92.14,145.76,103.47
				c107.7,23.93,236.7-1.32,280.09-39.87c13.34-11.85,19.24-24.28,18.03-38.02c-3.34-38.1-58.33-79.83-79.23-92.69l-13.72-8.44
				l8.16-13.89c94.24-160.06,47.15-553.73,46.67-557.69c-1.11-9.01,5.29-17.2,14.3-18.31c9.02-1.14,17.2,5.29,18.31,14.3
				c1.99,16.18,46.52,388.58-43.46,564.7c25.47,17.94,77.39,60.2,81.7,109.1c1.49,16.84-2.33,41.87-28.94,65.51
				C1980.36,3392.31,1894.79,3417.3,1803.95,3417.31z"/>
		</g>
		<g>
			<path class="st4" d="M1677.8,3062.77c-70.52,0-122.69-5.6-127.69-6.16c-6.76-0.75-11.63-6.85-10.88-13.61
				c0.75-6.76,6.88-11.62,13.61-10.88c2.86,0.32,288.37,30.89,437.94-53.19c5.94-3.34,13.45-1.23,16.78,4.7
				c3.33,5.93,1.23,13.44-4.7,16.78C1911.5,3051.75,1776.64,3062.77,1677.8,3062.77z"/>
		</g>
		<g>
			<path class="st4" d="M1720.44,3194.55c6.93-7.7,15.26-13.38,23.93-18.31c4.36-2.43,8.87-4.52,13.44-6.53
				c4.63-1.8,9.31-3.52,14.05-5.03c18.98-6.04,38.8-9.98,58.95-11.34c20.12-1.6,40.66-0.68,60.67,3.32
				c20.21,3.27,39.51,10.57,57.99,19.06c8.23,3.78,11.85,13.52,8.06,21.76c-3.65,7.95-12.86,11.59-20.9,8.43l-1.16-0.46
				c-16.56-6.56-33.1-13.17-50.57-16.71c-8.61-2.34-17.49-3.2-26.31-4.74c-4.44-0.48-8.92-0.7-13.39-1.07
				c-4.47-0.52-8.96-0.57-13.47-0.59c-18-0.25-36.27,1.03-54.29,4.48c-18.06,3.47-35.94,7.42-55.67,10.1l-0.09,0.01
				c-0.79,0.11-1.51-0.44-1.62-1.23C1720.02,3195.27,1720.17,3194.85,1720.44,3194.55z"/>
		</g>
		<g>
			<path class="st2" d="M932.53,2635.46c88.42,115.28,318.66,75.32,318.66,75.32l2.01-779.01l0.41-157.34
				c0,0-131.34,3.49-231.14,44.73c-48.09,19.84-88.83,48.46-104.07,89.66C865.34,2051.94,859.88,2540.71,932.53,2635.46z"/>
		</g>
		<g class="st3">
			<path class="st4" d="M878.67,2233.83c-3.09,170.82,13.07,348.4,53.86,401.61c88.41,115.29,318.68,75.34,318.68,75.34l2.38-936.32
				c0,0-2.45,0.05-6.93,0.3l-1.84,730.04c0,0-230.27,39.95-318.68-75.34C902.19,2398.22,886.73,2324.18,878.67,2233.83z"/>
		</g>
		<g>
			<path class="st4" d="M1160.66,2734.08c-77.86,0-184.7-15.03-241.15-88.63c-50.17-65.41-56.99-270.09-57.6-355.05
				c-1.15-162.21,15.36-317.85,41.09-387.28c50.24-135.56,337.94-144.79,350.16-145.11c9.18-0.06,16.62,6.92,16.86,15.98
				c0.24,9.07-6.91,16.62-15.98,16.86c-2.77,0.08-277.68,8.85-320.23,123.68c-53.85,145.31-55.42,623.32,11.77,710.92
				c81.29,105.98,300.63,69.53,302.83,69.15c8.93-1.55,17.44,4.45,18.98,13.39c1.55,8.94-4.44,17.44-13.38,18.99
				C1250.14,2727.64,1211.6,2734.08,1160.66,2734.08z"/>
		</g>
		<g>
			<path class="st2" d="M895.57,2305.65l156.92,11.78c14.01,1.05,25.55,11.4,28.05,25.22c9.16,50.62,24.24,168.64-25,207.61
				c-40.87,32.35-107.23,28.55-146.11-4.36c-43.5-36.81-47.74-152.56-47.04-209.86C862.61,2318.23,877.8,2304.32,895.57,2305.65z"/>
		</g>
		<g class="st3">
			<path class="st4" d="M1080.53,2342.67c9.18,50.6,24.24,168.63-25,207.58c-40.88,32.36-107.22,28.56-146.12-4.36
				c-26.73-22.66-38.64-75.16-43.67-125.55c7.07,25.17,18.17,45.61,31.97,59.03c79.09,76.84,138.13-13.76,138.13-13.76
				s10.25,22,18.41,23.25c34.15,5.21,27.08-101.69,22.15-156.91C1078.4,2335.14,1079.83,2338.74,1080.53,2342.67z"/>
		</g>
		<g>
			<path class="st4" d="M986.4,2589.12c-31.57,0-63.52-10.3-87.59-30.67c-45.47-38.48-53.84-142.29-52.85-222.6
				c0.16-13,5.75-25.5,15.33-34.28c9.59-8.78,22.54-13.27,35.51-12.29h0l156.92,11.78c21.48,1.61,39.16,17.52,42.99,38.68
				c11.76,64.98,23.36,180.42-30.97,223.42C1043.78,2580.52,1015.24,2589.12,986.4,2589.12z M893.22,2321.99
				c-3.62,0-7.04,1.33-9.73,3.79c-2.96,2.72-4.62,6.43-4.68,10.46c-1.23,100.54,14.18,174.23,41.23,197.12
				c34.15,28.91,91.54,30.74,125.31,4.02c29.43-23.29,36.54-95,19.03-191.81c-1.16-6.43-6.56-11.27-13.12-11.76l-156.92-11.78h0
				C893.96,2322,893.59,2321.99,893.22,2321.99z"/>
		</g>
		<g>
			<path class="st4" d="M1029.96,2373.49c3.3,19.08,6.52,37.76,7.92,57.12c1.5,19.31,1.01,39.05-2.44,59.07
				c-3.51,19.87-10.56,40.53-24.38,58.07c-6.92,8.63-15.36,16.36-24.91,22.14c-9.48,5.9-19.86,9.95-30.3,12.47
				c-8.06,1.94-16.16-3.01-18.1-11.06c-1.84-7.63,2.51-15.3,9.81-17.75l0.42-0.14c15.63-5.17,29.15-13.08,39.32-25.15
				c10.34-11.88,17.44-27.53,22.32-44.47c4.99-16.98,7.49-35.21,10.2-53.76c0.59-4.65,1.25-9.32,1.96-14.01
				c0.64-4.7,1.31-9.42,2.11-14.16C1025.38,2392.42,1027.11,2382.82,1029.96,2373.49z"/>
		</g>
		<g>
			<path class="st4" d="M988.37,1895.25c15.06-5.74,30.21-6.79,45.19-6.49c15,0.24,30.02,0.83,44.99,2.17
				c14.99,1.17,29.95,3.01,44.83,5.51c14.9,2.33,29.69,5.67,44.29,9.68c7.99,2.19,12.69,10.45,10.49,18.44
				c-2.12,7.73-9.92,12.38-17.66,10.69l-0.25-0.06l-42.42-9.38l-21.35-4.47l-21.47-4.17c-14.35-2.66-28.76-5.36-43.25-7.64
				c-14.51-2.24-28.9-5.24-43.43-11.78l-0.03-0.01c-0.68-0.31-0.98-1.1-0.67-1.78C987.78,1895.62,988.06,1895.37,988.37,1895.25z"/>
		</g>
		<g class="st3">
			<path class="st4" d="M1050.49,1819.15c68.79,52.28,147.36,90.52,230.73,112.61l0.41-157.34
				C1281.63,1774.43,1150.29,1777.92,1050.49,1819.15z"/>
		</g>
		<g class="st3">
			<path class="st4" d="M1610.39,2613.73c1.68,8.91,3.24,17.66,4.68,26.28C1613.68,2631.39,1612.12,2622.64,1610.39,2613.73z"/>
		</g>
		<g>
			<path class="st5" d="M1656.9,2697.53"/>
		</g>
		<g>
			<path class="st6" d="M1752.74,1997.79"/>
		</g>
		<g>
			<path class="st2" d="M2007.34,2656.33c-62.75,117.5-252.42,162.72-331.19,168.22c-17.78,1.23-35.07,1.73-51.79,1.52
				c-126.41-1.44-220.71-40.08-255.7-55.65c-77.62-34.54-141.53-90.56-184.4-163.33c-13.31-22.51-24.56-46.65-33.6-72.24
				c-0.45-1.31-0.9-2.63-1.36-3.98c-14.05-41.52-21.97-95.04-23.66-158.32c-3.29-122.47,16.96-281.53,62.47-461.13
				c6.78-26.65,14.09-53.8,21.93-81.32c23.2-81.03,51.26-165.51,84.32-252.13l613.5-33.14c27.6,144.57,51.05,277.34,69.98,397.23
				c3.49,22.18,6.82,43.94,10.02,65.26C2039.29,2351.14,2049.39,2577.6,2007.34,2656.33z"/>
		</g>
		<g class="st3">
			<path class="st4" d="M1150.66,2534.84c38.19,108.3,116.35,190.36,218,235.58c39.59,17.62,155.29,64.85,307.49,54.13
				c78.77-5.5,268.43-50.72,331.19-168.22c19.51-36.51,27.8-104.77,25.92-201.82c-1.56,57.62-10.02,99.31-25.92,123.7
				c-62.75,96.39-252.42,133.48-331.19,138c-152.2,8.79-267.9-29.94-307.49-44.4c-101.65-37.09-179.8-104.4-218-193.23
				c-15.94-37-24.44-86.04-25.26-144.73C1124.37,2416.31,1132.95,2484.69,1150.66,2534.84z"/>
		</g>
		<g class="st3">
			<path class="st4" d="M2016.28,2222.09c9.98,89.74,15.77,167.52,16.96,232.41C2034.89,2394.05,2029.02,2316.06,2016.28,2222.09z"
				/>
		</g>
		<g class="st3">
			<path class="st4" d="M1125.4,2333.84c0.41-34.87,2.55-72.28,6.45-111.92C1127,2262.21,1124.86,2299.67,1125.4,2333.84z"/>
		</g>
		<g>
			<path class="st4" d="M1631.13,2842.57c-114.88,0-208.34-30.08-269.14-57.13c-107.35-47.76-187.91-134.81-226.83-245.14
				c-64.87-183.84-7.06-572.93,143.85-968.2c3.23-8.48,12.73-12.73,21.21-9.49c8.48,3.23,12.72,12.73,9.49,21.21
				c-171.31,448.72-195.54,798.23-143.56,945.55c35.89,101.72,110.19,182,209.2,226.05c65.22,29.02,169.96,61.68,298.92,52.81
				l79.93-13.08c52.01-12.44,147.49-42.41,207.11-103.97c13-13.42,23.62-27.76,31.55-42.62c53.26-99.72,19.24-470.05-101.12-1100.68
				c-1.7-8.91,4.15-17.51,13.06-19.22c8.9-1.69,17.51,4.14,19.22,13.06c123.52,647.19,155.52,1014.3,97.82,1122.32
				c-9.38,17.55-21.8,34.38-36.93,50c-65.65,67.77-168.31,100.02-223.67,113.21l-1.16,0.23l-82.77,13.47
				C1661.56,2842.05,1646.16,2842.57,1631.13,2842.57z M1757.42,2811.27h0.05H1757.42z"/>
		</g>
		<g>
			<path class="st2" d="M1639.25,2734.58c0,0,68.03,339.75-73.08,504.7c0,0,142.13,87.15,63.51,156.99
				c-76.71,68.13-380.82,95.2-451.84-69.38c-67.98-157.52,101.17-287.21,18.17-666.45c-13.69-62.53-28.93-140.54-29.23-231.8
				L1639.25,2734.58z"/>
		</g>
		<g class="st3">
			<path class="st4" d="M1196.02,2661.37c82.98,379.25-86.15,508.96-18.17,666.48c71.03,164.57,375.12,137.49,451.84,69.37
				c20.6-18.3,26.04-37.77,22.82-56.59c-103.19,54.46-361.87,63.81-426.63-86.28c-23.39-54.19,117.95-159.55,118.89-277.33
				c0.79-98.7-26.84-199.55-55.78-277.61c-23.3-62.82,21.18-129.78,88.08-133.32c0.6-0.03,1.21-0.06,1.81-0.1
				c37.86-2.04,79.15-7.17,123.49-16.56c0,0,71.68-90.63-8.17-141.75c0,0-242.81,33.34-368.56-35.17
				c1.78,66.98,10.17,123.62,25.04,167.57c7.26,2.3,15.43,4.69,24.43,7.04C1180.8,2589.47,1188.63,2627.68,1196.02,2661.37z"/>
		</g>
		<g>
			<path class="st4" d="M1644.62,2734.44c8.44,21.03,13.62,42.59,17.99,64.39c4.27,21.8,6.87,43.86,8.5,66.01
				c3.43,44.29,2.89,88.99-1.82,133.44c-1.03,11.12-2.58,22.21-3.96,33.31c-1.75,11.07-3.35,22.16-5.63,33.17
				c-4.31,22.04-9.38,44.04-16.52,65.56c-7.11,21.5-15.25,42.85-26.13,63.09c-10.73,20.27-23.44,39.68-38.4,57.49l-3.9-24.68
				c8.05,5.08,14.93,10.03,22.07,15.43c7.03,5.37,13.87,11.01,20.48,17.01c13.14,12.08,25.74,25.22,35.96,41.32
				c5.08,8.05,9.58,16.83,12.68,26.61c3.07,9.73,4.71,20.64,3.42,31.66c-1.22,11.01-5.34,21.57-10.95,30.43
				c-2.71,4.6-6.03,8.43-9.31,12.34c-1.67,1.9-3.49,3.53-5.24,5.29c-1.77,1.74-3.52,3.49-5.48,4.96
				c-15.24,12.55-31.68,20.66-48.26,27.43c-16.62,6.67-33.54,11.68-50.59,15.75c-34.14,7.87-68.83,11.79-103.63,12.42
				c-17.41,0.2-34.83-0.44-52.23-1.97c-17.38-1.81-34.75-4.14-51.93-8.07c-34.28-7.67-68.28-20.05-98.63-40.15
				c-15.03-10.18-29.18-22.06-41.3-36.05c-11.95-14.12-21.81-30.04-29.31-46.95c-14.35-33.4-19.75-70.97-16.89-106.4
				c2.53-35.57,10.57-69.2,18.49-102.07c8.04-32.85,16.22-65.18,22.55-97.73c13.02-64.99,18.66-131.02,15.53-197.07
				c-1.47-33.01-4.89-65.95-9.75-98.72c-5.12-32.88-12.1-64.83-19.16-98.37c-6.69-33.3-14.44-66.74-17.55-100.93
				c-3.23-34.08-3.34-68.82,5.59-102.81c0.79-3.03,3.89-4.84,6.92-4.04c2.02,0.53,3.49,2.08,4.02,3.96l0.01,0.05
				c9.26,33.38,13.37,65.97,18.06,98.78c4.66,32.73,8.41,65.73,15.16,98.43c6.78,32.37,14.21,66.25,19.43,99.96
				c5.03,33.86,8.58,67.99,10.1,102.28c1.54,34.29,1.01,68.73-1.76,102.98c-2.74,34.26-7.74,68.31-14.36,101.86
				c-6.54,33.58-14.9,66.58-22.87,99.16c-7.88,32.54-15.42,64.77-17.63,96.5c-2.47,31.73,2.17,62.63,14.32,91.26
				c6.21,13.87,14.2,26.79,24,38.43c9.97,11.5,21.8,21.44,34.62,30.14c25.91,17.19,56.21,28.44,87.54,35.42
				c15.67,3.59,31.74,5.74,47.85,7.43c16.16,1.41,32.42,2.02,48.69,1.83c32.54-0.59,65.13-4.29,96.65-11.56
				c15.7-3.75,31.15-8.35,45.79-14.23c14.55-5.86,28.56-13.12,39.34-22.05c11.07-9.13,18.19-20.19,19.54-31.58
				c1.39-11.5-3.33-24.67-11.18-37.01c-7.82-12.41-18.65-23.94-30.28-34.58c-5.86-5.32-12.02-10.41-18.37-15.26
				c-6.27-4.77-13.11-9.63-19.3-13.54l-16.08-10.15l12.18-14.54c13.17-15.71,24.54-33.02,34.26-51.37
				c9.87-18.29,17.36-37.98,23.97-57.93c6.58-20,11.57-40.65,15.35-61.56c3.82-20.9,6.57-42.09,8.07-63.42
				c3.19-42.65,2.85-85.61,1.84-128.62c-1.47-43.01-3.64-86.13-3.3-130.05l0-0.12c0.02-3.08,2.54-5.55,5.61-5.53
				C1641.82,2730.97,1643.8,2732.41,1644.62,2734.44z"/>
		</g>
		<g>
			<path class="st4" d="M1429.3,3076.69c-122.64,0-223.06-31.14-229.63-33.23c-6.49-2.06-10.08-8.98-8.02-15.47
				c2.05-6.48,8.96-10.08,15.46-8.02c2.47,0.78,249.38,77.2,437.56-10.63c6.17-2.88,13.5-0.21,16.38,5.95
				c2.88,6.17,0.21,13.5-5.95,16.38C1581.94,3065.82,1501.74,3076.69,1429.3,3076.69z"/>
		</g>
		<g>
			
				<ellipse transform="matrix(0.7071 -0.7071 0.7071 0.7071 -1074.6764 2122.6321)" class="st2" cx="2024.91" cy="2358.57" rx="76.37" ry="76.37"/>
		</g>
		<g class="st3">
			<path class="st4" d="M2101.24,2360.54c-1.1,42.16-36.15,75.49-78.31,74.39c-42.16-1.1-75.49-36.21-74.39-78.37
				c0.3-11.65,3.2-22.68,8.19-32.45c11.58,26.1,37.45,44.69,67.9,45.48c30.46,0.79,57.25-16.42,70.12-41.88
				C2099.22,2337.72,2101.54,2348.89,2101.24,2360.54z"/>
		</g>
		<g>
			<path class="st4" d="M2024.94,2451.37c-0.82,0-1.63-0.01-2.45-0.03c-51.15-1.33-91.68-44.03-90.35-95.19
				c0.65-24.78,10.9-47.82,28.88-64.89c17.98-17.06,41.56-26.04,66.3-25.46c51.15,1.33,91.68,44.03,90.35,95.19l-16.42-0.43
				l16.42,0.43C2116.36,2411.31,2075,2451.37,2024.94,2451.37z M2024.87,2298.62c-15.42,0-30.01,5.81-41.23,16.47
				c-11.61,11.03-18.24,25.91-18.65,41.92c-0.86,33.04,25.32,60.63,58.36,61.48c16.06,0.46,31.22-5.42,42.83-16.45
				c11.61-11.03,18.24-25.91,18.65-41.92l0,0c0.42-16.01-5.42-31.22-16.45-42.83c-11.03-11.61-25.91-18.24-41.91-18.65
				C2025.93,2298.63,2025.4,2298.62,2024.87,2298.62z"/>
		</g>
		<g>
			<g class="st3">
				<path class="st4" d="M2028.18,2428.31c-13.04-85.74-15.51-165.24-11.9-236c1.75,40.87,5.63,83.75,12.44,128.41
					c7.93,52.36,10.38,107.04,5.51,160.72C2032.88,2463.59,2030.81,2445.82,2028.18,2428.31z"/>
			</g>
			<g>
				<path class="st2" d="M1954.66,2576.2l-398.83,20.5c-47.2,2.44-87.85-34.21-90.29-81.47l-10.9-212.24
					c-2.13-41.38,25.72-77.65,64.4-87.67c5.47-1.46,11.18-2.31,17.07-2.62l398.77-20.5c47.26-2.44,87.91,34.21,90.29,81.47
					l8.67,168.09l2.29,44.14C2038.57,2533.18,2001.87,2573.76,1954.66,2576.2z"/>
			</g>
			<g class="st3">
				<path class="st4" d="M1954.66,2576.2l-398.83,20.5c-47.2,2.44-87.85-34.21-90.29-81.47l-10.9-212.24
					c-2.13-41.38,25.72-77.65,64.4-87.67c23.42,13.88,38.3,22.76,38.3,22.76c28.17,169.36,81.05,251.82,292.78,244.4
					c91.39-3.23,148.32-20.12,183.72-40.72l2.29,44.14C2038.57,2533.18,2001.87,2573.76,1954.66,2576.2z"/>
			</g>
			<g>
				<path class="st4" d="M1551.37,2613.26c-25.3,0-49.43-9.29-68.46-26.46c-20.36-18.37-32.35-43.48-33.75-70.71l-10.92-212.26
					c-2.9-56.4,40.63-104.65,97.03-107.55l398.8-20.5c56.43-2.8,104.64,40.63,107.54,97.02l10.91,212.27
					c2.9,56.4-40.63,104.64-97.02,107.54l-398.8,20.5C1554.92,2613.22,1553.14,2613.26,1551.37,2613.26z M1939.37,2208.51
					c-1.2,0-2.4,0.03-3.61,0.09l-398.8,20.5c-38.31,1.97-67.87,34.74-65.9,73.05l10.92,212.26c0.95,18.46,9.1,35.51,22.94,48
					c13.85,12.49,31.65,18.85,50.1,17.9l398.8-20.5c18.46-0.95,35.51-9.1,48-22.94c12.49-13.85,18.85-31.64,17.9-50.1l-10.91-212.27
					c-0.95-18.46-9.1-35.51-22.94-48C1972.92,2214.82,1956.52,2208.51,1939.37,2208.51z"/>
			</g>
			<g>
				<path class="st2" d="M1970.59,2573.81c-5.11,1.34-10.4,2.14-15.93,2.39l-398.83,20.5c-34.59,1.76-65.65-17.4-80.73-46.45
					c-5.5-10.55-8.88-22.4-9.5-35.01l-4.88-94.29l-1.61-31.11l-4.46-86.84c-2.44-47.26,34.27-87.85,81.47-90.29l86.18-4.41
					c-39.34,9.53-67.79,46.1-65.66,87.9l5.86,114.65l5.04,97.65c2.44,47.2,43.09,83.91,90.29,81.47L1970.59,2573.81z"/>
			</g>
			<g class="st3">
				<path class="st4" d="M1970.59,2573.81c-5.11,1.34-10.4,2.14-15.93,2.39l-398.83,20.5c-47.2,2.44-87.85-34.21-90.23-81.47
					l-6.49-125.4c11.17,21.64,30.59,47.91,59.57,49.28c15.9,0.79,30.89-11.4,43.81-28.28l5.04,97.65
					c2.44,47.2,43.09,83.91,90.29,81.47L1970.59,2573.81z"/>
			</g>
			<g>
				<path class="st4" d="M1551.3,2613.26c-25.26,0-49.37-9.28-68.39-26.45c-20.37-18.38-32.35-43.49-33.73-70.72l-10.91-212.26
					c-1.42-27.22,7.93-53.43,26.3-73.8c18.37-20.36,43.48-32.35,70.71-33.76l86.15-4.41l4.72,32.37
					c-32.48,7.89-54.82,37.81-53.1,71.14l10.91,212.26c0.94,18.47,9.08,35.52,22.93,48.02c13.84,12.49,31.61,18.86,50.06,17.89
					l312.81-16.11l4.89,32.33c-6.28,1.6-12.75,2.56-19.24,2.86l-398.74,20.51C1554.88,2613.21,1553.09,2613.26,1551.3,2613.26z
					 M1562.66,2227.77l-25.69,1.32c-38.32,1.99-67.89,34.76-65.89,73.05l10.91,212.28c0.94,18.46,9.08,35.5,22.93,48
					c13.85,12.49,31.62,18.87,50.06,17.89l28.59-1.47c-19.57-18.27-31.07-42.89-32.42-69.53l-10.91-212.25
					C1538.91,2271.25,1547.38,2246.82,1562.66,2227.77z"/>
			</g>
			<g>
				<path class="st7" d="M1719.43,2395.98c0.36,7.85-7.79,71.73-7.79,71.73s-20.08,0.92-44.73,2.04
					c-30.8,1.41-57.22-29.34-59.02-68.68c-1.8-39.34,21.72-72.37,52.52-73.77c20.79-0.95,44.73-2.04,44.73-2.04
					S1718.85,2383.19,1719.43,2395.98z"/>
			</g>
			<g class="st3">
				<path class="st4" d="M1719.43,2395.98c0.36,7.85-7.79,71.73-7.79,71.73s-20.08,0.92-44.73,2.04
					c-30.8,1.41-57.22-29.34-59.02-68.68c-1.8-39.34,21.72-72.37,52.52-73.77c20.79-0.95,44.73-2.04,44.73-2.04
					S1718.85,2383.19,1719.43,2395.98z"/>
			</g>
			<g>
				<path class="st4" d="M1664.91,2482.12c-36.43,0-67.27-35.47-69.32-80.49c-1-21.76,4.79-42.65,16.3-58.82
					c12.16-17.09,29.19-26.97,47.96-27.82l31.23-1.43c13.78-0.66,26.06,8.7,29.13,22.17c7.3,32.08,11.18,52.15,11.53,59.68l0,0
					c0.09,2.02,0.34,7.39-6.17,60.23c-1.71,13.85-13.07,24.36-27.02,25l-31.07,1.42C1666.62,2482.1,1665.76,2482.12,1664.91,2482.12
					z M1692.38,2338.18c-0.06,0-0.12,0-0.18,0l-31.23,1.43c-11.03,0.51-21.33,6.72-29,17.5c-8.33,11.7-12.51,27.12-11.77,43.41
					c1.48,32.49,22.23,57.97,46.15,56.94l31.07-1.42c1.91-0.09,3.46-1.52,3.69-3.4c5.82-47.27,6.03-55.02,6.01-56.12
					c-0.1-2.21-1.22-12.63-10.94-55.3C1695.78,2339.43,1694.2,2338.18,1692.38,2338.18z"/>
			</g>
			<g>
				
					<ellipse transform="matrix(0.999 -0.0456 0.0456 0.999 -107.5094 80.4009)" class="st7" cx="1708.39" cy="2396.49" rx="55.83" ry="71.3"/>
				<path class="st4" d="M1709.64,2480.08c-36.43,0-67.27-35.47-69.32-80.48c-1-21.76,4.79-42.65,16.3-58.82
					c12.16-17.09,29.19-26.97,47.96-27.82c18.78-0.9,36.62,7.43,50.29,23.34c12.93,15.05,20.6,35.32,21.59,57.09
					c1,21.76-4.79,42.65-16.3,58.82c-12.16,17.08-29.19,26.97-47.96,27.82C1711.35,2480.06,1710.49,2480.08,1709.64,2480.08z
					 M1707.16,2337.54c-0.48,0-0.97,0.01-1.45,0.03c-11.03,0.51-21.33,6.72-29,17.5c-8.33,11.7-12.51,27.12-11.77,43.41
					c1.49,32.49,22.21,58.02,46.15,56.93c11.03-0.51,21.33-6.72,29.01-17.5c8.33-11.7,12.51-27.11,11.76-43.4l0,0
					c-0.74-16.29-6.31-31.26-15.67-42.15C1727.94,2342.76,1717.68,2337.54,1707.16,2337.54z"/>
			</g>
			<g>
				<path class="st4" d="M1830.6,2593.37c-6.65,0-12.12-5.3-12.31-11.98l-4.27-154l65.96-46.36l-8.89-185.46
					c-0.32-6.8,4.92-12.57,11.72-12.9c6.92-0.28,12.57,4.92,12.9,11.72l9.54,199l-66.22,46.55l3.9,140.76
					c0.19,6.8-5.17,12.47-11.98,12.66C1830.83,2593.36,1830.71,2593.37,1830.6,2593.37z"/>
			</g>
		</g>
		<g>
			<path class="st2" d="M1108.4,2299.39c0,0-36.91,29.37-38.53,74.69c-1.88,52.39,30.9,73.64,30.9,73.64s143.44,73.44,373.57,24.65
				c0,0,67.74-85.61-7.71-133.93C1466.63,2338.43,1223.74,2371.79,1108.4,2299.39z"/>
		</g>
		<g class="st3">
			<path class="st4" d="M1069.89,2374.11c-1.88,52.33,30.88,73.57,30.88,73.57s143.41,73.47,373.59,24.66
				c0,0,22.27-28.23,27.01-61.32c-1.09,1.63-1.79,2.48-1.79,2.48c-168.21,35.69-290.1,6.03-343.5-12.5
				c-37.09-12.88-61.89-46.55-61.02-84.17c0.01-0.52,0.03-1.04,0.05-1.56c0.02-0.87,0.04-1.75,0.2-2.59
				C1084.54,2325.53,1070.84,2346.96,1069.89,2374.11z"/>
		</g>
		<g>
			<path class="st4" d="M1318.45,2505.65c-138.47,0-220.63-40.99-225.17-43.31l-1.45-0.84c-1.66-1.07-40.57-27.01-38.38-88.01
				c1.88-52.27,42.97-85.56,44.72-86.95l9.11-7.25l9.86,6.19c109.02,68.44,344.89,37.01,347.25,36.68l6-0.83l5.1,3.26
				c23.8,15.24,37.94,35.34,42.03,59.74c8.19,48.9-28.72,96.23-30.3,98.22l-3.68,4.65l-5.8,1.23
				C1418.75,2500.94,1365.36,2505.65,1318.45,2505.65z M1109.21,2433.55c12.55,5.94,147.6,66.37,355.52,24.03
				c7.52-11.11,25.01-40.57,20.37-67.93c-2.28-13.44-9.69-24.65-22.58-34.13c-38.99,4.74-239.2,25.29-351.65-35.68
				c-9.3,10.18-23.69,29.85-24.58,54.83C1084.92,2412.98,1105.14,2430.44,1109.21,2433.55z"/>
		</g>
		<g>
			<g class="st3">
				<path class="st4" d="M1977.85,1942.04c-2.34,1.56-4.68,3.12-7.02,4.64c-18.4,11.99-37.5,23-57.29,32.98
					c-9.65,4.89-19.55,9.49-29.57,13.96c-30.27,13.18-60.99,23.53-91.87,31.17c-26.61,6.65-53.39,11.21-80.09,13.88
					c-32.24,3.24-64.4,3.57-96.23,1.23c-11.58-0.86-23.12-2.09-34.62-3.66c-141.32-19.3-273.61-91.91-371.11-206.17
					c23.2-81.03,51.26-165.51,84.32-252.13l613.5-33.14C1935.47,1689.38,1958.92,1822.16,1977.85,1942.04z"/>
			</g>
			<g>
				<path class="st2" d="M2215.51,1652.03c-53.32,93.49-130.61,174.1-227.69,232.04c-19.8,11.81-40.35,22.68-61.7,32.5
					c-10.37,4.81-21.01,9.35-31.81,13.72c-32.62,13-65.67,23.18-98.95,30.66c-28.66,6.52-57.51,10.98-86.26,13.56
					c-34.72,3.13-69.39,3.4-103.67,1.04c-12.5-0.9-24.94-2.13-37.32-3.68c-226.53-28.81-431.76-174.13-524.43-397.88
					c-136.58-329.58,22.88-704.4,356.05-837.23c64.19-25.54,130.19-40.35,195.83-45.03c7.67-0.62,15.38-1.02,23.09-1.26
					c20.63-0.78,41.18-0.6,61.6,0.56c47.24,2.68,93.82,10.47,138.9,22.97c45.08,12.44,88.75,29.65,130.09,51.23
					c13.15,6.85,26.07,14.13,38.77,21.89c19.02,11.64,37.47,24.17,55.3,37.78c88.94,67.47,161.57,158.37,207.04,268.17
					C2328.94,1282.65,2309.53,1487.17,2215.51,1652.03z"/>
				<path class="st4" d="M1650.84,1978.77c-15.16,0-30.36-0.52-45.52-1.56c-12.48-0.9-25.06-2.14-37.41-3.69
					c-234.76-29.86-436.22-182.7-525.75-398.89c-65.96-159.17-65.54-333.89,1.16-491.99c67.24-159.36,193.6-282.74,355.81-347.41
					c63.28-25.18,129.33-40.37,196.32-45.15c7.32-0.59,14.9-1.01,23.16-1.26c20.59-0.78,41.37-0.59,61.75,0.56
					c46.89,2.66,93.74,10.41,139.25,23.02c45.09,12.45,88.96,29.73,130.42,51.36c13.32,6.93,26.39,14.32,38.87,21.94
					c19.43,11.89,38.08,24.63,55.44,37.88c91.78,69.62,163.56,162.59,207.57,268.85c76.14,183.7,63.4,387.97-34.95,560.42
					c-54.52,95.6-133.46,176.04-228.27,232.64c-20.07,11.97-40.88,22.93-61.86,32.58c-9.6,4.46-20.03,8.96-31.88,13.75
					c-32.24,12.85-65.61,23.19-99.2,30.74c-28.12,6.39-57.21,10.97-86.47,13.59C1689.96,1977.9,1670.43,1978.77,1650.84,1978.77z
					 M1643.56,691.66c-8.28,0-16.57,0.16-24.84,0.47c-8.21,0.26-15.74,0.67-23.02,1.26c-66.66,4.76-132.38,19.87-195.35,44.92
					c-161.37,64.34-287.08,187.08-353.98,345.62c-66.36,157.28-66.77,331.1-1.15,489.44c89.08,215.09,289.53,367.17,523.11,396.87
					c12.29,1.54,24.82,2.77,37.23,3.67c34.56,2.38,69.35,2.03,103.4-1.04c29.11-2.61,58.06-7.16,86.04-13.52
					c33.43-7.51,66.63-17.81,98.7-30.58c11.79-4.77,22.17-9.25,31.73-13.68c20.87-9.61,41.57-20.52,61.55-32.42
					c94.33-56.3,172.85-136.34,227.1-231.44l1.44,0.82l-1.44-0.82c97.84-171.56,110.51-374.76,34.76-557.52
					c-43.78-105.72-115.19-198.22-206.51-267.49c-17.27-13.18-35.83-25.86-55.16-37.69c-12.41-7.59-25.42-14.93-38.67-21.83
					c-41.25-21.52-84.91-38.72-129.77-51.1c-45.29-12.56-91.9-20.26-138.55-22.91C1668.07,692,1655.83,691.66,1643.56,691.66z"/>
			</g>
			<g class="st3">
				<path class="st4" d="M1043.69,1573.98c92.65,223.77,297.91,369.11,524.44,397.88c12.38,1.56,24.81,2.79,37.29,3.68
					c34.29,2.38,68.95,2.08,103.67-1.03c28.75-2.6,57.61-7.04,86.25-13.55c33.3-7.47,66.33-17.66,98.98-30.65
					c10.78-4.41,21.41-8.92,31.81-13.71c21.35-9.84,41.88-20.75,61.69-32.54c97.07-57.95,174.38-138.52,227.7-232.05
					c29.3-51.35,51.37-106.6,65.47-164.03c-52.95,88.07-127.56,163.94-220.17,219.22c-19.79,11.84-40.34,22.7-61.69,32.54
					c-10.35,4.81-20.99,9.32-31.81,13.71c-32.64,13-65.68,23.18-98.94,30.67c-28.68,6.49-57.5,10.95-86.25,13.55
					c-34.72,3.1-69.41,3.39-103.67,1.03c-12.52-0.91-24.95-2.13-37.33-3.7c-226.53-28.77-431.75-174.09-524.44-397.88
					c-54.1-130.53-61.71-268.16-30.53-395.01C985.6,1169.15,963.06,1379.46,1043.69,1573.98z"/>
			</g>
			<g>
				<path class="st4" d="M1650.84,1989.85c-15.42,0-30.87-0.53-46.27-1.59c-12.71-0.92-25.49-2.18-38.03-3.75
					c-238.72-30.36-443.56-185.79-534.61-405.64c-67.1-161.93-66.68-339.69,1.19-500.54c68.41-162.12,196.94-287.62,361.91-353.39
					c64.35-25.6,131.51-41.04,199.64-45.91c7.4-0.6,15.16-1.02,23.6-1.29c20.86-0.79,41.99-0.6,62.72,0.57
					c47.68,2.71,95.31,10.58,141.58,23.41c45.83,12.65,90.44,30.22,132.58,52.21c13.53,7.05,26.83,14.56,39.52,22.31
					c19.76,12.09,38.72,25.05,56.38,38.52c93.33,70.79,166.33,165.35,211.08,273.42c77.46,186.89,64.5,394.7-35.56,570.15l0,0
					c-55.47,97.26-135.77,179.09-232.22,236.67c-20.42,12.17-41.57,23.32-62.9,33.13c-9.74,4.52-20.34,9.09-32.36,13.96
					c-32.83,13.08-66.77,23.6-100.93,31.28c-28.57,6.5-58.16,11.15-87.91,13.82C1690.63,1988.97,1670.76,1989.85,1650.84,1989.85z
					 M1643.56,702.74c-8.14,0-16.29,0.15-24.42,0.46c-8.1,0.25-15.45,0.66-22.55,1.23c-65.63,4.68-130.24,19.54-192.15,44.17
					c-158.59,63.23-282.13,183.85-347.87,339.63c-65.2,154.52-65.6,325.31-1.13,480.89c87.57,211.43,284.62,360.92,514.27,390.12
					c12.08,1.51,24.41,2.72,36.63,3.61c33.94,2.34,68.13,1.99,101.61-1.03c28.63-2.57,57.08-7.04,84.58-13.29
					c32.89-7.39,65.53-17.51,97.06-30.07c11.56-4.68,21.78-9.09,31.17-13.44c20.54-9.46,40.9-20.18,60.54-31.89
					c92.68-55.32,169.85-133.96,223.14-227.41c96.13-168.56,108.58-368.22,34.15-547.78c-43.03-103.91-113.22-194.82-202.97-262.9
					c-17-12.97-35.24-25.43-54.25-37.06c-12.19-7.45-24.98-14.67-38.01-21.46c-40.56-21.17-83.49-38.07-127.6-50.25
					c-44.54-12.35-90.37-19.93-136.23-22.53C1667.65,703.07,1655.62,702.74,1643.56,702.74z M2215.51,1652.03h0.05H2215.51z"/>
			</g>
			<g>
				<path class="st4" d="M1650.84,1993.54c-15.5,0-31.04-0.53-46.53-1.6c-12.78-0.92-25.63-2.19-38.23-3.76
					c-240.04-30.53-446.01-186.82-537.57-407.89c-67.48-162.85-67.06-341.62,1.2-503.39c68.79-163.03,198.04-289.25,363.95-355.39
					c64.7-25.74,132.24-41.27,200.74-46.16c7.43-0.6,15.25-1.03,23.75-1.3c20.96-0.79,42.2-0.6,63.04,0.58
					c47.94,2.72,95.84,10.64,142.36,23.54c46.07,12.72,90.93,30.38,133.31,52.5c13.6,7.09,26.98,14.63,39.74,22.43
					c19.86,12.15,38.94,25.18,56.7,38.73c93.84,71.18,167.25,166.26,212.25,274.95c77.9,187.95,64.86,396.94-35.76,573.39l0,0
					c-55.78,97.81-136.54,180.11-233.54,238.01c-20.53,12.24-41.81,23.45-63.25,33.32c-9.79,4.54-20.44,9.14-32.52,14.03
					c-33.03,13.16-67.16,23.74-101.51,31.46c-28.73,6.53-58.48,11.21-88.39,13.89C1690.85,1992.66,1670.87,1993.54,1650.84,1993.54z
					 M1643.57,706.43c-8.1,0-16.2,0.15-24.28,0.46c-8.06,0.25-15.35,0.65-22.39,1.22c-65.29,4.66-129.52,19.43-191.08,43.92
					c-157.66,62.86-280.49,182.77-345.83,337.64c-64.81,153.61-65.21,323.38-1.12,478.04c87.06,210.21,282.99,358.83,511.33,387.87
					c12,1.5,24.27,2.71,36.43,3.59c33.73,2.32,67.73,1.98,101.01-1.02c28.46-2.55,56.75-7,84.09-13.21
					c32.71-7.35,65.16-17.41,96.51-29.9c11.49-4.65,21.65-9.03,30.98-13.36c20.43-9.41,40.67-20.07,60.2-31.71
					c92.14-55,168.85-133.17,221.83-226.07c95.56-167.56,107.93-366.04,33.95-544.54c-42.78-103.31-112.56-193.68-201.79-261.37
					c-16.9-12.9-35.04-25.29-53.94-36.85c-12.12-7.41-24.83-14.59-37.79-21.33c-40.33-21.05-83.02-37.85-126.88-49.96
					c-44.29-12.28-89.86-19.81-135.46-22.4C1667.51,706.76,1655.55,706.43,1643.57,706.43z M2215.51,1652.03h0.05H2215.51z"/>
			</g>
			<g>
				<path class="st4" d="M2115.76,1783.72c-385.9,255.55-902.69,57.23-923.31-397.86c-14.03-309.62,282.3-560.44,584.47-552.94
					c219.92,5.45,432.78,105.69,519.51,444.75c0,0,14.94,155.81-29.32,258.44c-44.26,102.63-104.9,194.97-104.9,194.97
					L2115.76,1783.72z"/>
			</g>
			<g>
				<path class="st8" d="M1192.47,1385.86c20.61,455.08,537.41,653.4,923.3,397.87l9.41-10.68
					c-421.39,65.45-836.48-191.33-866.01-651.13C1213.34,1200.37,1188.15,1290.32,1192.47,1385.86z"/>
			</g>
			<g>
				<path class="st4" d="M1749.4,1977.45c-167.31,0-327.14-58.26-444.39-163.23c-120.56-107.93-188.36-254.9-196.09-425.02
					c-7.08-156.24,54.26-308.89,172.74-429.83c131.62-134.35,318.29-211.93,499.56-207.38c100.7,2.5,191.05,22.47,268.56,59.36
					l1.39,0.66l1.23,0.93c93.67,71.05,166.93,165.94,211.84,274.38c77.73,187.54,64.72,396.08-35.69,572.14l0,0
					c-55.66,97.59-136.24,179.72-233.03,237.49c-20.48,12.21-41.72,23.4-63.12,33.25c-9.77,4.53-20.4,9.12-32.45,14
					c-32.96,13.13-67.01,23.68-101.29,31.39l-2.32,0.33C1780.66,1976.95,1764.98,1977.45,1749.4,1977.45z M1766.2,781.8
					c-168.52,0-340.67,73.58-463.12,198.56c-112.6,114.93-170.91,259.64-164.2,407.47c7.35,161.88,71.72,301.6,186.13,404.03
					c121.94,109.17,292.51,165.32,468.21,154.19c32.35-7.34,64.49-17.33,95.54-29.7c11.51-4.66,21.7-9.06,31.05-13.39
					c20.48-9.43,40.76-20.11,60.33-31.78c92.35-55.12,169.23-133.48,222.34-226.59c95.78-167.94,108.18-366.88,34.03-545.79
					c-42.68-103.06-112.17-193.29-201.02-261.03c-73.37-34.65-159.16-53.42-255.01-55.8C1775.72,781.86,1770.96,781.8,1766.2,781.8z
					 M2215.51,1652.03h0.05H2215.51z"/>
			</g>
			<g>
				<path class="st4" d="M1747.72,1913.07c-96.48,0-191.66-21.64-277.95-65.51c-177.49-90.22-284.55-258.24-293.73-460.96
					c-6.34-139.87,48.55-276.49,154.57-384.69c117.69-120.12,284.66-189.44,446.72-185.42c279.19,6.92,459.2,160.72,535.02,457.1
					l0.44,2.5c0.63,6.53,14.82,161.22-30.59,266.51c-44.32,102.76-103.75,193.66-106.25,197.48l-1.41,1.85l-47.89,54.27l-1.81,1.2
					C2009.12,1874.04,1877.26,1913.07,1747.72,1913.07z M1763.89,849.18c-149.12,0-301.44,65.11-409.81,175.72
					c-99.56,101.63-151.14,229.55-145.21,360.21c8.64,190.57,109.16,348.45,275.8,433.16c191.04,97.11,428.49,79.05,620.23-47.06
					l44.21-50.1c6.47-10,62.15-96.94,102.93-191.51c40.03-92.83,29.39-234.54,28.16-249.15
					c-71.92-279.57-241.37-424.6-503.68-431.11C1772.32,849.24,1768.09,849.18,1763.89,849.18z M2115.76,1783.72h0.05H2115.76z"/>
			</g>
			<g>
				<path class="st2" d="M903.75,1351.67c-9.76,126.49,57.78,238.65,150.87,250.51c93.1,11.86,176.47-81.08,186.23-207.57
					c0.08-0.79,0.12-1.63,0.15-2.43c8.74-125.49-58.58-236.31-151.02-248.07c-71.92-9.16-138.03,44.22-168.9,127.28
					C912.01,1295.84,905.97,1322.91,903.75,1351.67z"/>
			</g>
			<g class="st3">
				<path class="st4" d="M903.75,1351.67c-9.76,126.49,57.78,238.65,150.87,250.51c93.1,11.86,176.47-81.08,186.23-207.57
					c0.08-0.79,0.12-1.63,0.15-2.43c-11.24,11.68-28.15,22.43-49.4,15.37c-37.22-12.38-98.78-102.35-98.78-102.35
					s-74.38-15.15-171.74-33.82C912.01,1295.84,905.97,1322.91,903.75,1351.67z"/>
			</g>
			<g>
				<path class="st4" d="M1070.86,1619.63c-6.07,0-12.18-0.39-18.3-1.17c-101.49-12.92-175.6-133.17-165.2-268.05
					c6.01-77.85,38.31-146.02,88.64-187.01c34.98-28.5,75.1-40.82,116.04-35.59c101.49,12.92,175.6,133.17,165.19,268.06
					c-6.01,77.85-38.31,146.02-88.64,187.01C1138.85,1607.1,1105.38,1619.63,1070.86,1619.63z M1073.94,1159.51
					c-27,0-53.44,10.01-77.2,29.36c-42.74,34.82-71.39,96.15-76.63,164.07v0c-9.08,117.69,52.19,222.19,136.59,232.93
					c31.77,4.05,63.31-5.8,91.14-28.47c42.74-34.82,71.39-96.15,76.63-164.07c9.08-117.7-52.19-222.19-136.58-232.94
					C1083.23,1159.8,1078.58,1159.51,1073.94,1159.51z M903.74,1351.67h0.05H903.74z"/>
			</g>
			<g>
				
					<ellipse transform="matrix(0.9998 -0.019 0.019 0.9998 -26.1812 19.5581)" class="st2" cx="1016.36" cy="1387.85" rx="138.05" ry="182.62"/>
				<path class="st4" d="M1017.73,1572.29c-16.82,0-33.61-4.08-49.83-12.22c-40.27-20.22-71.03-62.75-84.38-116.7
					c-23.95-96.78,16.02-200.5,89.09-231.2c30.39-12.76,62.27-11.57,92.21,3.46c40.27,20.22,71.03,62.75,84.38,116.7
					c23.95,96.78-16.02,200.49-89.09,231.2C1046.19,1569.37,1031.95,1572.29,1017.73,1572.29z M1014.99,1206.85
					c-13.77,0-27.56,2.83-41.04,8.49c-71.58,30.07-110.65,132-87.09,227.2c13.11,52.97,43.21,94.69,82.59,114.45
					c29.01,14.56,59.9,15.73,89.34,3.36c71.58-30.07,110.65-131.99,87.09-227.2c-13.11-52.97-43.21-94.69-82.58-114.45
					C1047.56,1210.81,1031.28,1206.85,1014.99,1206.85z"/>
			</g>
			<g class="st3">
				<path class="st4" d="M1140.46,1475.45c11.1-32.75,13.12-68.68,7.51-103.02c-31.7,72.54-102.88,97.42-164.86,54.98
					c-40.06-27.41-67.03-76.66-75.69-129.81c-2.03,4.56-3.86,9.38-5.55,14.35c-28.23,83.41,2.28,187.64,68.18,232.79
					C1035.95,1589.88,1112.23,1558.82,1140.46,1475.45z"/>
			</g>
			<g>
				<path class="st4" d="M1014.33,1587.08c-4.71,0-9.45-0.32-14.19-0.96c-78.56-10.63-135.85-109.98-127.69-221.47
					c4.83-66.09,32.01-125.26,72.69-158.27c26.35-21.38,56.35-30.52,86.73-26.4c78.57,10.63,135.85,109.98,127.69,221.47
					c-4.83,66.09-32.01,125.25-72.69,158.26C1064.64,1577.76,1039.81,1587.08,1014.33,1587.08z M1017.9,1211.89
					c-17.98,0-35.79,6.82-52.05,20c-33.78,27.4-56.44,77.93-60.63,135.15c-6.91,94.5,37.64,178.17,99.33,186.52
					c21.19,2.86,42.49-3.83,61.63-19.36c33.77-27.4,56.44-77.93,60.62-135.15c6.91-94.5-37.64-178.17-99.33-186.52
					C1024.28,1212.1,1021.08,1211.89,1017.9,1211.89z"/>
			</g>
			<g class="st9">
				<path class="st2" d="M1615.71,951.09c0,0,288.19,25.32,443.71,193.14c0.16,0.18,0.33,0.35,0.49,0.53
					c32.7,35.35,55.16,78.74,65.36,125.45c13.49,61.76,13.63,106.22,12.22,145.36c-4.34,119.02-28.94,173.86-28.94,173.86
					c70.92-60.06,112.19-129.86,116.79-228.95c0.43-9.77,0.5-19.86,0.25-30.23c-0.05-2.39-0.15-4.75-0.29-7.14
					c0.05-0.02,0.03-0.07-0.03-0.14c-2.01-20.96-5.7-48.42-12.49-79.06c-20.41-92.43-68.7-213.88-182.96-274.03
					C1816.18,857.41,1606.22,938.25,1615.71,951.09z"/>
			</g>
			<g class="st9">
				
					<ellipse transform="matrix(0.3052 -0.9523 0.9523 0.3052 -202.649 2188.9426)" class="st2" cx="1398.7" cy="1233.34" rx="100.17" ry="87.2"/>
			</g>
			<g class="st9">
				
					<ellipse transform="matrix(0.3923 -0.9198 0.9198 0.3923 -483.2851 2082.6721)" class="st2" cx="1334.64" cy="1407.11" rx="41.38" ry="35.99"/>
			</g>
		</g>
		<g>
			<path class="st4" d="M1320.27,3254.03c14.92-17.07,34.99-27.71,55.77-34.88c20.85-7.2,42.65-12.43,64.89-14.22
				c5.54-0.78,11.12-0.86,16.7-1.06c5.58-0.04,11.19-0.53,16.77-0.04l16.77,0.91c5.59,0.39,11.08,1.51,16.64,2.24
				c11.18,1.22,21.93,4.39,32.81,7.03c5.5,1.14,10.62,3.43,15.92,5.17l15.7,5.78c8.5,3.13,12.86,12.55,9.73,21.05
				c-3.06,8.32-12.16,12.68-20.52,9.92l-1.4-0.46l-14.3-4.73c-4.77-1.54-9.41-3.52-14.3-4.58c-9.7-2.41-19.27-5.44-29.16-6.91
				c-19.59-4.14-39.64-5.35-59.72-5.36c-20.11,0.13-40.3,2.64-60.14,7.18c-19.86,4.69-39.42,10.13-60.65,15.24l-0.13,0.03
				c-0.76,0.18-1.52-0.29-1.7-1.04C1319.85,3254.83,1319.98,3254.37,1320.27,3254.03z"/>
		</g>
		<g>
			<path class="st2" d="M1238.75,2211.46c0,0,71.44,203.64,315.04,221.79c243.6,18.15,372.67-143.09,410.98-221.79H1238.75z"/>
		</g>
		<g class="st3">
			<path class="st4" d="M1964.75,2211.46c-38.32,78.69-167.36,239.93-410.94,221.78c-180.13-13.43-266.13-128.26-298.7-187.16
				c48.79,41.77,117.55,92.31,215.03,99.78c165.59,12.7,180.95-63.67,209.92-134.41H1964.75z"/>
		</g>
		<g>
			<path class="st4" d="M1243.92,2209.65c14.25,13.58,24.66,28.21,34.83,42.98c10.47,14.55,20.43,29.4,31.65,43.42
				c11.15,14.07,23.97,26.74,37.55,38.42c13.57,11.7,28.1,22.28,43.41,31.55c15.31,9.28,31.29,17.45,47.87,24.28
				c16.66,6.61,33.72,12.31,51.23,16.49c34.95,8.48,71.36,11.62,107.69,11.39c36.25-0.76,72.39-5.35,107.14-15.15
				c34.79-9.58,68.1-24.16,98.89-42.93c30.84-18.71,58.94-41.93,83.74-68.2c6.19-6.58,12.14-13.38,17.9-20.33
				c5.69-7.01,10.66-14.58,15.56-22.11c5.04-7.45,10.19-14.73,16.18-21.58c6.01-6.86,12.71-13.27,22.28-18.8l0.15-0.09
				c3.1-1.79,7.07-0.73,8.87,2.37c0.46,0.79,0.73,1.67,0.83,2.51c1.29,11.34-1.19,21.33-4.84,30.58
				c-3.89,9.12-8.95,17.63-14.93,25.4c-5.95,7.81-12.57,15.04-18.7,22.63c-6.28,7.47-12.67,14.84-19.36,21.94
				c-26.76,28.36-57.12,53.44-90.54,73.73c-33.36,20.34-69.54,36.18-107.22,46.55c-37.63,10.61-76.62,15.56-115.46,16.35
				c-38.74,0.27-77.78-3.07-115.91-12.31c-19.05-4.56-37.71-10.76-55.96-18.03c-18.17-7.48-35.73-16.45-52.55-26.65
				c-16.82-10.2-32.78-21.81-47.66-34.64c-14.93-12.8-28.69-26.83-41.97-41.3c-13.29-14.47-25.41-30.16-34.83-47.47
				c-9.55-17.17-16.99-35.82-16.17-57.35c0.12-3.24,2.85-5.76,6.09-5.64c1.48,0.06,2.82,0.66,3.82,1.61L1243.92,2209.65z"/>
		</g>
		<g>
			<g>
				<g>
					<path class="st4" d="M3036.95,2899.85c-1.13,0-2.27-0.11-3.42-0.36c-8.87-1.88-14.55-10.6-12.67-19.47l76.39-361.12
						c1.88-8.88,10.6-14.56,19.47-12.67c8.87,1.88,14.55,10.6,12.67,19.47L3053,2886.82
						C3051.37,2894.55,3044.54,2899.85,3036.95,2899.85z"/>
				</g>
				<g>
					<path class="st4" d="M2945.24,2899.85c-0.9,0-1.82-0.08-2.74-0.23c-8.95-1.5-14.99-9.97-13.48-18.92l60.58-361.12
						c1.5-8.95,9.98-14.99,18.92-13.48c8.95,1.5,14.99,9.97,13.48,18.92l-60.58,361.12
						C2960.08,2894.17,2953.12,2899.85,2945.24,2899.85z"/>
				</g>
				<g>
					<path class="st4" d="M2853.53,2899.85c-0.67,0-1.35-0.04-2.04-0.13c-9-1.12-15.4-9.32-14.28-18.33l44.77-361.12
						c1.12-9,9.33-15.41,18.33-14.28c9,1.12,15.4,9.32,14.28,18.33l-44.77,361.12C2868.78,2893.76,2861.7,2899.85,2853.53,2899.85z"
						/>
				</g>
				<g>
					<path class="st4" d="M2761.82,2899.85c-0.44,0-0.88-0.02-1.33-0.05c-9.04-0.73-15.79-8.64-15.06-17.69l28.96-361.12
						c0.72-9.04,8.64-15.81,17.69-15.06c9.04,0.73,15.79,8.64,15.06,17.69l-28.96,361.12
						C2777.49,2893.33,2770.3,2899.85,2761.82,2899.85z"/>
				</g>
				<g>
					<path class="st4" d="M2670.11,2899.85c-0.2,0-0.4,0-0.61-0.01c-9.07-0.33-16.15-7.95-15.82-17.01l13.14-361.12
						c0.33-9.06,7.78-16.08,17.01-15.82c9.07,0.33,16.15,7.95,15.82,17.01l-13.14,361.12
						C2686.19,2892.88,2678.91,2899.85,2670.11,2899.85z"/>
				</g>
				<g>
					<path class="st4" d="M2578.39,2899.85c-9.02,0-16.36-7.28-16.43-16.31l-2.67-361.12c-0.07-9.07,7.23-16.48,16.31-16.55
						c9.29-0.11,16.48,7.23,16.55,16.31l2.67,361.12c0.07,9.07-7.23,16.48-16.31,16.55
						C2578.47,2899.85,2578.43,2899.85,2578.39,2899.85z"/>
				</g>
				<g>
					<path class="st4" d="M2486.67,2899.85c-8.69,0-15.94-6.81-16.39-15.59l-18.48-361.12c-0.46-9.06,6.51-16.78,15.57-17.25
						c9.04-0.42,16.78,6.51,17.25,15.57l18.48,361.12c0.46,9.06-6.51,16.78-15.57,17.25
						C2487.24,2899.84,2486.95,2899.85,2486.67,2899.85z"/>
				</g>
			</g>
			<g>
				<path class="st10" d="M3164.59,2487.2v0.04c0,19.34-15.73,35.07-35.07,35.07h-723.16l6.9,196.89
					c1.73,50.19-6.86,99.31-25.55,145.96l-7.31,18.28h672.72c19.34,0,35.07,15.69,35.07,35.03c0,9.69-3.94,18.44-10.27,24.81
					c-6.37,6.37-15.11,10.27-24.81,10.27h-700.9l-35.57,88.75c-9.65,24.15,0.57,43.41,5.42,50.6c4.85,7.15,18.93,23.82,44.93,23.82
					h748.13c18.65,0,34.87,14.13,36.1,32.73c0.7,10.64-3.37,20.29-10.19,27.19c-6.32,6.32-15.11,10.27-24.85,10.27h-749.2
					c-50.72,0-92.2-29.53-112-70.19c-14.54-29.94-17.33-65.88-3.45-100.54l25.09-62.63l28.13-70.11l17.78-44.4
					c14.95-37.29,21.93-77.25,20.53-117.42l-6.94-199.31l-1.11-31.62c-0.45-12.98-1.77-25.87-3.94-38.56
					c-7.97-46.57-27.27-90.64-56.43-128.26l-10.55-13.59l-76.72-98.81l-4.31-5.54h90.07l4.19,5.54l52.69,69.41
					c7.39,9.53,14.29,19.34,20.62,29.41c27.19,43.21,44.64,91.3,51.42,141.86h727.43
					C3148.86,2452.13,3164.59,2467.82,3164.59,2487.2z"/>
			</g>
			<g>
				<path class="st4" d="M3116.22,3203.33h-749.21c-46.82,0-90.42-23.15-116.65-61.92c-26.23-38.78-31.48-87.87-14.06-131.33
					l71.01-177.15c14.18-35.33,20.7-72.59,19.37-110.74l-8.03-230.92c-2.01-57.46-21.71-111.88-56.97-157.35l-91.55-117.95
					c-3.85-4.96-4.53-11.67-1.77-17.3c2.76-5.63,8.48-9.2,14.75-9.2h90.03c5.14,0,9.98,2.4,13.08,6.49l56.91,74.95
					c37.45,48.24,62.56,104.99,73.02,164.78h713.33c28.4,0,51.5,23.1,51.5,51.5c0,28.44-23.1,51.54-51.5,51.54h-706.15l6.3,179.89
					c1.77,50.96-6.65,100.85-25.02,148.37h648.48c28.4,0,51.5,23.1,51.5,51.5s-23.1,51.5-51.5,51.5h-689.77l-31.45,78.43
					c-6.74,16.85,0.39,30.27,3.77,35.26c3.39,5,13.21,16.62,31.34,16.62h748.13c27.66,0,50.72,21.11,52.49,48.06
					c0.97,14.8-4.47,29.33-14.93,39.86C3142.93,3197.98,3129.99,3203.33,3116.22,3203.33z M2216.66,2222.33l70.98,91.46
					c39.51,50.96,61.58,111.94,63.84,176.34l8.03,230.92c1.49,42.76-5.81,84.52-21.71,124.12l-71.01,177.14
					c-13.56,33.82-9.63,70.52,10.77,100.69c20.41,30.17,53.01,47.48,89.44,47.48h749.21c4.99,0,9.68-1.94,13.21-5.46
					c3.84-3.86,5.77-9.02,5.42-14.5c-0.63-9.58-9.47-17.37-19.71-17.37h-748.13c-33.86,0-52.22-21.72-58.54-31.05
					c-6.32-9.33-19.67-34.43-7.07-65.9l35.58-88.75c2.5-6.23,8.54-10.31,15.25-10.31h700.88c10.28,0,18.64-8.36,18.64-18.64
					c0-10.28-8.36-18.64-18.64-18.64h-672.72c-5.45,0-10.55-2.71-13.61-7.22c-3.05-4.51-3.67-10.25-1.65-15.31l7.31-18.26
					c17.84-44.53,26.04-91.4,24.37-139.29l-6.9-196.88c-0.16-4.46,1.5-8.78,4.6-11.99s7.36-5.02,11.82-5.02h723.16
					c10.28,0,18.64-8.36,18.64-18.64c0-10.32-8.36-18.68-18.64-18.68h-727.4c-8.22,0-15.18-6.08-16.28-14.23
					c-8-59.27-31.77-115.78-68.73-163.4l-52.09-68.6H2216.66z"/>
			</g>
			<g class="st3">
				<path class="st4" d="M2350.66,2310.27h-86.53l-76.72-98.81h89.94l52.69,69.41C2337.44,2290.39,2344.34,2300.21,2350.66,2310.27z
					"/>
			</g>
			<g class="st3">
				<path class="st4" d="M3151.24,3149.45c0.7,10.64-3.37,20.29-10.19,27.19c-6.32,6.32-15.11,10.27-24.85,10.27h-749.2
					c-50.72,0-92.2-29.53-112-70.19c-10.02-20.66-14.5-44.19-11.66-68.22c1.64,13.92,5.67,27.31,11.66,39.71
					c19.8,40.66,61.28,70.19,112,70.19h749.2c9.73,0,18.52-3.94,24.85-10.27c3-3,5.42-6.53,7.19-10.47
					C3149.92,3141.28,3150.95,3145.26,3151.24,3149.45z"/>
			</g>
			<g>
				<path class="st4" d="M3053.11,2970h-404.95c-9.07,0-16.43-7.36-16.43-16.43v-70.15c0-9.07,7.36-16.43,16.43-16.43h404.95
					c28.4,0,51.5,23.1,51.5,51.5c0,13.7-5.34,26.62-15.04,36.38C3079.81,2964.65,3066.87,2970,3053.11,2970z M2664.59,2937.15
					h388.52c4.99,0,9.67-1.94,13.19-5.46c3.5-3.53,5.45-8.23,5.45-13.19c0-10.28-8.36-18.65-18.65-18.65h-388.52V2937.15z"/>
			</g>
			<g>
				<path class="st4" d="M3129.5,2538.73h-481.34c-9.07,0-16.43-7.36-16.43-16.43v-70.19c0-9.07,7.36-16.43,16.43-16.43h481.34
					c28.4,0,51.5,23.1,51.5,51.5v0.04C3181,2515.62,3157.9,2538.73,3129.5,2538.73z M2664.59,2505.87h464.91
					c10.28,0,18.65-8.36,18.65-18.65v-0.04c0-10.28-8.36-18.65-18.65-18.65h-464.91V2505.87z"/>
			</g>
			<g class="st3">
				<path class="st4" d="M2316.66,3013.8l35.57-88.75h700.9c9.69,0,18.44-3.9,24.81-10.27c3-3,5.5-6.57,7.23-10.6
					c1.93,4.35,3.04,9.2,3.04,14.29c0,9.69-3.94,18.44-10.27,24.81c-6.37,6.37-15.11,10.27-24.81,10.27h-700.9l-35.57,88.75
					c-0.78,2.01-1.48,3.98-2.01,5.91C2312.06,3039.06,2311.32,3027.19,2316.66,3013.8z"/>
			</g>
			<g class="st3">
				<path class="st4" d="M3164.59,2487.2v0.04c0,19.34-15.73,35.07-35.07,35.07h-722.17l-0.99-28.5h723.16
					c14.29,0,26.61-8.58,32.08-20.86C3163.52,2477.3,3164.59,2482.15,3164.59,2487.2z"/>
			</g>
			<g>
				<g>
					<g>
						<path class="st10" d="M3088.18,2918.5c0,9.65-3.94,18.44-10.27,24.81c-6.32,6.32-15.11,10.27-24.81,10.27h-404.95v-70.15
							h404.95C3072.49,2883.43,3088.18,2899.12,3088.18,2918.5z"/>
					</g>
					<g class="st3">
						<path class="st4" d="M3088.18,2918.5c0,9.65-3.94,18.44-10.27,24.81c-6.32,6.32-15.11,10.27-24.81,10.27h-404.95v-35.07
							h386.92c9.69,0,18.48-3.94,24.81-10.27c5.38-5.42,9.04-12.57,10.02-20.53C3080.79,2893.65,3088.18,2905.19,3088.18,2918.5z"/>
					</g>
					<g>
						<path class="st10" d="M3164.57,2487.19v0.04c0,19.39-15.69,35.07-35.07,35.07h-481.34v-70.19h481.34
							C3148.88,2452.11,3164.57,2467.84,3164.57,2487.19z"/>
					</g>
					<g class="st3">
						<path class="st4" d="M3164.57,2487.19v0.04c0,19.39-15.69,35.07-35.07,35.07h-481.34v-35.11h468.89
							c16.76,0,30.76-11.75,34.25-27.48C3159.4,2466.16,3164.57,2476.06,3164.57,2487.19z"/>
					</g>
				</g>
				<g>
					<path class="st4" d="M3053.11,2970h-404.95c-9.07,0-16.43-7.36-16.43-16.43v-70.15c0-9.07,7.36-16.43,16.43-16.43h404.95
						c28.4,0,51.5,23.1,51.5,51.5c0,13.7-5.34,26.62-15.04,36.38C3079.81,2964.65,3066.87,2970,3053.11,2970z M2664.59,2937.15
						h388.52c4.99,0,9.67-1.94,13.19-5.46c3.5-3.53,5.45-8.23,5.45-13.19c0-10.28-8.36-18.65-18.65-18.65h-388.52V2937.15z"/>
				</g>
				<g>
					<path class="st4" d="M3129.5,2538.73h-481.34c-9.07,0-16.43-7.36-16.43-16.43v-70.19c0-9.07,7.36-16.43,16.43-16.43h481.34
						c28.4,0,51.5,23.1,51.5,51.5v0.04C3181,2515.62,3157.9,2538.73,3129.5,2538.73z M2664.59,2505.87h464.91
						c10.28,0,18.65-8.36,18.65-18.65v-0.04c0-10.28-8.36-18.65-18.65-18.65h-464.91V2505.87z"/>
				</g>
			</g>
			<g>
				<g>
					<path class="st4" d="M3036.95,2899.85c-1.13,0-2.27-0.11-3.42-0.36c-8.87-1.88-14.55-10.6-12.67-19.47l76.39-361.12
						c1.88-8.88,10.6-14.56,19.47-12.67c8.87,1.88,14.55,10.6,12.67,19.47L3053,2886.82
						C3051.37,2894.55,3044.54,2899.85,3036.95,2899.85z"/>
				</g>
				<g>
					<path class="st4" d="M2945.24,2899.85c-0.9,0-1.82-0.08-2.74-0.23c-8.95-1.5-14.99-9.97-13.48-18.92l60.58-361.12
						c1.5-8.95,9.98-14.99,18.92-13.48c8.95,1.5,14.99,9.97,13.48,18.92l-60.58,361.12
						C2960.08,2894.17,2953.12,2899.85,2945.24,2899.85z"/>
				</g>
				<g>
					<path class="st4" d="M2853.53,2899.85c-0.67,0-1.35-0.04-2.04-0.13c-9-1.12-15.4-9.32-14.28-18.33l44.77-361.12
						c1.12-9,9.33-15.41,18.33-14.28c9,1.12,15.4,9.32,14.28,18.33l-44.77,361.12C2868.78,2893.76,2861.7,2899.85,2853.53,2899.85z"
						/>
				</g>
				<g>
					<path class="st4" d="M2761.82,2899.85c-0.44,0-0.88-0.02-1.33-0.05c-9.04-0.73-15.79-8.64-15.06-17.69l28.96-361.12
						c0.72-9.04,8.64-15.81,17.69-15.06c9.04,0.73,15.79,8.64,15.06,17.69l-28.96,361.12
						C2777.49,2893.33,2770.3,2899.85,2761.82,2899.85z"/>
				</g>
			</g>
			<g>
				<g>
					<circle class="st11" cx="2934.55" cy="3315.91" r="107.77"/>
				</g>
				<g>
					<path class="st4" d="M2934.55,3440.11c-68.48,0-124.2-55.72-124.2-124.2s55.72-124.2,124.2-124.2s124.2,55.72,124.2,124.2
						S3003.03,3440.11,2934.55,3440.11z M2934.55,3224.57c-50.37,0-91.34,40.98-91.34,91.34s40.98,91.34,91.34,91.34
						s91.34-40.98,91.34-91.34S2984.91,3224.57,2934.55,3224.57z"/>
				</g>
				<g class="st3">
					<path class="st4" d="M3036.36,3282.81l-3.53,12.44c-12.44,43.62-52.28,73.68-97.62,73.68c-45.38,0-85.22-30.06-97.66-73.68
						l-4.8-16.88c6.04-16.31,15.93-30.72,28.54-42.18h145.02C3020.05,3248.68,3030.53,3264.69,3036.36,3282.81z"/>
				</g>
				<g>
					<path class="st11" d="M2597.13,3315.91c0,59.51-48.26,107.77-107.77,107.77c-59.55,0-107.81-48.26-107.81-107.77
						c0-13.18,2.38-25.83,6.74-37.54c6.04-16.31,15.93-30.72,28.54-42.18c19.14-17.41,44.6-28.05,72.53-28.05
						c27.93,0,53.39,10.64,72.49,28.05c13.76,12.48,24.23,28.5,30.06,46.61C2595.33,3293.24,2597.13,3304.37,2597.13,3315.91z"/>
				</g>
				<g>
					<circle class="st4" cx="2489.35" cy="3315.91" r="41.76"/>
				</g>
				<g>
					<circle class="st4" cx="2935.95" cy="3315.91" r="41.76"/>
				</g>
				<g>
					<path class="st4" d="M2489.35,3440.11c-68.48,0-124.2-55.72-124.2-124.2s55.72-124.2,124.2-124.2s124.2,55.72,124.2,124.2
						S2557.83,3440.11,2489.35,3440.11z M2489.35,3224.57c-50.37,0-91.34,40.98-91.34,91.34s40.98,91.34,91.34,91.34
						s91.34-40.98,91.34-91.34S2539.72,3224.57,2489.35,3224.57z"/>
				</g>
				<g>
					<path class="st10" d="M2605.27,3186.91l-11.75,41.07l-5.13,17.99c-12.44,43.62-52.28,73.68-97.62,73.68
						c-45.38,0-85.22-30.06-97.66-73.68l-5.13-17.99l-11.75-41.07H2605.27z"/>
				</g>
				<g>
					<path class="st4" d="M2490.75,3336.09c-52.41,0-99.06-35.2-113.45-85.6l-16.86-59.07c-1.42-4.96-0.42-10.29,2.68-14.4
						c3.11-4.11,7.96-6.53,13.12-6.53h229.03c5.15,0,10.01,2.42,13.12,6.53c3.1,4.12,4.1,9.45,2.68,14.4l-16.86,59.07
						C2589.82,3300.89,2543.16,3336.09,2490.75,3336.09z M2398.01,3203.33l10.88,38.13c10.38,36.36,44.04,61.76,81.86,61.76
						s71.47-25.4,81.86-61.76l10.89-38.13H2398.01z"/>
				</g>
				<g>
					<path class="st10" d="M3050.46,3186.91l-11.75,41.07l-5.13,17.99c-12.44,43.62-52.28,73.68-97.62,73.68
						c-45.38,0-85.22-30.06-97.66-73.68l-5.13-17.99l-11.75-41.07H3050.46z"/>
				</g>
				<g>
					<path class="st4" d="M2935.95,3336.09c-52.41,0-99.06-35.2-113.45-85.6l-16.86-59.07c-1.42-4.96-0.42-10.29,2.68-14.4
						c3.11-4.11,7.96-6.53,13.12-6.53h229.03c5.15,0,10.01,2.42,13.12,6.53c3.1,4.12,4.1,9.45,2.68,14.4l-16.86,59.07
						C3035.01,3300.89,2988.36,3336.09,2935.95,3336.09z M2843.2,3203.33l10.89,38.13c10.38,36.36,44.04,61.76,81.86,61.76
						c37.82,0,71.48-25.4,81.86-61.76l10.89-38.13H2843.2z"/>
				</g>
				<g class="st3">
					<polygon class="st4" points="2376.22,3186.91 2605.27,3186.91 2593.52,3227.98 2387.97,3227.98 					"/>
				</g>
				<g class="st3">
					<polygon class="st4" points="3050.46,3186.91 3038.72,3227.98 2833.16,3227.98 2821.42,3186.91 					"/>
				</g>
			</g>
			<g>
				<circle class="st11" cx="2540.91" cy="3315.91" r="107.77"/>
			</g>
			<g>
				<path class="st4" d="M2540.91,3440.11c-68.48,0-124.2-55.72-124.2-124.2s55.72-124.2,124.2-124.2s124.2,55.72,124.2,124.2
					S2609.4,3440.11,2540.91,3440.11z M2540.91,3224.57c-50.37,0-91.34,40.98-91.34,91.34s40.98,91.34,91.34,91.34
					s91.34-40.98,91.34-91.34S2591.28,3224.57,2540.91,3224.57z"/>
			</g>
			<g class="st3">
				<path class="st4" d="M2642.73,3282.81l-3.53,12.44c-12.44,43.62-52.28,73.68-97.62,73.68c-45.38,0-85.22-30.06-97.66-73.68
					l-4.8-16.88c6.04-16.31,15.93-30.72,28.54-42.18h145.02C2626.42,3248.68,2636.9,3264.69,2642.73,3282.81z"/>
			</g>
			<g>
				<path class="st11" d="M2203.5,3315.91c0,59.51-48.26,107.77-107.77,107.77c-59.55,0-107.81-48.26-107.81-107.77
					c0-13.18,2.38-25.83,6.74-37.54c6.04-16.31,15.93-30.72,28.54-42.18c19.14-17.41,44.6-28.05,72.53-28.05
					c27.93,0,53.39,10.64,72.49,28.05c13.76,12.48,24.23,28.5,30.06,46.61C2201.7,3293.24,2203.5,3304.37,2203.5,3315.91z"/>
			</g>
			<g>
				<circle class="st4" cx="2095.72" cy="3315.91" r="41.76"/>
			</g>
			<g>
				<circle class="st4" cx="2542.32" cy="3315.91" r="41.76"/>
			</g>
			<g>
				<path class="st4" d="M2095.72,3440.11c-68.48,0-124.2-55.72-124.2-124.2s55.72-124.2,124.2-124.2s124.2,55.72,124.2,124.2
					S2164.2,3440.11,2095.72,3440.11z M2095.72,3224.57c-50.37,0-91.34,40.98-91.34,91.34s40.98,91.34,91.34,91.34
					s91.34-40.98,91.34-91.34S2146.08,3224.57,2095.72,3224.57z"/>
			</g>
			<g>
				<path class="st10" d="M2211.64,3186.91l-11.75,41.07l-5.13,17.99c-12.44,43.62-52.28,73.68-97.62,73.68
					c-45.38,0-85.22-30.06-97.66-73.68l-5.13-17.99l-11.75-41.07H2211.64z"/>
			</g>
			<g>
				<path class="st4" d="M2097.12,3336.09c-52.41,0-99.06-35.2-113.45-85.6l-16.86-59.07c-1.42-4.96-0.42-10.29,2.68-14.4
					c3.11-4.11,7.96-6.53,13.12-6.53h229.03c5.15,0,10.01,2.42,13.12,6.53c3.1,4.12,4.1,9.45,2.68,14.4l-16.86,59.07
					C2196.18,3300.89,2149.53,3336.09,2097.12,3336.09z M2004.38,3203.33l10.89,38.13c10.38,36.36,44.04,61.76,81.86,61.76
					s71.48-25.4,81.86-61.76l10.88-38.13H2004.38z"/>
			</g>
			<g>
				<path class="st10" d="M2656.83,3186.91l-11.75,41.07l-5.13,17.99c-12.44,43.62-52.28,73.68-97.62,73.68
					c-45.38,0-85.22-30.06-97.66-73.68l-5.13-17.99l-11.75-41.07H2656.83z"/>
			</g>
			<g>
				<path class="st4" d="M2542.32,3336.09c-52.41,0-99.06-35.2-113.45-85.6l-16.86-59.07c-1.42-4.96-0.42-10.29,2.68-14.4
					c3.1-4.11,7.96-6.53,13.11-6.53h229.03c5.15,0,10.01,2.42,13.11,6.53c3.11,4.11,4.1,9.45,2.68,14.4l-16.86,59.07
					C2641.38,3300.89,2594.73,3336.09,2542.32,3336.09z M2449.57,3203.33l10.88,38.13c10.38,36.36,44.04,61.76,81.86,61.76
					s71.48-25.4,81.86-61.76l10.88-38.13H2449.57z"/>
			</g>
			<g>
				<path class="st10" d="M2790.77,2487.2v0.04c0,19.34-15.69,35.07-35.07,35.07h-723.16l6.9,196.89
					c1.72,50.19-6.86,99.31-25.55,145.96l-7.31,18.28h672.72c19.34,0,35.07,15.69,35.07,35.03c0,9.69-3.94,18.44-10.27,24.81
					c-6.37,6.37-15.11,10.27-24.81,10.27h-700.9l-35.57,88.75c-9.65,24.15,0.57,43.41,5.42,50.6c4.85,7.15,18.93,23.82,44.93,23.82
					h748.13c18.65,0,34.87,14.13,36.1,32.73c0.7,10.64-3.37,20.29-10.19,27.19c-6.32,6.32-15.11,10.27-24.81,10.27h-749.24
					c-88.05,0-148.22-88.96-115.45-170.73l71.01-177.14c14.95-37.29,21.93-77.25,20.54-117.42l-8.05-230.94
					c-2.09-60.58-23.25-118.94-60.37-166.83l-10.56-13.59l-76.68-98.81l-4.31-5.54h90.02l4.23,5.54l52.69,69.41
					c7.39,9.53,14.25,19.34,20.58,29.41c27.19,43.21,44.64,91.3,51.42,141.86h727.43
					C2775.08,2452.13,2790.77,2467.82,2790.77,2487.2z"/>
			</g>
			<g class="st3">
				<polygon class="st4" points="1982.59,3186.91 2211.64,3186.91 2199.89,3227.98 1994.33,3227.98 				"/>
			</g>
			<g class="st3">
				<polygon class="st4" points="2656.83,3186.91 2645.09,3227.98 2439.53,3227.98 2427.79,3186.91 				"/>
			</g>
			<g>
				<path class="st10" d="M2790.77,2487.2v0.04c0,19.34-15.69,35.07-35.07,35.07h-723.16l6.9,196.89
					c1.72,50.19-6.86,99.31-25.55,145.96l-7.31,18.28h672.72c19.34,0,35.07,15.69,35.07,35.03c0,9.69-3.94,18.44-10.27,24.81
					c-6.37,6.37-15.11,10.27-24.81,10.27h-700.9l-35.57,88.75c-9.65,24.15,0.57,43.41,5.42,50.6c4.85,7.15,18.93,23.82,44.93,23.82
					h748.13c18.65,0,34.87,14.13,36.1,32.73c0.7,10.64-3.37,20.29-10.19,27.19c-6.32,6.32-15.11,10.27-24.81,10.27h-749.24
					c-88.05,0-148.22-88.96-115.45-170.73l71.01-177.14c14.95-37.29,21.93-77.25,20.54-117.42l-8.05-230.94
					c-2.09-60.58-23.25-118.94-60.37-166.83l-10.56-13.59l-76.68-98.81l-4.31-5.54h90.02l4.23,5.54l52.69,69.41
					c7.39,9.53,14.25,19.34,20.58,29.41c27.19,43.21,44.64,91.3,51.42,141.86h727.43
					C2775.08,2452.13,2790.77,2467.82,2790.77,2487.2z"/>
			</g>
			<g class="st3">
				<path class="st4" d="M1930.81,3007.6l24.16-60.28c6.89-17.2,23.55-28.47,42.08-28.47h670.23c9.69,0,18.44-3.9,24.81-10.27
					c4.6-4.64,7.97-10.55,9.45-17.21c7.84,6.45,12.85,16.18,12.85,27.11c0,9.69-3.94,18.44-10.27,24.81
					c-6.37,6.37-15.11,10.27-24.81,10.27h-700.9l-35.57,88.75c-2.75,6.94-3.9,13.47-3.98,19.43c-1.07-1.31-1.93-2.51-2.63-3.53
					C1931.38,3051.01,1921.16,3031.75,1930.81,3007.6z"/>
			</g>
			<g class="st3">
				<path class="st4" d="M2777.42,3149.45c0.7,10.64-3.37,20.29-10.19,27.19c-6.32,6.32-15.11,10.27-24.81,10.27h-749.24
					c-63.12,0-111.92-45.71-122.43-101.73c20.37,39.02,60.99,67.03,110.4,67.03h749.24c9.69,0,18.48-3.94,24.81-10.27
					c4.56-4.6,7.89-10.39,9.36-16.92C2771.84,3130.89,2776.76,3139.51,2777.42,3149.45z"/>
			</g>
			<g class="st3">
				<path class="st4" d="M2790.77,2487.2v0.04c0,19.34-15.69,35.07-35.07,35.07h-723.16l6.9,196.89
					c1.52,44.36-5.01,87.85-19.43,129.53h-13.43l7.3-16.61c18.69-46.66,15.25-97.44,13.53-147.63l-5.81-165.75
					c-0.6-17.02,13.04-31.14,30.07-31.14h692c16.8,0,30.8-11.83,34.25-27.56C2785.76,2466.46,2790.77,2476.24,2790.77,2487.2z"/>
			</g>
			<g>
				<path class="st4" d="M2742.41,3203.33H1993.2c-46.82,0-90.42-23.15-116.65-61.92c-26.23-38.78-31.48-87.87-14.06-131.33
					l71.01-177.15c14.18-35.33,20.7-72.59,19.37-110.74l-8.03-230.92c-2.01-57.47-21.71-111.88-56.97-157.35l-91.54-117.95
					c-3.85-4.96-4.53-11.67-1.77-17.3c2.76-5.63,8.48-9.2,14.75-9.2h90.03c5.14,0,9.98,2.4,13.08,6.49l56.91,74.95
					c37.45,48.24,62.56,104.99,73.02,164.78h713.33c28.4,0,51.5,23.1,51.5,51.5c0,28.44-23.1,51.54-51.5,51.54h-706.15l6.3,179.89
					c1.77,50.96-6.65,100.85-25.02,148.37h648.48c28.4,0,51.5,23.1,51.5,51.5s-23.1,51.5-51.5,51.5h-689.77l-31.45,78.43
					c-6.74,16.85,0.39,30.27,3.77,35.26c3.38,5,13.21,16.62,31.34,16.62h748.13c27.66,0,50.71,21.11,52.49,48.06
					c0.97,14.8-4.47,29.33-14.93,39.86C2769.12,3197.98,2756.18,3203.33,2742.41,3203.33z M1842.85,2222.33l70.98,91.46
					c39.51,50.95,61.58,111.93,63.84,176.34l8.03,230.92c1.49,42.75-5.81,84.51-21.71,124.12l-71.01,177.14
					c-13.56,33.82-9.63,70.52,10.77,100.69c20.41,30.17,53.01,47.48,89.44,47.48h749.21c4.99,0,9.68-1.94,13.21-5.46
					c3.84-3.86,5.77-9.02,5.41-14.5l0,0c-0.63-9.58-9.47-17.37-19.7-17.37H1993.2c-33.87,0-52.23-21.72-58.54-31.05
					c-6.32-9.33-19.66-34.43-7.07-65.9l35.58-88.75c2.5-6.23,8.54-10.31,15.25-10.31h700.88c10.28,0,18.64-8.36,18.64-18.64
					c0-10.28-8.36-18.64-18.64-18.64h-672.73c-5.45,0-10.55-2.71-13.61-7.22c-3.06-4.52-3.67-10.25-1.64-15.31l7.31-18.26
					c17.83-44.53,26.03-91.4,24.37-139.29l-6.9-196.88c-0.16-4.46,1.5-8.78,4.6-11.99s7.36-5.02,11.82-5.02h723.16
					c10.28,0,18.64-8.36,18.64-18.64c0-10.32-8.36-18.68-18.64-18.68h-727.4c-8.22,0-15.18-6.08-16.28-14.23
					c-8-59.27-31.77-115.78-68.73-163.4l-52.09-68.6H1842.85z"/>
			</g>
			<g>
				<g>
					<path class="st4" d="M2679.32,2899.85c-1.13,0-2.27-0.11-3.42-0.36c-8.87-1.88-14.55-10.6-12.67-19.47l76.39-361.12
						c1.88-8.88,10.6-14.56,19.47-12.67c8.87,1.88,14.55,10.6,12.67,19.47l-76.39,361.12
						C2693.74,2894.55,2686.91,2899.85,2679.32,2899.85z"/>
				</g>
				<g>
					<path class="st4" d="M2587.61,2899.85c-0.9,0-1.82-0.08-2.74-0.23c-8.95-1.5-14.99-9.97-13.48-18.92l60.58-361.12
						c1.5-8.95,9.98-14.99,18.92-13.48c8.95,1.5,14.99,9.97,13.48,18.92l-60.58,361.12
						C2602.45,2894.17,2595.49,2899.85,2587.61,2899.85z"/>
				</g>
				<g>
					<path class="st4" d="M2495.9,2899.85c-0.67,0-1.35-0.04-2.04-0.13c-9-1.12-15.4-9.32-14.28-18.33l44.77-361.12
						c1.12-9,9.31-15.41,18.33-14.28c9,1.12,15.4,9.32,14.28,18.33l-44.77,361.12C2511.16,2893.76,2504.08,2899.85,2495.9,2899.85z"
						/>
				</g>
				<g>
					<path class="st4" d="M2404.2,2899.85c-0.44,0-0.88-0.02-1.33-0.05c-9.04-0.73-15.79-8.64-15.06-17.69l28.96-361.12
						c0.72-9.04,8.64-15.81,17.69-15.06c9.04,0.73,15.79,8.64,15.06,17.69l-28.96,361.12
						C2419.86,2893.33,2412.67,2899.85,2404.2,2899.85z"/>
				</g>
				<g>
					<path class="st4" d="M2312.48,2899.85c-0.2,0-0.4,0-0.61-0.01c-9.07-0.33-16.15-7.95-15.82-17.01l13.14-361.12
						c0.33-9.06,7.81-16.12,17.01-15.82c9.07,0.33,16.15,7.95,15.82,17.01l-13.14,361.12
						C2328.57,2892.88,2321.28,2899.85,2312.48,2899.85z"/>
				</g>
				<g>
					<path class="st4" d="M2220.76,2899.85c-9.02,0-16.36-7.28-16.43-16.31l-2.67-361.12c-0.07-9.07,7.23-16.48,16.31-16.55
						c0.04,0,0.08,0,0.12,0c9.02,0,16.36,7.28,16.43,16.31l2.67,361.12c0.07,9.07-7.23,16.48-16.31,16.55
						C2220.84,2899.85,2220.8,2899.85,2220.76,2899.85z"/>
				</g>
				<g>
					<path class="st4" d="M2129.04,2899.85c-8.69,0-15.94-6.81-16.39-15.59l-18.48-361.12c-0.46-9.06,6.51-16.78,15.57-17.25
						c9.04-0.42,16.78,6.51,17.25,15.57l18.48,361.12c0.46,9.06-6.51,16.78-15.57,17.25
						C2129.61,2899.84,2129.32,2899.85,2129.04,2899.85z"/>
				</g>
			</g>
			<g>
				<path class="st10" d="M3065.95,2722.69h-324.9c-12.65,0-22.91-10.25-22.91-22.91l0,0c0-12.65,10.26-22.91,22.91-22.91h324.9
					c12.65,0,22.91,10.25,22.91,22.91l0,0C3088.86,2712.43,3078.6,2722.69,3065.95,2722.69z"/>
			</g>
			<g class="st3">
				<path class="st4" d="M3088.85,2699.78c0,6.32-2.55,12.07-6.74,16.18c-4.11,4.19-9.86,6.74-16.18,6.74h-324.9
					c-12.65,0-22.88-10.27-22.88-22.92c0-4.19,1.11-8.09,3.08-11.46c3.94,6.86,11.33,11.46,19.79,11.46h324.9
					c6.32,0,12.07-2.55,16.18-6.74c1.44-1.4,2.67-3,3.66-4.72C3087.75,2691.69,3088.85,2695.59,3088.85,2699.78z"/>
			</g>
			<g>
				<path class="st4" d="M3065.95,2739.12h-324.9c-21.69,0-39.33-17.64-39.33-39.33s17.64-39.33,39.33-39.33h324.9
					c21.69,0,39.33,17.64,39.33,39.33S3087.64,2739.12,3065.95,2739.12z M2741.05,2693.3c-3.57,0-6.48,2.91-6.48,6.48
					s2.91,6.48,6.48,6.48h324.9c3.57,0,6.48-2.91,6.48-6.48s-2.91-6.48-6.48-6.48H2741.05z"/>
			</g>
			<g>
				<path class="st10" d="M2695.24,2722.69h-633.48c-12.65,0-22.91-10.25-22.91-22.91l0,0c0-12.65,10.26-22.91,22.91-22.91h633.48
					c12.65,0,22.91,10.25,22.91,22.91l0,0C2718.15,2712.43,2707.89,2722.69,2695.24,2722.69z"/>
			</g>
			<g class="st3">
				<path class="st4" d="M2718.16,2699.78c0,6.32-2.55,12.07-6.74,16.18c-4.11,4.19-9.86,6.74-16.18,6.74h-633.46
					c-12.65,0-22.92-10.27-22.92-22.92c0-4.19,1.11-8.09,3.08-11.46c3.94,6.86,11.38,11.46,19.84,11.46h633.46
					c6.32,0,12.07-2.55,16.18-6.74c1.44-1.4,2.67-3,3.66-4.72C2717.05,2691.69,2718.16,2695.59,2718.16,2699.78z"/>
			</g>
			<g>
				<path class="st4" d="M2695.24,2739.12h-633.48c-21.69,0-39.33-17.64-39.33-39.33s17.64-39.33,39.33-39.33h633.48
					c21.69,0,39.33,17.64,39.33,39.33S2716.93,2739.12,2695.24,2739.12z M2061.76,2693.3c-3.57,0-6.48,2.91-6.48,6.48
					s2.91,6.48,6.48,6.48h633.48c3.57,0,6.48-2.91,6.48-6.48s-2.91-6.48-6.48-6.48H2061.76z"/>
			</g>
			<g class="st3">
				<path class="st4" d="M1976.85,2310.27h-86.53l-76.68-98.81h89.94l52.69,69.41C1963.66,2290.39,1970.52,2300.21,1976.85,2310.27z
					"/>
			</g>
			<g>
				<path class="st12" d="M2386.19,2196.05c0,27.26-22.1,49.39-49.39,49.39h-579.02v-98.8h579.02
					C2364.09,2146.64,2386.19,2168.76,2386.19,2196.05z"/>
			</g>
			<g class="st9">
				<path class="st2" d="M2386.19,2196.06c0,4.52-0.62,8.87-1.77,13.06c-5.71-20.95-24.85-36.35-47.64-36.35h-579v-26.12h579
					C2364.09,2146.65,2386.19,2168.75,2386.19,2196.06z"/>
			</g>
			<g class="st3">
				<path class="st4" d="M2386.19,2196.06c0,27.27-22.1,49.37-49.41,49.37h-579v-43.66h579c19.47,0,36.27-11.21,44.31-27.56
					C2384.34,2180.78,2386.19,2188.21,2386.19,2196.06z"/>
			</g>
			<g>
				<path class="st4" d="M2336.8,2261.86h-579.02c-9.07,0-16.43-7.36-16.43-16.43v-98.8c0-9.07,7.36-16.43,16.43-16.43h579.02
					c36.29,0,65.82,29.54,65.82,65.84C2402.62,2232.34,2373.09,2261.86,2336.8,2261.86z M1774.21,2229.01h562.59
					c18.17,0,32.96-14.79,32.96-32.96c0-18.19-14.79-32.99-32.96-32.99h-562.59V2229.01z"/>
			</g>
			<g>
				<circle class="st12" cx="1757.79" cy="2196.04" r="49.39"/>
			</g>
			<g class="st3">
				<path class="st4" d="M1807.19,2196.06c0,27.27-22.14,49.37-49.41,49.37s-49.37-22.1-49.37-49.37c0-6.57,1.27-12.85,3.61-18.6
					c7.35,18.07,25.05,30.8,45.75,30.8s38.44-12.73,45.75-30.8C1805.91,2183.2,1807.19,2189.49,1807.19,2196.06z"/>
			</g>
			<g>
				<path class="st4" d="M1757.79,2261.86c-36.29,0-65.82-29.53-65.82-65.82s29.53-65.82,65.82-65.82
					c36.29,0,65.82,29.53,65.82,65.82S1794.08,2261.86,1757.79,2261.86z M1757.79,2163.07c-18.18,0-32.96,14.79-32.96,32.96
					s14.79,32.96,32.96,32.96c18.18,0,32.96-14.79,32.96-32.96S1775.96,2163.07,1757.79,2163.07z"/>
			</g>
		</g>
		<g>
			<path class="st2" d="M2124.53,2146.64c0,0,20.05,13.09,34.07,71.85c8.02,33.61,200.28,54.82,239.04-3.15
				c35.39-52.93,9.9-149.82-65.43-178.7c-70.78-27.13-285.11-27.13-331.18,106.14L2124.53,2146.64z"/>
		</g>
		<g class="st3">
			<path class="st4" d="M2410.6,2184.48c-2.55,11.21-6.86,21.69-12.98,30.84c-38.73,57.99-231.02,36.76-239.03,3.16
				c-14-58.77-34.09-71.83-34.09-71.83l-71.58-2.26c30.6-21.44,67.48-41.97,89.37-35.4c28.05,8.46,25.68,27.99,45.92,80.59
				C2201.51,2224.14,2354.01,2226.28,2410.6,2184.48z"/>
		</g>
		<g>
			<path class="st4" d="M2282.26,2267.99c-23.82,0-47-2.25-66.13-5.68c-44.34-7.95-69.08-21.42-73.51-40.01
				c-6.6-27.65-14.41-43.73-19.79-52.35c-2.77-4.43-7.48-7.16-12.61-7.32l-56.02-1.76c-19.23-0.6-35.74-12.04-43.11-29.86
				c-7.31-17.69-3.73-37.32,9.36-51.21c80.73-85.7,252.18-83.61,317.64-58.51c39.95,15.31,70.74,48.91,84.49,92.16
				c12.7,39.96,8.48,81.46-11.28,111.01C2389.4,2257.22,2334.35,2267.99,2282.26,2267.99z M2174.32,2213.6
				c7.35,8.44,54.82,22.56,114.19,21.49c47.58-0.91,84.16-11.98,95.47-28.89c14.04-21.01,16.83-52.73,7.28-82.8
				c-10.7-33.68-34.37-59.71-64.94-71.43c-51.53-19.76-209.61-26.45-281.96,50.36c-6.18,6.56-3.79,14-2.91,16.13
				c0.9,2.17,4.54,9.28,13.77,9.57l56.02,1.76c16.11,0.51,30.85,9.01,39.44,22.75C2160.28,2167.88,2168.23,2188.42,2174.32,2213.6z
				 M2174.58,2214.67h0.05H2174.58z M2173.98,2213.18"/>
		</g>
		<g>
			<path class="st2" d="M1680.41,2221.75c0,0,8.32-93.02,81.2-95.74c72.88-2.72,70.06,81.37,85.85,102.54
				c15.79,21.18,142.47,24.38,187.9,15.04c58.48-12.02,109.5-152.32-81.68-202.6c-203.23-53.45-367.74,99.83-483,67.56
				c-86.42-24.19-106.38-151.15-106.38-151.15l-111.93,253.86L1680.41,2221.75z"/>
		</g>
		<g class="st3">
			<path class="st4" d="M2088.49,2164.84c-0.04,39.47-25.79,73.15-53.14,78.77c-45.42,9.32-172.12,6.12-187.89-15.07
				c-15.77-21.15-12.98-105.26-85.84-102.55c-72.9,2.75-81.2,95.77-81.2,95.77h0c-9.19-0.23-7.98-7.93-5.42-16.77
				c15.65-53.92,37.97-116.77,93.27-115.11c72.9,2.14,85.96,63.92,101.73,85.11c15.81,21.15,132.7,31.41,178.12,22.08
				C2063.52,2193.92,2078.43,2181.85,2088.49,2164.84z"/>
		</g>
		<g>
			<path class="st4" d="M1369.7,1956.56c13.73,27.32,25.46,54.17,40.05,78.21c14.85,23.71,33.17,44.41,56.76,54.41
				c11.58,5.1,24.93,7.32,38.53,7.43c13.67,0.12,27.79-1.89,41.93-4.89c28.35-6.07,56.81-15.96,85.5-25.98
				c28.7-10.1,57.79-20.42,87.63-29.24c29.89-8.65,60.5-16.09,91.96-19.9c62.76-8.39,128.53-1.47,188.05,22.53
				c14.98,6.02,29.7,13.34,43.49,22.76c13.78,9.33,26.76,20.66,37.39,34.52c10.74,13.72,18.42,30.44,21.97,48.08
				c3.36,17.7,2.26,36.24-3.29,53.33c-5.53,17.08-15.07,32.98-29.27,45.43c-7.1,6.17-15.47,11.51-25.34,14.71
				c-2.42,0.67-5.24,1.51-7.38,1.92c-2.1,0.39-4.23,0.81-6.27,1.1c-4.14,0.67-8.16,1.16-12.17,1.58
				c-31.91,3.13-62.86,2.97-94.26,1.08c-15.69-1.05-31.37-2.61-47.47-5.66c-8.09-1.6-16.21-3.45-25.11-6.95
				c-4.56-2.05-9.28-3.88-15.11-9.31c-3.32-3.33-4.87-6.01-6.21-8.45c-1.4-2.52-2.34-4.76-3.24-6.97
				c-3.39-8.68-5.23-16.11-7.39-23.41c-2.08-7.21-4.13-14.13-6.55-20.58c-4.78-12.91-11.14-24.06-19.64-30.77
				c-8.3-6.86-19.36-9.52-32.03-9.1c-12.41,0.51-23.25,5.07-32.04,12.55c-8.87,7.4-16.49,17.55-23.21,29.24
				c-6.9,11.58-13.32,24.61-21.11,38l-0.26,0.44c-1.62,2.78-5.18,3.72-7.96,2.1c-1.38-0.8-2.31-2.09-2.69-3.52
				c-2.31-8.59-2.58-16.78-2.14-25.2c0.56-8.35,2.2-16.68,5-24.81c5.66-16.07,15.38-32.16,30.58-43.73
				c7.5-5.77,16.17-10.25,25.18-13.19c9.02-2.96,18.34-4.4,27.42-4.76c8.95-0.25,18.32,0.45,27.67,3.03
				c9.32,2.53,18.52,7.07,26.14,13.3c7.67,6.17,13.84,13.66,18.61,21.37c4.75,7.74,8.31,15.69,11.26,23.53
				c2.94,7.84,5.21,15.58,7.36,23.02c2.13,7.34,4.1,14.72,6.31,20.25c0.54,1.33,1.09,2.61,1.56,3.42c0.43,0.94,1.01,1.46,0.43,0.8
				c-0.28-0.14,2.03,1.35,4.45,2.29c5.31,2.1,12.1,3.8,18.97,5.13c13.89,2.64,28.63,4.16,43.38,5.13
				c29.49,1.81,59.78,1.9,88.63-0.97c3.58-0.37,7.13-0.81,10.52-1.36c1.74-0.24,3.36-0.57,5-0.88c1.61-0.31,2.42-0.69,3.69-0.96
				c4.67-1.5,9.51-4.41,13.88-8.24c8.84-7.66,15.75-18.76,19.54-30.68c3.88-11.95,4.61-24.79,2.31-37.07
				c-2.54-12.23-7.74-24.07-15.85-34.38c-7.97-10.38-18.19-19.45-29.65-27.2c-11.41-7.82-24.17-14.22-37.49-19.55
				c-53.85-21.63-113.4-28.13-171.55-20.36c-29.18,3.51-58.09,10.51-86.79,18.82c-28.7,8.48-57.17,18.57-86.03,28.73
				c-28.9,10.06-58.22,20.37-89.59,27.12c-15.68,3.32-31.95,5.68-48.84,5.63c-16.84-0.06-34.3-2.31-51.01-8.8
				c-16.68-6.27-31.62-16.4-43.96-28.41c-6.13-6.06-11.63-12.58-16.64-19.36c-4.84-6.88-9.34-13.89-13.17-21.21
				c-7.67-14.59-13.71-29.75-17.29-45.45c-3.47-15.74-5.58-31.53-3.96-48c0.31-3.11,3.07-5.38,6.18-5.07
				c1.99,0.2,3.63,1.4,4.48,3.05L1369.7,1956.56z"/>
		</g>
	</g>
</g>
</svg>
