<?xml version="1.0" encoding="utf-8"?>
<!-- Generator: Adobe Illustrator 24.0.1, SVG Export Plug-In . SVG Version: 6.00 Build 0)  -->
<svg version="1.1" id="Camada_1" xmlns="http://www.w3.org/2000/svg" xmlns:xlink="http://www.w3.org/1999/xlink" x="0px" y="0px"
	 viewBox="0 0 288 71.6" style="enable-background:new 0 0 288 71.6;" xml:space="preserve">
<style type="text/css">
	.st0{fill:#423A8E;}
	.st1{fill:#ED8117;}
	.st2{enable-background:new    ;}
	.st3{display:none;clip-path:url(#SVGID_2_);fill-rule:evenodd;clip-rule:evenodd;fill:#C12025;}
	.st4{clip-path:url(#SVGID_4_);}
	.st5{fill-rule:evenodd;clip-rule:evenodd;fill:url(#SVGID_5_);}
	.st6{fill-rule:evenodd;clip-rule:evenodd;fill:url(#SVGID_6_);}
	.st7{fill:url(#SVGID_7_);}
	.st8{fill:url(#SVGID_8_);}
	.st9{fill:url(#SVGID_9_);}
	.st10{fill:url(#SVGID_10_);}
	.st11{fill:url(#SVGID_11_);}
	.st12{fill-rule:evenodd;clip-rule:evenodd;fill:#FFFFFF;}
	
		.st13{display:none;opacity:0.29;clip-path:url(#SVGID_13_);fill-rule:evenodd;clip-rule:evenodd;fill:#BB6C22;enable-background:new    ;}
	.st14{opacity:0.35;clip-path:url(#SVGID_15_);fill-rule:evenodd;clip-rule:evenodd;fill:#BB6C22;enable-background:new    ;}
</style>
<g>
	<g>
		<g>
			<path class="st0" d="M95.8,18.7h10.6V23H95.8c-0.7,0-1.3,0.2-1.6,0.5c-0.4,0.3-0.6,0.8-0.6,1.4c0,0.6,0.2,1.1,0.6,1.4
				c0.4,0.3,0.9,0.5,1.6,0.5h4.6c2.2,0,3.9,0.5,5.2,1.6c1.2,1.1,1.9,2.6,1.9,4.6s-0.6,3.5-1.9,4.6s-3,1.7-5.2,1.7H89.6v-4.3h10.8
				c0.8,0,1.5-0.2,1.9-0.5s0.6-0.8,0.6-1.5c0-0.7-0.2-1.1-0.6-1.5s-1.1-0.5-1.9-0.5h-4.6c-2.1,0-3.7-0.5-4.8-1.6s-1.8-2.6-1.8-4.5
				c0-1.9,0.6-3.4,1.8-4.5C92.2,19.2,93.8,18.7,95.8,18.7z"/>
			<path class="st0" d="M109.3,24h8.6c1.5,0,2.7,0.3,3.5,1s1.2,1.6,1.2,2.9v2.6c0,1.3-0.4,2.2-1.2,2.9s-1.9,1-3.5,1h-4.8v4.9h-3.8
				V24z M113.1,27.7v2.8h4.4c0.5,0,0.8-0.1,0.9-0.2s0.2-0.4,0.2-0.7v-1c0-0.3-0.1-0.6-0.3-0.7c-0.2-0.1-0.5-0.2-0.9-0.2L113.1,27.7
				L113.1,27.7z"/>
			<path class="st0" d="M134.2,26.7l4.2,12.4h-4l-3.4-10.9c-0.1-0.3-0.2-0.4-0.3-0.5c-0.1-0.1-0.3-0.2-0.5-0.2
				c-0.2,0-0.3,0.1-0.4,0.2c-0.1,0.1-0.2,0.3-0.3,0.6L126,39.1h-4l4.1-12.5c0.3-1,0.8-1.7,1.5-2.2s1.5-0.8,2.5-0.8
				c1,0,1.8,0.3,2.5,0.7C133.3,25,133.8,25.7,134.2,26.7z"/>
			<path class="st0" d="M143.5,24h6.7v3.7h-6.1c-0.6,0-1.1,0.2-1.4,0.5s-0.5,0.8-0.5,1.4v3.8c0,0.6,0.2,1.1,0.5,1.4
				c0.3,0.3,0.8,0.5,1.4,0.5h6.1v3.7h-6.7c-1.6,0-2.9-0.5-3.8-1.3c-0.9-0.9-1.3-2.2-1.3-3.8v-4.9c0-1.6,0.4-2.9,1.3-3.8
				C140.6,24.4,141.8,24,143.5,24z"/>
			<path class="st0" d="M157.3,24h7.5v3.7h-7.3c-0.6,0-0.9,0.1-1.1,0.3s-0.3,0.5-0.3,1v0.7h8.7v3.7h-8.7v0.8c0,0.5,0.1,0.9,0.3,1
				s0.5,0.2,1.1,0.2h7.3v3.7h-7.5c-1.8,0-3.1-0.4-3.8-1.1s-1.2-2-1.2-3.8v-5.3c0-1.7,0.4-3,1.2-3.8C154.2,24.4,155.5,24,157.3,24z"
				/>
		</g>
		<g>
			<path class="st1" d="M168,18.5h11.5c2,0,3.6,0.4,4.6,1.1s1.6,1.8,1.6,3.2v2.2c0,1-0.4,1.7-1.1,2.3c-0.7,0.6-1.7,0.9-2.9,0.9
				c1.3,0.1,2.4,0.4,3.1,1.1s1.1,1.5,1.1,2.7v2.4c0,1.4-0.5,2.5-1.6,3.3c-1.1,0.7-2.6,1.1-4.6,1.1H168L168,18.5L168,18.5z
				 M172.3,22.7v12.1h6.8c0.9,0,1.6-0.2,2-0.5s0.6-0.9,0.6-1.7c0-0.8-0.2-1.4-0.6-1.7c-0.4-0.3-1-0.5-2-0.5h-4.7v-3.8h4.6
				c0.9,0,1.5-0.1,1.9-0.4s0.5-0.8,0.5-1.5s-0.2-1.2-0.5-1.5c-0.4-0.3-1-0.4-1.9-0.4C179,22.7,172.3,22.7,172.3,22.7z"/>
			<path class="st1" d="M202.7,23.8V34c0,1.6-0.4,2.9-1.3,3.8s-2.1,1.3-3.8,1.3h-4.2c-1.6,0-2.9-0.5-3.8-1.3s-1.3-2.1-1.3-3.8V23.8
				h3.8v9.7c0,0.6,0.2,1.1,0.5,1.4s0.8,0.5,1.4,0.5h3c0.6,0,1.1-0.2,1.4-0.5c0.3-0.3,0.5-0.8,0.5-1.4v-9.7
				C198.9,23.8,202.7,23.8,202.7,23.8z"/>
			<path class="st1" d="M205.2,23.8h8.5c1.6,0,2.9,0.3,3.7,0.9s1.2,1.5,1.2,2.7v1.7c0,0.8-0.1,1.4-0.4,1.8s-0.8,0.7-1.4,0.9
				c0.4,0.1,0.7,0.3,1,0.6c0.2,0.3,0.4,0.8,0.6,1.4l1.1,5h-4l-0.8-3.9c-0.1-0.5-0.2-0.8-0.4-1s-0.5-0.4-0.8-0.4h-3v-3.5h3.3
				c0.4,0,0.7-0.1,0.9-0.2c0.2-0.1,0.3-0.3,0.3-0.6v-0.9c0-0.3-0.1-0.5-0.3-0.6c-0.2-0.1-0.5-0.2-0.8-0.2H209v11.3h-3.8L205.2,23.8
				L205.2,23.8z"/>
			<path class="st1" d="M225.4,23.8h8v3.7h-7.8c-0.5,0-0.8,0.1-1.1,0.3s-0.3,0.6-0.3,1v4.9c0,0.5,0.1,0.8,0.3,1s0.6,0.3,1.1,0.3h4.6
				v-1.9h-2.8v-3.6h6.6v9.2h-8.6c-1.5,0-2.8-0.4-3.6-1.3c-0.9-0.9-1.3-2.1-1.3-3.6v-5.3c0-1.5,0.4-2.7,1.3-3.6
				C222.7,24.3,223.9,23.8,225.4,23.8z"/>
			<path class="st1" d="M250.9,23.8V34c0,1.6-0.4,2.9-1.3,3.8s-2.1,1.3-3.8,1.3h-4.2c-1.6,0-2.9-0.5-3.8-1.3s-1.3-2.1-1.3-3.8V23.8
				h3.8v9.7c0,0.6,0.2,1.1,0.5,1.4s0.8,0.5,1.4,0.5h3c0.6,0,1.1-0.2,1.4-0.5c0.3-0.3,0.5-0.8,0.5-1.4v-9.7
				C247.1,23.8,250.9,23.8,250.9,23.8z"/>
			<path class="st1" d="M258.2,23.8h7.4v3.7h-7.3c-0.5,0-0.9,0.1-1.1,0.3s-0.3,0.5-0.3,1v0.7h8.6v3.7H257V34c0,0.5,0.1,0.8,0.3,1
				c0.2,0.2,0.5,0.2,1.1,0.2h7.3v3.7h-7.4c-1.8,0-3.1-0.4-3.8-1.1s-1.2-2-1.2-3.8v-5.3c0-1.7,0.4-3,1.2-3.8S256.4,23.8,258.2,23.8z"
				/>
			<path class="st1" d="M268.1,23.8h8.5c1.6,0,2.9,0.3,3.7,0.9s1.2,1.5,1.2,2.7v1.7c0,0.8-0.1,1.4-0.5,1.8c-0.3,0.4-0.8,0.7-1.5,0.9
				c0.4,0.1,0.7,0.3,1,0.6c0.2,0.3,0.4,0.8,0.6,1.4l1.1,5h-4l-0.8-3.9c-0.1-0.5-0.2-0.8-0.4-1s-0.5-0.4-0.8-0.4h-3v-3.5h3.3
				c0.4,0,0.7-0.1,0.9-0.2s0.3-0.3,0.3-0.6v-0.9c0-0.3-0.1-0.5-0.3-0.6c-0.2-0.1-0.5-0.2-0.8-0.2h-4.7v11.3h-3.8L268.1,23.8
				L268.1,23.8z"/>
		</g>
		<g class="st2">
			<path class="st0" d="M114.3,47.8c0.8,0.8,1.3,1.8,1.3,3.2c0,1.4-0.4,2.4-1.2,3.2c-0.8,0.8-2.1,1.2-3.7,1.2h-3v-8.8h3.1
				C112.3,46.7,113.5,47.1,114.3,47.8z M112.9,53c0.5-0.5,0.7-1.1,0.7-2c0-0.9-0.2-1.5-0.7-2c-0.5-0.5-1.2-0.7-2.2-0.7h-1.1v5.3h1.2
				C111.7,53.7,112.4,53.5,112.9,53z"/>
			<path class="st0" d="M134.9,54.5c-0.8,0.7-1.7,1.1-2.7,1.1c-1,0-1.9-0.3-2.5-0.9s-1-1.5-1-2.5c0-1.1,0.3-1.9,1-2.5
				c0.7-0.6,1.5-0.9,2.4-0.9c0.9,0,1.7,0.3,2.4,0.8c0.6,0.6,1,1.3,1,2.3v1h-4.9c0.1,0.4,0.3,0.7,0.6,0.9c0.3,0.2,0.7,0.4,1.1,0.4
				c0.7,0,1.2-0.2,1.6-0.7L134.9,54.5z M133.1,50.5c-0.3-0.2-0.6-0.3-0.9-0.3c-0.4,0-0.7,0.1-1,0.3s-0.5,0.5-0.5,0.9h3
				C133.5,51,133.3,50.7,133.1,50.5z"/>
			<path class="st0" d="M150.7,55.4h-1.9v-9.3h1.9V55.4z"/>
			<path class="st0" d="M164.6,47.8c-0.2-0.2-0.3-0.5-0.3-0.8c0-0.3,0.1-0.6,0.3-0.8s0.5-0.3,0.8-0.3c0.3,0,0.6,0.1,0.8,0.3
				s0.3,0.5,0.3,0.8c0,0.3-0.1,0.6-0.3,0.8s-0.5,0.3-0.8,0.3C165.1,48.1,164.8,48,164.6,47.8z M166.3,55.4h-1.9v-6.7h1.9V55.4z"/>
			<path class="st0" d="M181.9,55.4l-2.7-6.8h2l1.7,4.2l1.7-4.2h2l-2.7,6.8H181.9z"/>
			<path class="st0" d="M205.3,54.5c-0.8,0.7-1.7,1.1-2.7,1.1s-1.9-0.3-2.5-0.9c-0.7-0.6-1-1.5-1-2.5c0-1.1,0.3-1.9,1-2.5
				c0.7-0.6,1.5-0.9,2.4-0.9s1.7,0.3,2.4,0.8c0.6,0.6,1,1.3,1,2.3v1h-4.9c0.1,0.4,0.3,0.7,0.6,0.9c0.3,0.2,0.7,0.4,1.1,0.4
				c0.7,0,1.2-0.2,1.6-0.7L205.3,54.5z M203.5,50.5c-0.3-0.2-0.6-0.3-0.9-0.3s-0.7,0.1-1,0.3c-0.3,0.2-0.5,0.5-0.5,0.9h3
				C203.9,51,203.7,50.7,203.5,50.5z"/>
			<path class="st0" d="M222.7,50.3c-0.6,0-1,0.2-1.3,0.6c-0.3,0.4-0.4,0.9-0.4,1.6v2.9h-1.9v-6.7h1.9v0.9c0.2-0.3,0.5-0.5,0.9-0.7
				s0.7-0.3,1.1-0.3l0,1.8H222.7z"/>
			<path class="st0" d="M237.5,58.1c-0.7,0-1.3-0.3-1.9-0.8l0.9-1.4c0.3,0.3,0.6,0.5,1,0.5c0.2,0,0.3-0.1,0.5-0.3
				c0.1-0.2,0.2-0.4,0.2-0.5c0-0.2-0.9-2.5-2.6-6.9h2l1.6,4.2l1.6-4.2h2l-3.1,7.9c-0.2,0.5-0.5,0.8-0.9,1.1
				C238.4,58,237.9,58.1,237.5,58.1z"/>
		</g>
	</g>
	<g>
		<g>
			<g>
				<defs>
					<circle id="SVGID_1_" cx="47.4" cy="34.8" r="20.8"/>
				</defs>
				<clipPath id="SVGID_2_">
					<use xlink:href="#SVGID_1_"  style="overflow:visible;"/>
				</clipPath>
				<circle class="st3" cx="170.7" cy="-141.6" r="38.9"/>
			</g>
			<g>
				<defs>
					<circle id="SVGID_3_" cx="47.4" cy="34.8" r="20.8"/>
				</defs>
				<clipPath id="SVGID_4_">
					<use xlink:href="#SVGID_3_"  style="overflow:visible;"/>
				</clipPath>
				<g class="st4">
					<g>
						<g>
							
								<linearGradient id="SVGID_5_" gradientUnits="userSpaceOnUse" x1="21.79" y1="49.3409" x2="70.9644" y2="49.3409" gradientTransform="matrix(1 0 0 -1 0 74)">
								<stop  offset="0" style="stop-color:#FFFFFF"/>
								<stop  offset="1" style="stop-color:#000000"/>
							</linearGradient>
							<path class="st5" d="M70.5,21.7C59.4,4.8,22.9,14.6,21.8,34.4c0.1,1.2,0.8,2.2,2.7,1.8c4-0.6,13-2.9,21.9-5.1
								c9.3-2.3,18.7-4.6,22.7-6C71.4,24.2,71.2,23,70.5,21.7L70.5,21.7z"/>
							
								<linearGradient id="SVGID_6_" gradientUnits="userSpaceOnUse" x1="23.9073" y1="35.9781" x2="73.4827" y2="35.9781" gradientTransform="matrix(1 0 0 -1 0 74)">
								<stop  offset="0" style="stop-color:#FFFFFF"/>
								<stop  offset="1" style="stop-color:#000000"/>
							</linearGradient>
							<path class="st6" d="M69.2,29.3C54.8,33.2,40.9,36,26.5,40c-1.8,0.5-3,2.3-2.5,4.2l0,0c0.5,1.8,2.3,3,4.2,2.5
								c14.3-4.1,28.5-6.5,42.7-10.7c1.8-0.5,3-2.3,2.5-4.2l0,0C72.9,30,71.1,28.9,69.2,29.3L69.2,29.3z"/>
						</g>
						<g>
							
								<linearGradient id="SVGID_7_" gradientUnits="userSpaceOnUse" x1="-48.3349" y1="-60.9026" x2="5.5986" y2="-60.9026" gradientTransform="matrix(1 0 0 -1 70.1249 -36.2435)">
								<stop  offset="0" style="stop-color:#F18936"/>
								<stop  offset="1" style="stop-color:#ED8117"/>
							</linearGradient>
							<path class="st7" d="M70.5,21.7C59.4,4.8,22.9,14.6,21.8,34.4c0.1,1.2,0.8,2.2,2.7,1.8c4-0.6,13-2.9,21.9-5.1
								c9.3-2.3,18.7-4.6,22.7-6C71.4,24.2,71.2,23,70.5,21.7L70.5,21.7z"/>
							
								<linearGradient id="SVGID_8_" gradientUnits="userSpaceOnUse" x1="-48.3357" y1="-68.9235" x2="5.5978" y2="-68.9235" gradientTransform="matrix(1 0 0 -1 70.1249 -36.2435)">
								<stop  offset="0" style="stop-color:#F18936"/>
								<stop  offset="1" style="stop-color:#ED8117"/>
							</linearGradient>
							<path class="st8" d="M70.6,26c-15.5,3.7-32.7,8.5-46.9,11.7c-0.5,0.1-0.8,0.6-0.6,1.1l0,0c0.1,0.5,0.6,0.8,1.1,0.7
								c15.4-4.1,31.4-7.6,46.9-11.7c0.5-0.1,0.8-0.6,0.6-1.1l0,0C71.5,26.1,71.1,25.8,70.6,26L70.6,26z"/>
							
								<linearGradient id="SVGID_9_" gradientUnits="userSpaceOnUse" x1="-48.3357" y1="-74.2654" x2="5.5978" y2="-74.2654" gradientTransform="matrix(1 0 0 -1 70.1249 -36.2435)">
								<stop  offset="0" style="stop-color:#F18936"/>
								<stop  offset="1" style="stop-color:#ED8117"/>
							</linearGradient>
							<path class="st9" d="M69.2,29.3C54.8,33.2,40.9,36,26.5,40c-1.8,0.5-3,2.3-2.5,4.2l0,0c0.5,1.8,2.3,3,4.2,2.5
								c14.3-4.1,28.5-6.5,42.7-10.7c1.8-0.5,3-2.3,2.5-4.2l0,0C72.9,30,71.1,28.9,69.2,29.3L69.2,29.3z"/>
							
								<linearGradient id="SVGID_10_" gradientUnits="userSpaceOnUse" x1="-48.3357" y1="-86.8084" x2="5.5978" y2="-86.8084" gradientTransform="matrix(1 0 0 -1 70.1249 -36.2435)">
								<stop  offset="0" style="stop-color:#F18936"/>
								<stop  offset="1" style="stop-color:#ED8117"/>
							</linearGradient>
							<path class="st10" d="M74.3,41.9L27.9,53.4c-2.6,0.7,1.1,6.8,9.1,5.7c10-1.4,21.6-4.5,32-8C76.3,48.5,76.9,41.3,74.3,41.9
								L74.3,41.9z"/>
							
								<linearGradient id="SVGID_11_" gradientUnits="userSpaceOnUse" x1="-48.3357" y1="-79.7975" x2="5.5978" y2="-79.7975" gradientTransform="matrix(1 0 0 -1 70.1249 -36.2435)">
								<stop  offset="0" style="stop-color:#F18936"/>
								<stop  offset="1" style="stop-color:#ED8117"/>
							</linearGradient>
							<path class="st11" d="M64.3,39.6c-1.7-0.2-3,0-4.5,0.8c-0.9,0.5-1.7,1.1-2.6,1.5c-1.2,0.5-2.5,0.6-3.7,0.6h0h0
								c-1.4,0-2.8,0.2-4.1,0.6c-0.9,0.3-1.7,0.7-2.5,1.2c-0.7,0.4-1.3,0.7-2.2,0.9c-1.7-0.1-3.9-0.3-5.5,0.4
								c-0.8,0.3-1.6,0.9-2.4,1.3l0,0l0,0c-1.4,0.8-2.8,1.3-4.4,1.3c-1.2,0-2.3-0.3-3.5-0.4c-0.4,0-0.8,0-1.2,0
								c-2.2,0.2-2,2.8,0.2,2.7c0.3,0,0.5,0,0.8,0c0.5,0,1.1,0.1,1.6,0.2c0.7,0.1,1.4,0.2,2.1,0.2c2.1,0,3.9-0.7,5.7-1.6
								c0.5-0.2,1-0.5,1.5-0.8c0.3-0.2,0.6-0.3,0.8-0.5c2.9-1.3,3.3,1.1,7.9-1.4c0.7-0.4,1.3-0.7,2.1-1c1-0.3,2.1-0.5,3.2-0.5
								c1.7,0.1,3.4-0.1,5-0.8c1-0.5,1.8-1.1,2.8-1.6c1-0.5,1.7-0.6,2.8-0.4l0.1,0h0.1c1.8,0.1,3.8,0.2,5.5-0.5c1.5-0.6,2.8-1.9,4-3
								c1.6-1.5-0.2-3.4-1.9-2C68.6,39.6,68.5,39.8,64.3,39.6L64.3,39.6z"/>
						</g>
					</g>
					<path class="st12" d="M61.8,19.2c0.2,0.7,0.3,0.6,0.9,0.5s0.3-0.5,0.1-1.2C62.5,17.4,61.4,17.7,61.8,19.2L61.8,19.2z
						 M60.8,22.3c-0.7-0.2-1.9,0.6,0.1,1.3C61.9,23.9,62.3,22.8,60.8,22.3L60.8,22.3z M56.8,17c-0.5-0.2-1.4,0.4,0,0.9
						C57.7,18.3,57.9,17.4,56.8,17L56.8,17z M31.1,27c-0.1-0.6-1.3-1.1-0.9,0.6C30.5,28.6,31.5,28.3,31.1,27L31.1,27z M36,28.5
						c-0.5-0.3-1.7,0.2-0.1,1.1C36.7,30.1,37.2,29.2,36,28.5L36,28.5z M41.8,26.3c-0.1-0.6-1.2-1.3-1,0.5
						C40.9,27.8,41.9,27.6,41.8,26.3L41.8,26.3z M46.5,21.4c0,0.5,0.8,1.3,0.9-0.3C47.4,20.3,46.6,20.2,46.5,21.4L46.5,21.4z
						 M49.4,17.3c0,0.6,0.9,1.4,1-0.3C50.5,16,49.5,16,49.4,17.3L49.4,17.3z M32.5,23c0.5,0.3,1.5-0.1,0.2-0.9
						C32,21.6,31.6,22.3,32.5,23L32.5,23z M41.7,21.4c-0.3,0.1-0.5,0.5-0.4,0.9c0.1,0.4,0.5,0.7,0.8,0.6c0.3-0.1,0.5-0.5,0.4-0.9
						C42.4,21.5,42.1,21.3,41.7,21.4L41.7,21.4z M37.1,19.2c-0.3,0.1-0.5,0.5-0.4,1c0.1,0.5,0.5,0.8,0.8,0.7c0.3-0.1,0.5-0.5,0.4-1
						C37.8,19.5,37.5,19.2,37.1,19.2L37.1,19.2z M54.4,21.1c-0.2,0.2-0.1,0.6,0.1,0.8s0.6,0.3,0.8,0.1c0.2-0.2,0.1-0.6-0.1-0.8
						C54.9,21,54.6,20.9,54.4,21.1L54.4,21.1z M52.5,24.9c-0.2,0.2-0.1,0.6,0.1,0.8s0.6,0.3,0.8,0.1c0.2-0.2,0.1-0.6-0.1-0.8
						C53.1,24.8,52.7,24.7,52.5,24.9L52.5,24.9z M43.8,18.1c0,0.5,0.8,1.3,0.9-0.3C44.7,17,43.9,16.9,43.8,18.1L43.8,18.1z M46,26.5
						c0.1,0.3,0.5,0.3,0.8,0.2c0.3-0.1,0.5-0.4,0.5-0.7s-0.5-0.3-0.8-0.2S46,26.3,46,26.5L46,26.5z M35,24.5
						c-0.2,0.2-0.1,0.6,0.1,0.8s0.6,0.3,0.8,0.1c0.2-0.2,0.1-0.6-0.1-0.8C35.5,24.4,35.2,24.3,35,24.5L35,24.5z M28,30.5
						c-0.2,0.2-0.1,0.6,0.1,0.8s0.6,0.3,0.8,0.1c0.2-0.2,0.1-0.6-0.1-0.8C28.5,30.4,28.2,30.4,28,30.5L28,30.5z"/>
				</g>
			</g>
			<g>
				<defs>
					<circle id="SVGID_12_" cx="47.4" cy="34.8" r="20.8"/>
				</defs>
				<clipPath id="SVGID_13_">
					<use xlink:href="#SVGID_12_"  style="overflow:visible;"/>
				</clipPath>
				<path class="st13" d="M203.9-175.9c-1.6,7.4-4.6,16-10.7,23.5C179-134.8,154-130,128.8-138.9c1,8.4,3.8,13.8,6.4,17.2
					c13.6,18.3,49.3,20.2,65.3-2.6C209.9-137.7,210.8-157.7,203.9-175.9z"/>
			</g>
			<g>
				<defs>
					<circle id="SVGID_14_" cx="47.4" cy="34.8" r="20.8"/>
				</defs>
				<clipPath id="SVGID_15_">
					<use xlink:href="#SVGID_14_"  style="overflow:visible;"/>
				</clipPath>
				<path class="st14" d="M71.1,21C56.2,35.8,41.6,42.6,30,45.9c-1,0.3-2,0.5-3,0.8c3.1,3.2,9,8.1,17.5,10.5
					c13,3.5,33.2,1.2,37.2-10.9C84.2,38.5,79.4,28.5,71.1,21z"/>
			</g>
		</g>
		<path class="st0" d="M81.7,22.2c-0.2-0.6-0.6-1.2-1-1.7l-0.3-0.3L80,19.9c-0.2-0.2-0.4-0.3-0.7-0.5c-0.9-0.5-1.8-0.8-2.7-1
			c-1.8-0.4-3.5-0.5-5.2-0.6c-3.4,0-6.7,0.3-9.9,0.8c-0.1,0-0.2,0-0.2,0c1,0.7,1.8,1.6,2.6,2.5c2.5-0.2,5-0.4,7.4-0.2
			c1.5,0.1,3.1,0.3,4.4,0.6c0.7,0.2,1.3,0.4,1.8,0.7c0.5,0.3,0.7,0.6,0.8,0.8c0,0.2,0,0.6-0.2,1.1c-0.2,0.5-0.6,1-1.1,1.5
			c-1,1-2.1,2-3.4,2.9c-2.5,1.8-5.3,3.3-8.1,4.6c-5.7,2.7-11.6,5-17.7,7c-6,2-12.1,3.9-18.4,5.3c-3.1,0.7-6.3,1.2-9.5,1.2
			c-1.6,0-3.2-0.1-4.7-0.4c-0.8-0.2-1.5-0.4-2.2-0.8s-1.2-0.9-1.5-1.6c-0.2-0.7-0.1-1.5,0.3-2.2c0.3-0.7,0.8-1.4,1.3-2
			c1.1-1.2,2.3-2.2,3.6-3.2c2.6-1.9,5.5-3.4,8.4-4.7c0.4-0.2,0.8-0.3,1.1-0.5c0.2-0.5,0.4-1,0.7-1.5c-0.8,0.4-1.5,0.8-2.2,1.2
			c-2.9,1.6-5.6,3.3-8.2,5.2c-1.3,1-2.5,2-3.6,3.3c-0.5,0.6-1,1.3-1.4,2c-0.4,0.8-0.6,1.6-0.3,2.5c0.3,0.8,0.9,1.5,1.6,1.9
			c0.7,0.5,1.5,0.8,2.3,1c1.6,0.5,3.2,0.7,4.9,0.8c3.3,0.3,6.6,0.2,9.8,0c6.6-0.4,13.1-1.6,19.4-3.4c6.3-1.8,12.5-4.2,18.3-7.3
			c2.9-1.6,5.8-3.3,8.5-5.3c1.3-1,2.7-2.2,3.8-3.6c0.6-0.7,1.2-1.5,1.6-2.5c0.1-0.2,0.2-0.5,0.3-0.8l0.1-0.4l0.1-0.5
			C81.9,23.6,81.8,22.9,81.7,22.2z"/>
	</g>
</g>
</svg>
