<?xml version="1.0" encoding="utf-8"?>
<!-- Generator: Adobe Illustrator 24.0.1, SVG Export Plug-In . SVG Version: 6.00 Build 0)  -->
<svg version="1.1" id="Camada_1" xmlns="http://www.w3.org/2000/svg" xmlns:xlink="http://www.w3.org/1999/xlink" x="0px" y="0px"
	 viewBox="0 0 1280 357" style="enable-background:new 0 0 1280 357;" xml:space="preserve">
<style type="text/css">
	.st0{fill:#4621B0;}
	.st1{display:none;clip-path:url(#SVGID_2_);fill-rule:evenodd;clip-rule:evenodd;fill:#C12025;}
	.st2{clip-path:url(#SVGID_2_);}
	.st3{fill-rule:evenodd;clip-rule:evenodd;fill:#ED8218;}
	.st4{fill-rule:evenodd;clip-rule:evenodd;fill:#FFFFFF;}
	.st5{fill:#FFFFFF;}
	.st6{fill:#FCFCFC;}
	.st7{fill:#ED8218;}
	.st8{font-family:'Montserrat-Bold';}
	.st9{font-size:37.8909px;}
	.st10{letter-spacing:37;}
</style>
<path class="st0" d="M-99.87,214.18h-204.54c-15.39,0-27.87-12.48-27.87-27.87V-18.24c0-15.39,12.48-27.87,27.87-27.87h204.54
	C-84.48-46.11-72-33.63-72-18.24v204.54C-72,201.7-84.48,214.18-99.87,214.18z"/>
<g>
	<g>
		<g>
			<defs>
				<circle id="SVGID_1_" cx="220.76" cy="172.57" r="112.56"/>
			</defs>
			<clipPath id="SVGID_2_">
				<use xlink:href="#SVGID_1_"  style="overflow:visible;"/>
			</clipPath>
			<circle class="st1" cx="230.72" cy="180.7" r="121.66"/>
			<g class="st2">
				<path class="st3" d="M345.76,102C285.71,10.91,88.43,63.74,82.58,170.5c0.77,6.36,4.04,11.9,14.48,9.78
					c21.69-3.47,69.97-15.62,118.49-27.64c50.21-12.44,100.69-24.83,122.37-32.62C350.72,115.43,349.15,108.8,345.76,102L345.76,102
					z"/>
				<path class="st3" d="M346.09,125.06c-83.55,20.21-176.44,45.68-253.1,63.12c-2.55,0.64-4.1,3.29-3.45,5.9l0,0
					c0.65,2.61,3.27,4.22,5.81,3.59c82.91-21.94,169.42-40.99,253.1-63.12c2.55-0.64,4.1-3.29,3.45-5.9l0,0
					C351.25,126.04,348.64,124.42,346.09,125.06L346.09,125.06z"/>
				<path class="st3" d="M338.68,143.29c-77.69,20.84-152.9,35.82-230.6,57.51c-9.91,2.47-15.97,12.67-13.48,22.67l0,0
					c2.49,10,12.64,16.16,22.54,13.69c76.96-22.13,154.13-35.08,230.6-57.51c9.9-2.47,15.97-12.67,13.48-22.67l0,0
					C358.73,146.98,348.59,140.82,338.68,143.29L338.68,143.29z"/>
				<path class="st3" d="M366.16,211.23l-250.57,62.17c-14.11,3.5,6.04,36.5,49.34,30.86c53.91-7.75,116.7-24.22,172.76-43.08
					C376.9,246.76,380.42,207.69,366.16,211.23L366.16,211.23z"/>
				<path class="st3" d="M312.35,198.7c-8.94-1.29-16.48-0.19-24.5,4.14c-4.74,2.56-9.01,5.85-13.97,8.03
					c-6.45,2.84-13.22,3.41-20.19,3.04l-0.28-0.01l-0.28,0c-7.49,0.14-14.99,1.04-22.12,3.47c-4.94,1.69-9.06,3.95-13.59,6.43
					c-3.92,2.15-7.31,3.77-11.61,4.74c-9.32-0.75-21.02-1.74-29.69,1.99c-4.4,1.89-8.59,4.69-13.03,6.75l-0.23,0.11l-0.22,0.12
					c-7.42,4.03-15.19,6.96-23.73,6.97c-6.4,0-12.52-1.63-18.86-2.14c-2.22-0.18-4.44-0.22-6.66-0.06
					c-11.88,0.85-11.02,15.41,0.86,14.56c1.44-0.1,2.88-0.06,4.31,0.05c2.93,0.24,5.86,0.77,8.76,1.21
					c3.78,0.57,7.5,0.98,11.35,0.98c11.14-0.01,21.24-3.49,30.94-8.74c2.68-1.25,5.25-2.6,7.82-4.05c1.49-0.83,3.03-1.75,4.6-2.43
					c15.64-6.74,18.05,6.08,42.62-7.38c3.69-2.02,7.13-3.98,11.14-5.35c5.48-1.87,11.35-2.51,17.1-2.63
					c9.36,0.47,18.35-0.54,27.01-4.36c5.58-2.46,9.88-5.77,15.09-8.58c5.15-2.78,9.4-3.26,15.18-2.39l0.38,0.06l0.38,0.02
					c9.49,0.48,20.51,1.11,29.48-2.64c7.88-3.29,15.1-10.33,21.39-15.92c8.84-7.86-1.23-18.56-10.07-10.69
					C335.14,198.79,335,199.84,312.35,198.7L312.35,198.7z"/>
				<path class="st4" d="M298.5,88.67c0.91,3.66,1.4,3.44,4.97,2.55s1.45-2.86,0.54-6.52C302.51,78.67,296.45,80.47,298.5,88.67
					L298.5,88.67z M293.26,105.01c-3.74-1.3-10.27,3.22,0.36,6.92C299.39,113.94,301.11,107.74,293.26,105.01L293.26,105.01z
					 M271.86,76.98c-2.72-0.95-7.48,2.35,0.26,5.04C276.32,83.48,277.58,78.97,271.86,76.98L271.86,76.98z M133,130.84
					c-0.83-3.35-7.06-6.14-4.7,3.39C129.59,139.41,134.75,137.88,133,130.84L133,130.84z M159.49,138.83
					c-2.95-1.71-9.16,0.98-0.77,5.84C163.28,147.31,165.69,142.42,159.49,138.83L159.49,138.83z M190.52,126.99
					c-0.39-3.43-6.2-7.04-5.1,2.71C186.01,135,191.33,134.19,190.52,126.99L190.52,126.99z M216.07,100.29
					c-0.19,2.92,4.17,6.84,4.71-1.46C221.07,94.32,216.47,94.16,216.07,100.29L216.07,100.29z M231.83,78.51
					c-0.12,3.38,5.04,7.76,5.39-1.84C237.41,71.45,232.09,71.42,231.83,78.51L231.83,78.51z M140.55,108.96
					c2.45,1.62,7.95-0.39,0.98-5.01C137.73,101.44,135.39,105.55,140.55,108.96L140.55,108.96z M190.29,100.21
					c-1.76,0.44-2.72,2.65-2.15,4.94c0.57,2.29,2.46,3.79,4.22,3.36c1.76-0.44,2.72-2.65,2.15-4.94
					C193.94,101.28,192.05,99.77,190.29,100.21L190.29,100.21z M165.48,88.78c-1.76,0.44-2.66,2.87-2.02,5.44
					c0.64,2.56,2.58,4.29,4.34,3.85c1.76-0.44,2.67-2.87,2.03-5.44C169.18,90.07,167.24,88.34,165.48,88.78L165.48,88.78z
					 M258.67,98.74c-0.99,1-0.65,3,0.76,4.46c1.41,1.46,3.37,1.83,4.36,0.83c0.99-1,0.65-3-0.76-4.46
					C261.61,98.11,259.66,97.74,258.67,98.74L258.67,98.74z M248.57,119.3c-0.99,1-0.65,3,0.76,4.46c1.41,1.46,3.36,1.83,4.36,0.83
					c0.99-1,0.65-3-0.76-4.46C251.51,118.67,249.56,118.3,248.57,119.3L248.57,119.3z M201.47,82.52c-0.19,2.92,4.17,6.84,4.71-1.46
					C206.48,76.55,201.88,76.39,201.47,82.52L201.47,82.52z M213.59,127.97c0.51,1.34,2.43,1.85,4.3,1.13
					c1.87-0.72,2.97-2.39,2.46-3.73c-0.51-1.34-2.43-1.85-4.3-1.13C214.18,124.95,213.08,126.62,213.59,127.97L213.59,127.97z
					 M153.86,117.23c-0.99,1-0.65,3,0.76,4.46c1.41,1.46,3.37,1.83,4.36,0.83c0.99-1,0.65-3-0.76-4.46
					C156.81,116.6,154.86,116.23,153.86,117.23L153.86,117.23z M116.15,149.86c-0.99,1-0.65,3,0.76,4.46
					c1.41,1.46,3.37,1.83,4.36,0.83c0.99-1,0.65-3-0.76-4.46C119.09,149.23,117.14,148.86,116.15,149.86L116.15,149.86z"/>
			</g>
		</g>
		<path class="st5" d="M405.85,104.82c-1.24-3.44-3.12-6.69-5.44-9.02l-1.73-1.77l-1.81-1.43c-1.22-1.01-2.45-1.75-3.68-2.46
			c-4.95-2.84-9.83-4.39-14.61-5.62c-9.52-2.18-18.76-2.92-27.86-3.07c-18.19-0.23-35.94,1.61-53.46,4.29
			c-0.4,0.06-0.8,0.14-1.2,0.21c5.2,3.98,9.8,8.67,13.96,13.78c13.47-1.28,26.95-1.88,40.14-1.26c8.31,0.4,16.52,1.43,23.95,3.4
			c3.63,1.05,7.06,2.38,9.62,4c2.62,1.64,3.85,3.34,4.19,4.54c0.24,1.23,0.04,3.21-1.3,5.92c-1.3,2.65-3.46,5.55-5.93,8.32
			c-5.16,5.54-11.46,10.74-18.2,15.49c-13.55,9.48-28.55,17.55-43.88,24.85c-30.73,14.62-62.84,26.84-95.37,37.76
			c-32.6,10.73-65.49,21.04-99.23,28.35c-16.86,3.59-33.99,6.24-51.2,6.68c-8.59,0.18-17.21-0.33-25.55-2.08
			c-4.12-0.99-8.21-2.24-11.83-4.29c-3.59-2.03-6.71-4.95-8.04-8.74c-1.17-3.84-0.38-8.1,1.35-11.9c1.73-3.83,4.26-7.34,7.01-10.63
			c5.7-6.46,12.43-12,19.42-17.1c14.13-10.08,29.52-18.29,45.26-25.57c2.01-0.92,4.03-1.78,6.05-2.67c1.15-2.77,2.39-5.48,3.73-8.14
			c-4.03,2.09-8.03,4.22-12.01,6.41c-15.37,8.44-30.39,17.57-44.4,28.13c-7.03,5.24-13.66,11.06-19.56,17.64
			c-2.88,3.35-5.56,6.94-7.48,11.04c-1.9,4.04-2.95,8.87-1.61,13.49c1.41,4.6,4.97,8.12,8.81,10.49c3.89,2.41,8.12,4.04,12.4,5.32
			c8.61,2.4,17.44,3.66,26.26,4.39c17.67,1.45,35.42,1.1,53.09-0.02c35.38-2.27,70.49-8.53,104.51-18.38
			c33.99-9.96,67.27-22.7,98.88-39.43c15.77-8.43,31.19-17.69,45.78-28.85c7.29-5.6,14.35-11.76,20.78-19.25
			c3.16-3.87,6.21-8.06,8.55-13.34c0.58-1.32,1.14-2.66,1.54-4.21l0.63-2.24l0.37-2.48C407.25,112.09,406.87,108.33,405.85,104.82z"
			/>
	</g>
	<g>
		<g>
			<path class="st6" d="M454.9,122.81h44.06v17.75h-44.42c-2.99,0-5.25,0.65-6.79,1.94c-1.53,1.3-2.3,3.22-2.3,5.77
				c0,2.51,0.77,4.41,2.3,5.68c1.53,1.28,3.8,1.91,6.79,1.91h19.07c9.17,0,16.32,2.29,21.46,6.87c5.14,4.58,7.71,10.94,7.71,19.07
				c0,8.13-2.57,14.49-7.71,19.07c-5.14,4.58-12.3,6.87-21.46,6.87h-44.54v-17.87h44.95c3.47,0,6.09-0.68,7.86-2.03
				c1.77-1.35,2.66-3.37,2.66-6.04c0-2.71-0.89-4.73-2.66-6.07c-1.77-1.33-4.39-2-7.86-2H454.9c-8.53,0-15.25-2.28-20.18-6.84
				c-4.92-4.56-7.38-10.77-7.38-18.62c0-7.89,2.46-14.11,7.38-18.65C439.65,125.08,446.37,122.81,454.9,122.81z"/>
			<path class="st6" d="M510.73,144.81h35.63c6.34,0,11.15,1.36,14.44,4.07c3.29,2.71,4.93,6.68,4.93,11.9v10.64
				c0,5.22-1.64,9.2-4.93,11.93c-3.29,2.73-8.1,4.09-14.44,4.09h-19.85v20.33h-15.78V144.81z M526.52,160.35v11.42h18.35
				c1.91,0,3.21-0.25,3.89-0.75c0.68-0.5,1.02-1.44,1.02-2.84v-4.12c0-1.39-0.35-2.36-1.05-2.9c-0.7-0.54-1.98-0.81-3.86-0.81
				H526.52z"/>
			<path class="st6" d="M614.21,155.99l17.28,51.77h-16.68l-14.17-45.43c-0.32-1.03-0.74-1.8-1.26-2.3
				c-0.52-0.5-1.18-0.75-1.97-0.75c-0.76,0-1.37,0.24-1.85,0.72c-0.48,0.48-0.88,1.26-1.2,2.33l-14.17,45.43h-16.68l17.16-51.77
				c1.27-3.95,3.37-6.97,6.28-9.09c2.91-2.11,6.4-3.17,10.46-3.17c4.1,0,7.56,1.03,10.37,3.08
				C610.6,148.86,612.74,151.92,614.21,155.99z"/>
			<path class="st6" d="M652.77,144.81h28.04v15.54h-25.47c-2.51,0-4.46,0.71-5.86,2.12c-1.4,1.42-2.09,3.38-2.09,5.89v15.9
				c0,2.51,0.7,4.46,2.09,5.86c1.39,1.4,3.35,2.09,5.86,2.09h25.47v15.54h-28.04c-6.74,0-11.97-1.86-15.69-5.59
				c-3.73-3.73-5.59-8.96-5.59-15.69v-20.33c0-6.73,1.86-11.97,5.59-15.72C640.81,146.68,646.04,144.81,652.77,144.81z"/>
			<path class="st6" d="M710.1,144.81h31.09v15.3h-30.37c-2.27,0-3.78,0.35-4.51,1.05c-0.74,0.7-1.11,2.1-1.11,4.21v2.99h35.99v15.3
				H705.2v3.53c0,2.15,0.36,3.57,1.08,4.24c0.72,0.68,2.23,1.02,4.54,1.02h30.37v15.3H710.1c-7.41,0-12.73-1.58-15.96-4.75
				c-3.23-3.17-4.84-8.4-4.84-15.69v-22.06c0-7.25,1.61-12.47,4.84-15.66C697.37,146.4,702.69,144.81,710.1,144.81z"/>
		</g>
		<g>
			<path class="st7" d="M756.59,123.48h47.93c8.39,0,14.75,1.52,19.07,4.57c4.32,3.05,6.47,7.52,6.47,13.42v9.21
				c0,4-1.49,7.22-4.48,9.65c-2.99,2.43-7,3.69-12.03,3.77c5.58,0.28,9.88,1.77,12.89,4.48c3.01,2.72,4.51,6.45,4.51,11.2v9.98
				c0,5.9-2.18,10.39-6.53,13.48c-4.36,3.09-10.71,4.63-19.07,4.63h-48.77V123.48z M774.59,140.59v50.13h28.21
				c3.84,0,6.55-0.69,8.14-2.08s2.38-3.72,2.38-7.01s-0.78-5.59-2.35-6.92c-1.56-1.33-4.29-1.99-8.17-1.99h-19.66v-15.8h19.07
				c3.76,0,6.39-0.6,7.87-1.81c1.48-1.21,2.23-3.32,2.23-6.33s-0.74-5.13-2.23-6.36c-1.48-1.23-4.11-1.84-7.87-1.84H774.59z"/>
			<path class="st7" d="M900.81,145.34v42.47c0,6.73-1.84,11.94-5.52,15.62s-8.87,5.52-15.56,5.52h-17.4
				c-6.69,0-11.89-1.85-15.59-5.56c-3.7-3.7-5.55-8.9-5.55-15.59v-42.47h15.68v40.27c0,2.49,0.69,4.44,2.08,5.82
				c1.39,1.39,3.33,2.08,5.82,2.08h12.41c2.49,0,4.43-0.69,5.82-2.08c1.39-1.39,2.08-3.33,2.08-5.82v-40.27H900.81z"/>
			<path class="st7" d="M911.02,145.34h35.16c6.81,0,11.9,1.23,15.27,3.68c3.37,2.46,5.05,6.18,5.05,11.17v6.95
				c0,3.29-0.62,5.81-1.87,7.57c-1.25,1.76-3.26,3-6.03,3.71c1.74,0.55,3.08,1.41,4.01,2.55c0.93,1.15,1.73,3.15,2.41,6l4.75,20.91
				h-16.75l-3.33-16.33c-0.36-1.86-0.97-3.31-1.84-4.36c-0.87-1.05-1.92-1.58-3.15-1.58h-12.3v-14.73h13.66
				c1.62,0,2.8-0.25,3.53-0.74c0.73-0.49,1.1-1.3,1.1-2.4v-3.62c0-1.15-0.38-1.99-1.13-2.53c-0.75-0.53-1.92-0.8-3.5-0.8H926.7v47.1
				h-15.68V145.34z"/>
			<path class="st7" d="M995.13,145.34h33.2v15.44h-32.25c-1.98,0-3.45,0.46-4.4,1.37c-0.95,0.91-1.43,2.34-1.43,4.28v20.43
				c0,1.9,0.48,3.31,1.43,4.22c0.95,0.91,2.42,1.37,4.4,1.37h19.01v-7.78h-11.7v-14.85h27.38v38.07h-35.64
				c-6.41,0-11.46-1.81-15.15-5.44c-3.68-3.62-5.52-8.58-5.52-14.88v-21.92c0-6.3,1.84-11.25,5.52-14.88
				C983.67,147.15,988.72,145.34,995.13,145.34z"/>
			<path class="st7" d="M1100.62,145.34v42.47c0,6.73-1.84,11.94-5.52,15.62c-3.68,3.68-8.87,5.52-15.56,5.52h-17.4
				c-6.69,0-11.89-1.85-15.59-5.56c-3.7-3.7-5.55-8.9-5.55-15.59v-42.47h15.68v40.27c0,2.49,0.69,4.44,2.08,5.82
				c1.39,1.39,3.33,2.08,5.82,2.08h12.41c2.49,0,4.44-0.69,5.82-2.08c1.39-1.39,2.08-3.33,2.08-5.82v-40.27H1100.62z"/>
			<path class="st7" d="M1131.15,145.34h30.89v15.21h-30.17c-2.26,0-3.75,0.35-4.49,1.04c-0.73,0.7-1.1,2.09-1.1,4.19v2.97h35.76
				v15.21h-35.76v3.5c0,2.14,0.36,3.54,1.07,4.22c0.71,0.67,2.22,1.01,4.51,1.01h30.17v15.21h-30.89c-7.37,0-12.65-1.57-15.86-4.72
				c-3.21-3.15-4.81-8.34-4.81-15.59v-21.92c0-7.21,1.6-12.39,4.81-15.56C1118.5,146.92,1123.79,145.34,1131.15,145.34z"/>
			<path class="st7" d="M1172.26,145.34h35.16c6.81,0,11.9,1.23,15.27,3.68c3.37,2.46,5.05,6.18,5.05,11.17v6.95
				c0,3.29-0.62,5.81-1.87,7.57c-1.24,1.76-3.26,3-6.03,3.71c1.74,0.55,3.08,1.41,4.01,2.55c0.93,1.15,1.73,3.15,2.41,6l4.75,20.91
				h-16.75l-3.33-16.33c-0.36-1.86-0.97-3.31-1.84-4.36c-0.87-1.05-1.92-1.58-3.15-1.58h-12.3v-14.73h13.66
				c1.62,0,2.8-0.25,3.54-0.74c0.73-0.49,1.1-1.3,1.1-2.4v-3.62c0-1.15-0.38-1.99-1.13-2.53c-0.75-0.53-1.92-0.8-3.5-0.8h-19.36
				v47.1h-15.68V145.34z"/>
		</g>
	</g>
	<text transform="matrix(1 0 0 1 582.7666 259.917)" class="st6 st8 st9 st10">Delivery</text>
</g>
</svg>
